<?xml version="1.0" encoding="UTF-8" standalone="no"?>
<svg
   xmlns:dc="http://purl.org/dc/elements/1.1/"
   xmlns:cc="http://creativecommons.org/ns#"
   xmlns:rdf="http://www.w3.org/1999/02/22-rdf-syntax-ns#"
   xmlns:svg="http://www.w3.org/2000/svg"
   xmlns="http://www.w3.org/2000/svg"
   xmlns:sodipodi="http://sodipodi.sourceforge.net/DTD/sodipodi-0.dtd"
   xmlns:inkscape="http://www.inkscape.org/namespaces/inkscape"
   version="1.1"
   id="Laag_1"
   x="0px"
   y="0px"
   viewBox="0 0 390.57437 82.106483"
   xml:space="preserve"
   sodipodi:docname="contact-artwork.svg"
   width="391.76431"
   height="82.106483"
   inkscape:version="0.92.2 (5c3e80d, 2017-08-06)"><metadata
     id="metadata8873"><rdf:RDF><cc:Work
         rdf:about=""><dc:format>image/svg+xml</dc:format><dc:type
           rdf:resource="http://purl.org/dc/dcmitype/StillImage" /><dc:title></dc:title></cc:Work></rdf:RDF></metadata><defs
     id="defs8871" /><sodipodi:namedview
     pagecolor="#ffffff"
     bordercolor="#666666"
     borderopacity="1"
     objecttolerance="10"
     gridtolerance="10"
     guidetolerance="10"
     inkscape:pageopacity="0"
     inkscape:pageshadow="2"
     inkscape:window-width="640"
     inkscape:window-height="480"
     id="namedview8869"
     showgrid="false"
     inkscape:pagecheckerboard="true"
     viewbox-width="426.7"
     fit-margin-top="0"
     fit-margin-left="0"
     fit-margin-right="0"
     fit-margin-bottom="0"
     inkscape:zoom="2.0712617"
     inkscape:cx="194.64004"
     inkscape:cy="38.934042"
     inkscape:current-layer="Laag_1" /><path
     style="fill:#8ed0a1"
     d="m 335.32979,61.889 c -16.565,-0.671 -33.441,-0.838 -50.207,-0.62 -14.487,0.188 -30.123,0.805 -40.181,3.37 -5.124,1.307 -8.272,3.002 -10.768,4.709 -3.249,2.223 -5.505,4.735 -1.673,6.901 3.008,1.7 9.425,2.926 16.403,3.636 6.978,0.71 14.56,0.966 22.05,1.206 18.906,0.606 37.935,1.152 56.99,0.985 19.055,-0.167 38.261,-1.076 55.171,-3.238 2.056,-0.263 4.134,-0.556 5.538,-1.009 1.454,-0.469 2.043,-1.067 2.296,-1.654 1.18,-2.734 -4.134,-5.373 -10.061,-7.706 -4.999,-1.967 -10.752,-3.899 -18.739,-5.137 -12.406,-1.923 -28.061,-1.881 -42.728,-1.776"
     id="path8816"
     inkscape:connector-curvature="0" /><path
     style="fill:#a2a1a0"
     d="m 300.26779,72.748 c 2.406,0.079 4.811,0.157 7.217,0.236 -0.188,-4.281 0.045,-8.581 0.693,-12.817 0.399,-2.605 0.954,-5.186 1.301,-7.798 0.389,-2.926 0.515,-5.88 0.642,-8.829 0.336,-7.85 0.671,-15.701 1.007,-23.551 0.018,-0.417 -8.93,-0.499 -9.744,-0.361 0.517,1.605 1.886,2.769 2.486,4.33 0.639,1.664 0.394,3.445 0.263,5.179 -0.365,4.818 -0.853,9.631 -1.28,14.444 -0.862,9.723 -1.724,19.445 -2.585,29.167 z"
     id="path8818"
     inkscape:connector-curvature="0" /><path
     style="fill:#9d5f4b"
     d="m 244.92079,33.622 c -2.823,7.102 -8.369,12.93 -10.774,20.184 2.091,0.362 4.212,0.545 6.334,0.546 -1.089,6.473 -1.571,13.048 -1.438,19.61 5.963,1.079 12.091,0.226 18.145,0.473 7.196,0.293 14.378,2.182 21.531,1.335 h 44.737 c 0.59,-5.329 0.528,-10.528 0.263,-15.883 -0.023,-0.472 -0.05,-0.944 -0.077,-1.416 -0.008,-0.145 -0.024,-0.306 -0.132,-0.404 -0.074,-0.067 -0.176,-0.089 -0.273,-0.109 -1.467,-0.3 -2.897,-0.937 -4.394,-0.937 h -23.484 c 0.468,-2.825 0.935,-5.65 1.403,-8.475 0.008,0.302 -0.34,0.514 -0.639,0.476 -0.3,-0.038 -0.547,-0.246 -0.764,-0.455 -2.659,-2.555 -3.765,-6.614 -6.917,-8.528 -2.226,-1.352 -4.991,-1.324 -7.595,-1.321 -7.663,0.008 -15.327,-0.561 -22.906,-1.7 -0.851,-0.128 -1.723,-0.271 -2.466,-0.705 -0.465,-0.272 -0.861,-0.649 -1.318,-0.934 -0.733,-0.458 -1.594,-0.664 -2.446,-0.805 -1.2,-0.199 -2.418,-0.283 -3.634,-0.251 -1.108,0.029 -2.551,-0.064 -2.856,-1.129 -0.336,0.314 -0.131,10e-4 -0.3,0.428 z"
     id="path8820"
     inkscape:connector-curvature="0" /><path
     style="fill:#844736"
     d="m 318.52979,73.491 c 7.405,0.21 14.811,0.421 22.216,0.631 1.893,0.054 3.789,0.107 5.679,-0.011 2.027,-0.127 4.036,-0.453 6.049,-0.72 10.997,-1.462 22.152,-1.209 33.191,-2.307 -0.132,-3.336 -0.264,-6.673 -0.397,-10.009 -12.645,0.047 -25.29,0.392 -37.919,1.036 -0.982,-2.88 -2.557,-5.556 -4.597,-7.813 -0.55,-0.608 -1.152,-1.199 -1.903,-1.527 -1.029,-0.449 -2.203,-0.352 -3.32,-0.247 -7.527,0.709 -15.055,1.42 -22.582,2.133 -0.618,0.059 -1.249,0.12 -1.817,0.371 -1.909,0.844 -2.325,3.318 -2.48,5.399 -0.156,2.105 -0.238,4.452 1.131,6.059"
     id="path8822"
     inkscape:connector-curvature="0" /><path
     style="fill:#cca162"
     d="m 340.81879,54.804 c 0.55,0.011 1.126,0.035 1.603,0.311 0.44,0.255 0.738,0.692 1.005,1.125 1.168,1.897 1.958,5.979 4.071,6.684 0.762,0.254 2.62,0.085 3.423,0.094 12.353,0.127 23.932,-1.371 36.285,-1.243 -0.891,-1.867 -3.008,-2.744 -4.924,-3.524 -3.715,-1.511 -7.339,-3.247 -10.845,-5.195 -4.838,-2.688 -9.442,-5.774 -14.04,-8.856 -7.631,-5.115 -15.262,-10.23 -22.893,-15.345 -1.445,2.175 -3.741,3.607 -5.94,5.014 -8.243,5.275 -16.111,11.137 -23.524,17.527 2.534,1.648 5.091,3.309 7.91,4.401 4.502,1.745 8.568,0.96 13.142,0.151 4.855,-0.86 9.796,-1.244 14.727,-1.144 z"
     id="path8824"
     inkscape:connector-curvature="0" /><path
     style="fill:#22453c"
     d="m 298.55879,75.401 c 1.39,-0.02 2.78,-0.032 4.169,-0.033 -0.088,-1.872 -0.097,-5.441 -0.134,-5.923 -0.165,-2.198 -0.018,-5.283 -0.843,-7.338 -0.586,-1.459 -2.517,-1.063 -3.299,0.25 -0.879,1.475 -0.29,3.701 -0.176,5.282 0.188,2.583 0.276,5.172 0.283,7.762 z"
     id="path8826"
     inkscape:connector-curvature="0" /><path
     style="fill:#22453c"
     d="m 339.66679,58.574 c 0.079,-10e-4 0.165,0.001 0.225,0.052 0.073,0.063 0.077,0.173 0.076,0.269 -0.082,5.048 -0.164,10.096 -0.246,15.144 -3.185,-0.212 -6.369,-0.424 -9.554,-0.636 0.423,0.028 0.986,-5.208 1.023,-5.75 0.138,-2.039 0.046,-4.094 -0.277,-6.111 -0.081,-0.503 -0.767,-2.355 -0.475,-2.727 0.343,-0.436 2.246,-0.158 2.764,-0.164 2.155,-0.025 4.31,-0.051 6.464,-0.077 z"
     id="path8828"
     inkscape:connector-curvature="0" /><path
     style="fill:#22453c"
     d="m 353.96879,63.62 c -0.143,1.2 -0.202,2.41 -0.178,3.618 0.002,0.095 0.007,0.198 0.069,0.27 0.077,0.091 0.212,0.099 0.332,0.1 0.579,0.006 1.159,0.012 1.738,0.017 0.033,-1.277 0.066,-2.554 0.1,-3.831 -0.558,-0.014 -1.116,-0.028 -1.674,-0.042"
     id="path8830"
     inkscape:connector-curvature="0" /><path
     style="fill:#22453c"
     d="m 362.63379,63.339 c -0.143,1.2 -0.202,2.41 -0.178,3.618 0.002,0.095 0.007,0.198 0.069,0.27 0.077,0.091 0.212,0.099 0.332,0.1 0.579,0.006 1.159,0.012 1.738,0.017 0.033,-1.277 0.066,-2.554 0.1,-3.831 -0.558,-0.014 -1.116,-0.028 -1.674,-0.042"
     id="path8832"
     inkscape:connector-curvature="0" /><path
     style="fill:#22453c"
     d="m 371.16079,63.572 c -0.143,1.2 -0.202,2.41 -0.178,3.618 0.002,0.095 0.007,0.198 0.069,0.27 0.077,0.091 0.212,0.099 0.332,0.1 0.579,0.006 1.159,0.012 1.738,0.017 0.033,-1.277 0.066,-2.554 0.1,-3.831 -0.558,-0.014 -1.116,-0.028 -1.674,-0.042"
     id="path8834"
     inkscape:connector-curvature="0" /><path
     style="fill:#22453c"
     d="m 378.22979,63.766 c -0.143,1.2 -0.202,2.41 -0.178,3.618 0.002,0.095 0.007,0.198 0.069,0.27 0.077,0.091 0.212,0.099 0.332,0.1 0.579,0.006 1.159,0.012 1.738,0.017 0.033,-1.277 0.066,-2.554 0.1,-3.831 -0.558,-0.014 -1.116,-0.028 -1.674,-0.042"
     id="path8836"
     inkscape:connector-curvature="0" /><path
     style="fill:#22453c"
     d="m 247.00879,74.252 h 3.458 c 0.648,0 1.28,0.21 1.927,0.211 -0.079,-4.701 -0.157,-9.402 -0.236,-14.103 -2.701,-0.167 -5.412,-0.178 -8.114,-0.033 -0.102,2.937 -0.062,5.88 0.119,8.813 0.086,1.397 0.085,2.901 0.366,4.274 0.099,0.484 0.142,0.771 0.657,0.816 z"
     id="path8838"
     inkscape:connector-curvature="0" /><path
     style="fill:#ffffff"
     d="m 242.13579,40.965 c -0.511,0.699 -1.052,1.84 -1.514,2.573 -0.428,0.679 -1.018,1.301 -1.148,2.093 4.312,0.875 8.884,0.124 13.092,1.409 -0.476,-2.836 -1.494,-5.58 -2.982,-8.041 -0.66,-1.091 -1.417,-2.14 -1.845,-3.34 -0.148,-0.416 -0.259,-0.855 -0.508,-1.22 -0.276,-0.404 -0.952,-0.547 -1.498,-0.351 -0.567,0.204 -1.346,2.536 -1.599,3.047 -0.896,1.811 -0.616,1.94 -1.998,3.83 z"
     id="path8840"
     inkscape:connector-curvature="0" /><path
     style="fill:#724441"
     d="m 270.51079,59.358 c -0.46,-0.02 -0.932,-0.044 -1.356,-0.224 -0.465,-0.197 -0.833,-0.565 -1.195,-0.918 -2.857,-2.79 -6.1,-5.185 -9.607,-7.094 -2.462,-1.341 -5.152,-2.523 -6.861,-4.745 -0.769,-1 -1.296,-2.162 -1.816,-3.311 -1.443,-3.191 -2.885,-6.382 -4.328,-9.573 5.593,-0.484 11.24,-0.332 16.799,0.451 4.993,0.704 9.913,1.915 14.934,2.376 5.039,0.463 10.121,0.164 15.168,0.534 0.649,0.048 1.324,0.114 1.882,0.45 0.428,0.257 0.753,0.653 1.063,1.044 1.81,2.28 3.452,4.692 4.91,7.211 0.351,0.607 0.702,1.234 1.231,1.695 0.541,0.473 1.229,0.738 1.899,0.998 3.915,1.519 7.773,3.184 11.565,4.989 2.652,1.263 6.206,2.691 7.591,5.539 -6.508,1.092 -13.627,0.775 -20.225,0.924 -6.819,0.154 -13.641,0.16 -20.46,0.019 -3.731,-0.077 -7.463,-0.199 -11.194,-0.365 z"
     id="path8842"
     inkscape:connector-curvature="0" /><path
     style="fill:#6889b1"
     d="m 285.78579,0 c 8.314,0.241 16.627,0.482 24.941,0.723 5.462,0.158 10.936,0.317 16.385,-0.098 1.621,-0.123 3.261,-0.297 4.862,-0.018 0.687,4.541 0.413,9.165 0.136,13.749 -0.156,2.581 -0.311,5.163 -0.467,7.744 -0.017,0.279 -0.037,0.57 -0.176,0.813 -0.313,0.544 -1.056,0.618 -1.684,0.611 -4.449,-0.048 -8.873,-0.914 -13.318,-0.727 -1.548,0.065 -3.088,0.258 -4.636,0.337 -6.401,0.33 -12.755,-1.272 -19.165,-1.333 -2.695,-0.026 -5.412,0.22 -8.071,-0.218 -0.506,-0.083 -1.063,-0.228 -1.336,-0.662 -0.131,-0.208 -0.176,-0.457 -0.215,-0.7 -0.463,-2.889 -0.302,-5.837 -0.141,-8.758 0.144,-2.614 0.289,-5.228 0.433,-7.842 0.041,-0.736 0.085,-1.488 0.361,-2.171 0.276,-0.683 0.833,-1.298 1.555,-1.444 z"
     id="path8844"
     inkscape:connector-curvature="0" /><path
     style="fill:none;stroke:#ffffff;stroke-width:0.75;stroke-miterlimit:10"
     d="m 287.41079,1.507 c 7.783,0.21 15.566,0.42 23.349,0.631 5.114,0.138 10.238,0.276 15.339,-0.086 1.517,-0.108 3.053,-0.259 4.552,-0.016 0.643,3.959 0.386,7.991 0.127,11.988 -0.146,2.251 -0.292,4.501 -0.437,6.752 -0.016,0.244 -0.035,0.497 -0.165,0.708 -0.293,0.475 -0.989,0.539 -1.576,0.533 -4.165,-0.042 -8.307,-0.797 -12.468,-0.634 -1.449,0.057 -2.891,0.225 -4.34,0.294 -5.993,0.288 -11.941,-1.109 -17.942,-1.162 -2.523,-0.022 -5.067,0.192 -7.556,-0.19 -0.474,-0.073 -0.995,-0.198 -1.25,-0.577 -0.122,-0.182 -0.165,-0.399 -0.201,-0.61 -0.433,-2.519 -0.283,-5.089 -0.132,-7.636 0.135,-2.279 0.271,-4.558 0.406,-6.837 0.038,-0.642 0.079,-1.297 0.338,-1.893 0.259,-0.596 0.779,-1.132 1.456,-1.259 z"
     id="path8846"
     inkscape:connector-curvature="0" /><g
     id="g8862"
     transform="translate(-18.278206,-58.5)"><rect
       x="310.242"
       y="64.623001"
       style="fill:none"
       width="62.771999"
       height="15.3"
       id="rect8848" /><path
       style="fill:#ffffff"
       d="m 316.748,65.271 -0.202,1.215 h -2.269 v 7.924 h -1.593 v -7.924 h -2.309 v -1.215 z"
       id="path8850"
       inkscape:connector-curvature="0" /><path
       style="fill:#ffffff"
       d="m 319.178,64.947 c 0.153,0.171 0.229,0.392 0.229,0.662 0,0.27 -0.079,0.495 -0.236,0.675 -0.157,0.18 -0.389,0.27 -0.695,0.27 -0.288,0 -0.511,-0.087 -0.668,-0.263 -0.157,-0.175 -0.236,-0.389 -0.236,-0.641 0,-0.279 0.079,-0.508 0.236,-0.688 0.157,-0.18 0.394,-0.27 0.709,-0.27 0.288,-10e-4 0.507,0.084 0.661,0.255 z m -1.08,9.093 c -0.252,-0.284 -0.378,-0.65 -0.378,-1.101 v -5.251 h 1.539 v 5.116 c 0,0.207 0.031,0.347 0.095,0.418 0.062,0.072 0.157,0.108 0.283,0.108 0.036,0 0.074,0 0.115,0 0.04,0 0.078,-0.004 0.114,-0.013 0.036,0 0.076,-0.004 0.122,-0.014 l 0.161,0.972 c -0.062,0.036 -0.144,0.067 -0.242,0.094 -0.081,0.027 -0.183,0.049 -0.304,0.067 -0.122,0.018 -0.259,0.027 -0.412,0.027 -0.477,0.002 -0.841,-0.14 -1.093,-0.423 z"
       id="path8852"
       inkscape:connector-curvature="0" /><path
       style="fill:#ffffff"
       d="m 321.23,67.688 h 1.538 v 6.398 c 0,0.54 -0.071,0.99 -0.216,1.35 -0.144,0.36 -0.326,0.664 -0.547,0.911 -0.221,0.247 -0.468,0.455 -0.742,0.621 -0.274,0.166 -0.547,0.317 -0.816,0.452 l -0.621,-1.026 c 0.333,-0.171 0.594,-0.353 0.783,-0.547 0.188,-0.193 0.328,-0.387 0.418,-0.58 0.09,-0.194 0.146,-0.38 0.169,-0.561 0.023,-0.181 0.034,-0.337 0.034,-0.472 z m 1.452,-2.741 c 0.157,0.171 0.235,0.392 0.235,0.662 0,0.27 -0.078,0.495 -0.235,0.675 -0.158,0.18 -0.395,0.27 -0.709,0.27 -0.288,0 -0.509,-0.087 -0.662,-0.263 -0.152,-0.175 -0.229,-0.389 -0.229,-0.641 0,-0.279 0.079,-0.508 0.236,-0.688 0.158,-0.18 0.39,-0.27 0.695,-0.27 0.288,-10e-4 0.51,0.084 0.669,0.255 z"
       id="path8854"
       inkscape:connector-curvature="0" /><path
       style="fill:#ffffff"
       d="m 328.709,74.411 v -4.36 c 0,-0.378 -0.067,-0.682 -0.203,-0.911 -0.135,-0.229 -0.364,-0.344 -0.688,-0.344 -0.207,0 -0.407,0.052 -0.601,0.155 -0.194,0.103 -0.366,0.254 -0.52,0.452 -0.153,0.198 -0.276,0.438 -0.371,0.722 -0.095,0.284 -0.142,0.601 -0.142,0.952 v 3.334 h -1.539 v -3.402 c 0,-0.54 -0.036,-0.992 -0.108,-1.357 -0.072,-0.364 -0.148,-0.659 -0.229,-0.884 -0.099,-0.261 -0.207,-0.472 -0.323,-0.634 l 1.215,-0.486 c 0.09,0.099 0.18,0.221 0.27,0.364 0.072,0.126 0.144,0.282 0.216,0.466 0.072,0.185 0.131,0.394 0.176,0.628 0.234,-0.54 0.571,-0.929 1.013,-1.168 0.44,-0.238 0.904,-0.357 1.391,-0.357 0.692,0 1.194,0.209 1.505,0.627 0.311,0.418 0.466,0.983 0.466,1.694 v 4.509 z"
       id="path8856"
       inkscape:connector-curvature="0" /><path
       style="fill:#ffffff"
       d="m 331.936,67.688 h 1.538 v 6.398 c 0,0.54 -0.071,0.99 -0.216,1.35 -0.144,0.36 -0.326,0.664 -0.547,0.911 -0.221,0.247 -0.468,0.455 -0.742,0.621 -0.274,0.166 -0.547,0.317 -0.816,0.452 l -0.621,-1.026 c 0.333,-0.171 0.594,-0.353 0.783,-0.547 0.188,-0.193 0.328,-0.387 0.418,-0.58 0.09,-0.194 0.146,-0.38 0.169,-0.561 0.023,-0.181 0.034,-0.337 0.034,-0.472 z m 1.451,-2.741 c 0.157,0.171 0.235,0.392 0.235,0.662 0,0.27 -0.078,0.495 -0.235,0.675 -0.158,0.18 -0.395,0.27 -0.709,0.27 -0.288,0 -0.509,-0.087 -0.662,-0.263 -0.152,-0.175 -0.229,-0.389 -0.229,-0.641 0,-0.279 0.079,-0.508 0.236,-0.688 0.158,-0.18 0.39,-0.27 0.695,-0.27 0.288,-10e-4 0.511,0.084 0.669,0.255 z"
       id="path8858"
       inkscape:connector-curvature="0" /><path
       style="fill:#ffffff"
       d="m 335.074,69.618 c 0.166,-0.459 0.396,-0.844 0.688,-1.154 0.292,-0.31 0.636,-0.544 1.032,-0.702 0.396,-0.158 0.823,-0.236 1.282,-0.236 0.405,0 0.75,0.049 1.033,0.148 0.283,0.099 0.515,0.234 0.695,0.405 0.18,0.171 0.312,0.374 0.398,0.608 0.085,0.234 0.128,0.486 0.128,0.756 0,0.324 -0.09,0.632 -0.271,0.925 -0.18,0.292 -0.438,0.549 -0.775,0.77 -0.338,0.22 -0.745,0.396 -1.223,0.526 -0.477,0.13 -1.012,0.2 -1.606,0.209 0.027,0.208 0.07,0.403 0.129,0.587 0.059,0.184 0.144,0.347 0.256,0.486 0.113,0.14 0.259,0.25 0.439,0.331 0.18,0.081 0.404,0.121 0.675,0.121 0.198,0 0.409,-0.022 0.635,-0.067 0.225,-0.045 0.432,-0.099 0.62,-0.162 0.226,-0.072 0.446,-0.153 0.662,-0.243 l 0.405,0.958 c -0.234,0.117 -0.486,0.221 -0.757,0.311 -0.233,0.081 -0.504,0.153 -0.81,0.216 -0.306,0.063 -0.63,0.095 -0.972,0.095 -0.522,0 -0.968,-0.079 -1.337,-0.236 -0.369,-0.158 -0.67,-0.38 -0.904,-0.668 -0.234,-0.288 -0.405,-0.634 -0.513,-1.04 -0.108,-0.405 -0.162,-0.855 -0.162,-1.35 0.003,-0.604 0.086,-1.135 0.253,-1.594 z m 2.147,-0.83 c -0.194,0.14 -0.35,0.319 -0.466,0.54 -0.117,0.221 -0.201,0.468 -0.25,0.742 -0.05,0.275 -0.079,0.552 -0.088,0.831 0.432,-0.018 0.799,-0.074 1.101,-0.169 0.301,-0.094 0.546,-0.211 0.735,-0.351 0.189,-0.139 0.326,-0.29 0.412,-0.452 0.085,-0.162 0.128,-0.324 0.128,-0.486 0,-0.261 -0.076,-0.47 -0.229,-0.628 -0.153,-0.157 -0.355,-0.236 -0.607,-0.236 -0.298,0 -0.543,0.069 -0.736,0.209 z"
       id="path8860"
       inkscape:connector-curvature="0" /></g><path
     style="fill:#8ed0a1"
     d="m 238.63779,74.821 c -0.281,-1.176 -0.41,-2.387 -0.384,-3.595 0.016,1.166 -0.355,2.335 -1.042,3.278 -0.145,-1.275 -0.369,-2.541 -0.672,-3.788 -0.288,1.257 -0.575,2.514 -0.863,3.772 -0.36,-1.628 -1.074,-3.176 -2.079,-4.507 0.235,1.418 0.312,2.861 0.229,4.296 -0.801,-0.202 -1.432,-0.95 -1.497,-1.774 -0.055,0.797 -0.395,1.571 -0.943,2.152 -0.233,-0.779 -0.324,-1.599 -0.267,-2.41 -0.581,0.816 -1.162,1.631 -1.743,2.447 0.19,-1.383 1.052,-2.658 2.265,-3.348 -1,-0.312 -2.148,-0.1 -2.97,0.549 -0.822,0.649 -1.295,1.717 -1.223,2.762 -0.088,-1.962 -0.18,-3.951 -0.769,-5.824 -0.111,1.968 -0.519,3.919 -1.203,5.767 -0.169,-1.225 -0.533,-2.423 -1.074,-3.534 -0.491,1.181 -0.682,2.484 -0.55,3.756 -0.148,-1.394 -0.546,-2.762 -1.169,-4.018 -0.337,1.507 -0.869,2.971 -1.576,4.343 -0.026,-1.537 -0.245,-3.07 -0.65,-4.552 -0.835,1.407 -1.824,2.723 -2.943,3.918 -0.476,-1.493 -0.704,-3.064 -0.673,-4.63 -0.42,1.296 -0.792,2.607 -1.113,3.931 -0.831,-1.367 -1.525,-2.816 -2.07,-4.319 0.363,1.17 0.488,2.412 0.371,3.631 -0.175,0.491 -0.415,0.959 -0.722,1.381 -0.145,-1.275 -0.369,-2.541 -0.672,-3.788 -0.288,1.257 -0.575,2.514 -0.863,3.772 -0.36,-1.628 -1.074,-3.176 -2.079,-4.507 0.235,1.418 0.312,2.861 0.229,4.296 -0.801,-0.202 -1.432,-0.95 -1.497,-1.774 -0.055,0.797 -0.395,1.571 -0.943,2.152 -0.233,-0.779 -0.324,-1.599 -0.267,-2.41 -0.581,0.816 -1.162,1.631 -1.743,2.447 0.19,-1.383 1.052,-2.658 2.265,-3.348 -1,-0.312 -2.148,-0.1 -2.97,0.549 -0.822,0.649 -1.295,1.717 -1.223,2.762 -0.088,-1.962 -0.18,-3.951 -0.77,-5.824 -0.111,1.968 -0.519,3.919 -1.203,5.767 -0.169,-1.225 -0.533,-2.423 -1.074,-3.534 -0.491,1.181 -0.682,2.484 -0.55,3.756 -0.148,-1.394 -0.546,-2.762 -1.169,-4.018 -0.337,1.507 -0.869,2.971 -1.576,4.343 -0.026,-1.537 -0.245,-3.07 -0.65,-4.552 -0.835,1.407 -1.824,2.723 -2.943,3.918 -0.476,-1.493 -0.704,-3.064 -0.673,-4.63 -0.42,1.296 -0.792,2.607 -1.113,3.931 -0.831,-1.367 -1.525,-2.816 -2.07,-4.319 0.194,0.623 0.316,1.268 0.375,1.918 -0.118,0.9 -0.459,1.772 -0.994,2.506 -0.145,-1.275 -0.369,-2.541 -0.672,-3.788 -0.288,1.257 -0.575,2.515 -0.863,3.772 -0.36,-1.628 -1.074,-3.176 -2.079,-4.507 0.235,1.418 0.312,2.861 0.229,4.296 -0.801,-0.202 -1.432,-0.95 -1.497,-1.774 -0.055,0.797 -0.395,1.571 -0.943,2.152 -0.233,-0.779 -0.324,-1.599 -0.267,-2.41 -0.581,0.816 -1.162,1.631 -1.743,2.447 0.19,-1.383 1.052,-2.658 2.265,-3.348 -1,-0.312 -2.148,-0.1 -2.97,0.549 -0.822,0.649 -1.295,1.717 -1.223,2.762 -0.088,-1.962 -0.18,-3.951 -0.769,-5.824 -0.111,1.968 -0.519,3.919 -1.203,5.767 -0.169,-1.225 -0.533,-2.423 -1.074,-3.534 -0.491,1.181 -0.682,2.484 -0.55,3.756 -0.148,-1.394 -0.546,-2.762 -1.169,-4.018 -0.337,1.507 -0.869,2.971 -1.576,4.343 -0.026,-1.537 -0.245,-3.07 -0.65,-4.552 -0.835,1.407 -1.824,2.723 -2.943,3.918 -0.476,-1.493 -0.704,-3.064 -0.673,-4.63 -0.42,1.296 -0.792,2.607 -1.113,3.931 -0.831,-1.367 -1.525,-2.816 -2.07,-4.319 0.363,1.17 0.488,2.412 0.371,3.631 -0.175,0.491 -0.415,0.959 -0.722,1.381 -0.145,-1.275 -0.369,-2.541 -0.672,-3.788 -0.288,1.257 -0.575,2.515 -0.863,3.772 -0.36,-1.628 -1.074,-3.176 -2.079,-4.507 0.235,1.418 0.312,2.861 0.229,4.296 -0.801,-0.202 -1.432,-0.95 -1.497,-1.774 -0.055,0.797 -0.395,1.571 -0.943,2.152 -0.233,-0.779 -0.324,-1.599 -0.267,-2.41 -0.581,0.816 -1.162,1.631 -1.743,2.447 0.19,-1.383 1.052,-2.658 2.265,-3.348 -1,-0.312 -2.148,-0.1 -2.97,0.549 -0.822,0.649 -1.295,1.717 -1.223,2.762 -0.088,-1.962 -0.18,-3.951 -0.769,-5.824 -0.111,1.968 -0.519,3.919 -1.203,5.767 -0.169,-1.225 -0.533,-2.423 -1.074,-3.534 -0.491,1.181 -0.682,2.484 -0.55,3.756 -0.148,-1.394 -0.546,-2.762 -1.169,-4.018 -0.337,1.507 -0.869,2.971 -1.576,4.343 -0.026,-1.537 -0.245,-3.07 -0.65,-4.552 -0.835,1.407 -1.824,2.723 -2.943,3.918 -0.476,-1.493 -0.704,-3.064 -0.673,-4.63 -0.42,1.296 -0.792,2.607 -1.113,3.931 -0.831,-1.367 -1.525,-2.816 -2.07,-4.319 0.276,0.89 0.413,1.822 0.413,2.754 -0.166,0.705 -0.471,1.378 -0.897,1.963 -0.145,-1.275 -0.369,-2.541 -0.672,-3.788 -0.288,1.257 -0.575,2.514 -0.863,3.772 -0.36,-1.628 -1.074,-3.176 -2.079,-4.507 0.235,1.418 0.312,2.861 0.229,4.296 -0.801,-0.202 -1.432,-0.95 -1.497,-1.774 -0.055,0.797 -0.395,1.571 -0.943,2.152 -0.233,-0.779 -0.324,-1.599 -0.267,-2.41 -0.581,0.816 -1.162,1.631 -1.743,2.447 0.19,-1.383 1.052,-2.658 2.265,-3.348 -1,-0.312 -2.148,-0.1 -2.97,0.549 -0.822,0.649 -1.295,1.717 -1.223,2.762 -0.088,-1.962 -0.18,-3.951 -0.769,-5.824 -0.111,1.968 -0.519,3.919 -1.203,5.767 -0.169,-1.225 -0.533,-2.423 -1.074,-3.534 -0.491,1.181 -0.682,2.484 -0.55,3.756 -0.148,-1.394 -0.546,-2.762 -1.169,-4.018 -0.337,1.507 -0.869,2.971 -1.576,4.343 -0.026,-1.537 -0.245,-3.07 -0.65,-4.552 -0.835,1.407 -1.824,2.723 -2.943,3.918 -0.476,-1.493 -0.704,-3.064 -0.673,-4.63 -0.42,1.296 -0.792,2.607 -1.113,3.931 -0.831,-1.367 -1.525,-2.816 -2.07,-4.319 0.363,1.17 0.488,2.412 0.371,3.631 -0.175,0.491 -0.415,0.959 -0.722,1.381 -0.145,-1.275 -0.369,-2.541 -0.672,-3.788 -0.288,1.257 -0.575,2.514 -0.863,3.772 -0.36,-1.628 -1.074,-3.176 -2.079,-4.507 0.235,1.418 0.312,2.861 0.229,4.296 -0.801,-0.202 -1.432,-0.95 -1.497,-1.774 -0.055,0.797 -0.395,1.571 -0.943,2.152 -0.233,-0.779 -0.324,-1.599 -0.267,-2.41 -0.581,0.816 -1.162,1.631 -1.743,2.447 0.19,-1.383 1.052,-2.658 2.265,-3.348 -1,-0.312 -2.148,-0.1 -2.97,0.549 -0.822,0.649 -1.295,1.717 -1.223,2.762 -0.088,-1.962 -0.18,-3.951 -0.769,-5.824 -0.111,1.968 -0.519,3.919 -1.203,5.767 -0.169,-1.225 -0.533,-2.423 -1.074,-3.534 -0.491,1.181 -0.682,2.484 -0.55,3.756 -0.148,-1.394 -0.546,-2.762 -1.169,-4.018 -0.337,1.507 -0.869,2.971 -1.576,4.343 -0.026,-1.537 -0.245,-3.07 -0.65,-4.552 -0.834996,1.407 -1.823996,2.723 -2.942996,3.918 -0.476,-1.493 -0.704,-3.064 -0.673,-4.63 -0.42,1.296 -0.792,2.607 -1.113,3.931 -0.831,-1.367 -1.525,-2.816 -2.07,-4.319 0.423,1.364 0.525,2.828 0.295,4.238 -0.074,0.45 -0.021,1.111 0.435,1.111 0.04,1.164 -0.069,2.516 -0.03,3.68 7.880996,-1.294 15.920996,-0.957 23.902996,-0.523 0,0.175 -0.002,0.354 0.004,0.523 7.924,-1.301 16.009,-0.953 24.035,-0.516 -0.003,0.276 -0.003,0.549 0.006,0.81 7.881,-1.294 15.921,-0.957 23.903,-0.523 0,0.175 -0.002,0.354 0.004,0.523 7.97,-1.309 16.102,-0.949 24.173,-0.508 -0.007,0.375 -0.01,0.745 0.002,1.096 7.881,-1.294 15.921,-0.957 23.903,-0.523 0,0.175 -0.002,0.354 0.004,0.523 8.362,-1.373 16.904,-0.91 25.365,-0.443 -0.474,-1.019 -0.842,-2.181 -1.101,-3.262 z"
     id="path8864"
     inkscape:connector-curvature="0" /><path
     style="fill:#8ed0a1"
     d="M 0.73879423,72.223 C 1.0597942,70.899 1.4317942,69.588 1.8517942,68.292 c -0.031,1.566 0.197,3.137 0.673,4.63 1.119,-1.194 2.107,-2.51 2.943,-3.918 0.406,1.482 0.625,3.016 0.65,4.552 0.708,-1.373 1.239,-2.836 1.576,-4.343 0.623,1.256 1.021,2.624 1.169,4.018 -0.132,-1.272 0.059,-2.576 0.55,-3.756 0.541,1.112 0.9049998,2.31 1.0739998,3.534 0.685,-1.848 1.092,-3.799 1.203,-5.767 0.589,1.874 0.682,3.862 0.769,5.824 -0.072,-1.045 0.401,-2.113 1.223,-2.762 0.822,-0.649 1.97,-0.861 2.97,-0.549 -1.213,0.69 -2.076,1.965 -2.265,3.348 0.581,-0.816 1.162,-1.631 1.743,-2.447 -0.057,0.811 0.034,1.631 0.267,2.41 0.549,-0.581 0.888,-1.355 0.943,-2.152 0.065,0.823 0.696,1.571 1.497,1.774 0.084,-1.435 0.007,-2.878 -0.229,-4.296 1.004,1.331 1.719,2.879 2.079,4.507 0.288,-1.257 0.575,-2.514 0.863,-3.772 0.303,1.247 0.527,2.513 0.672,3.788 0.307,-0.422 0.547,-0.89 0.722,-1.381 0.116,-1.219 -0.008,-2.461 -0.371,-3.631 0.545,1.504 1.24,2.953 2.07,4.319 0.321,-1.324 0.693,-2.635 1.113,-3.931 -0.031,1.566 0.197,3.137 0.673,4.63 1.119,-1.194 2.107,-2.51 2.943,-3.918 0.406,1.482 0.625,3.016 0.65,4.552 0.708,-1.373 1.239,-2.836 1.576,-4.343 0.623,1.256 1.021,2.624 1.169,4.018 -0.132,-1.272 0.059,-2.576 0.55,-3.756 0.541,1.112 0.905,2.31 1.074,3.534 0.685,-1.848 1.092,-3.799 1.203,-5.767 0.589,1.874 0.682,3.862 0.769,5.824 -0.072,-1.045 0.401,-2.113 1.223,-2.762 0.822,-0.649 1.97,-0.861 2.97,-0.549 -1.213,0.69 -2.076,1.965 -2.265,3.348 0.581,-0.816 1.162,-1.631 1.743,-2.447 -0.057,0.811 0.034,1.631 0.267,2.41 0.549,-0.581 0.888,-1.355 0.943,-2.152 0.065,0.823 0.696,1.571 1.497,1.774 0.084,-1.435 0.007,-2.878 -0.229,-4.296 1.004,1.331 1.719,2.879 2.079,4.507 0.288,-1.257 0.575,-2.514 0.863,-3.772 0.302,1.247 0.527,2.513 0.672,3.788 0.535,-0.734 0.876,-1.605 0.994,-2.506 -0.058,-0.65 -0.181,-1.295 -0.375,-1.918 0.545,1.504 1.24,2.953 2.07,4.319 0.321,-1.324 0.693,-2.635 1.113,-3.931 -0.031,1.566 0.197,3.137 0.673,4.63 1.119,-1.194 2.107,-2.51 2.943,-3.918 0.406,1.482 0.625,3.016 0.65,4.552 0.708,-1.373 1.239,-2.836 1.576,-4.343 0.623,1.256 1.021,2.624 1.169,4.018 -0.132,-1.272 0.059,-2.576 0.55,-3.756 0.541,1.112 0.905,2.31 1.074,3.534 0.685,-1.848 1.092,-3.799 1.203,-5.767 0.589,1.874 0.682,3.862 0.769,5.824 -0.072,-1.045 0.401,-2.113 1.223,-2.762 0.822,-0.649 1.97,-0.861 2.97,-0.549 -1.213,0.69 -2.076,1.965 -2.265,3.348 0.581,-0.816 1.162,-1.631 1.743,-2.447 -0.057,0.811 0.034,1.631 0.267,2.41 0.549,-0.581 0.888,-1.355 0.943,-2.152 0.065,0.823 0.696,1.571 1.497,1.774 0.084,-1.435 0.007,-2.878 -0.229,-4.296 1.004,1.331 1.719,2.879 2.079,4.507 0.288,-1.257 0.575,-2.514 0.863,-3.772 0.302,1.247 0.527,2.513 0.672,3.788 0.307,-0.422 0.547,-0.89 0.722,-1.381 0.116,-1.219 -0.008,-2.461 -0.371,-3.631 0.545,1.504 1.24,2.953 2.07,4.319 0.321,-1.324 0.693,-2.635 1.113,-3.931 -0.031,1.566 0.197,3.137 0.673,4.63 1.119,-1.194 2.107,-2.51 2.943,-3.918 0.406,1.482 0.625,3.016 0.65,4.552 0.708,-1.373 1.239,-2.836 1.576,-4.343 0.623,1.256 1.021,2.624 1.169,4.018 -0.132,-1.272 0.059,-2.576 0.55,-3.756 0.541,1.112 0.905,2.31 1.074,3.534 0.685,-1.848 1.092,-3.799 1.203,-5.767 0.589,1.874 0.682,3.862 0.769,5.824 -0.072,-1.045 0.401,-2.113 1.223,-2.762 0.822,-0.649 1.97,-0.861 2.97,-0.549 -1.213,0.69 -2.076,1.965 -2.265,3.348 0.581,-0.816 1.162,-1.631 1.743,-2.447 -0.057,0.811 0.034,1.631 0.267,2.41 0.549,-0.581 0.888,-1.355 0.943,-2.152 0.065,0.823 0.696,1.571 1.497,1.774 0.084,-1.435 0.007,-2.878 -0.229,-4.296 1.004,1.331 1.719,2.879 2.079,4.507 0.288,-1.257 0.575,-2.514 0.863,-3.772 0.302,1.247 0.527,2.513 0.672,3.788 0.687,-0.943 1.059,-2.111 1.042,-3.278 -0.026,1.208 0.103,2.42 0.384,3.595 0.258,1.081 0.627,2.243 1.084,3.256 -8.461,-0.467 -17.003,-0.93 -25.365,0.443 -0.006,-0.169 -0.003,-0.348 -0.004,-0.523 -7.982,-0.434 -16.022,-0.771 -23.903,0.523 -0.012,-0.351 -0.009,-0.721 -0.002,-1.096 -8.071,-0.441 -16.203,-0.801 -24.173,0.508 -0.006,-0.169 -0.003,-0.348 -0.004,-0.523 -7.982,-0.434 -16.0219998,-0.771 -23.90299977,0.523 -0.009,-0.261 -0.009,-0.534 -0.006,-0.81 z"
     id="path8866"
     inkscape:connector-curvature="0" /></svg>
