<svg xmlns="http://www.w3.org/2000/svg" xmlns:xlink="http://www.w3.org/1999/xlink" viewBox="0 0 295 108"><defs><style>.aa8b265e-a68f-40b3-b63c-c1dd67932897{fill:none;}.b0c35517-ed3a-4f96-b37c-67e0a7431223{fill:#1c1e1e;}.eb7c2340-7ab0-4a3c-9f07-6172083062a6{fill:#00a8d8;}.e35f86f8-cd06-4d40-aefb-57d1acfc4c70{clip-path:url(#bfb9e8cc-b1dd-45e6-8a02-9c5df4f901ca);}.eaad234f-c334-4ebd-abea-c63d0eb66f07{fill:#fff;}.b156cab7-c231-41fb-96c8-9e38b4626961{fill:#1d1e1e;}</style><clipPath id="bfb9e8cc-b1dd-45e6-8a02-9c5df4f901ca"><circle class="aa8b265e-a68f-40b3-b63c-c1dd67932897" cx="54.14" cy="54" r="53.64"/></clipPath></defs><title>icon</title><path class="b0c35517-ed3a-4f96-b37c-67e0a7431223" d="M136.1,68.5C136.1,74,131,76,124.75,76a28.45,28.45,0,0,1-3-.11c0,2.7,2.7,4,5.3,4s3.73-.54,6.16-1.57l2.16,4.86c-1.94,1-5.83,2.82-9.83,2.82a11.15,11.15,0,0,1-11.14-11.09c0-7.29,5.19-13.73,12.65-13.73C132.43,61.14,136.1,64,136.1,68.5Zm-10.65,1.67c1.73,0,3.79-.65,3.79-2.38,0-1.19-1.14-1.94-2.44-1.94-2.32,0-4.21,2.75-4.59,3.84A8.82,8.82,0,0,0,125.45,70.17Z"/><path class="b0c35517-ed3a-4f96-b37c-67e0a7431223" d="M176.16,56.06c0-1.29-1.3-2.05-2.59-2.05-7.57,0-12.76,9.67-12.76,18.38,0,3.3,1.46,7,4.76,7,5.29,0,9.4-7.14,10.81-12h6.05L179.94,90h-6.37l1-8.22c-3,2.49-5.95,4.17-10.11,4.17C156.54,86,153,79.85,153,73.14c0-13,8.27-25.56,21.25-25.56,4.48,0,8.81,3.73,8.81,7.35a10,10,0,0,1-2.49,6.65l-5.4-2.81C175.57,57.68,176.16,57.2,176.16,56.06Z"/><path class="b0c35517-ed3a-4f96-b37c-67e0a7431223" d="M207,68.5C207,74,201.89,76,195.68,76a28.36,28.36,0,0,1-3-.11c0,2.7,2.7,4,5.3,4s3.73-.54,6.16-1.57l2.16,4.86c-1.94,1-5.83,2.82-9.84,2.82A11.15,11.15,0,0,1,185.3,74.87c0-7.29,5.19-13.73,12.65-13.73C203.35,61.14,207,64,207,68.5Zm-10.65,1.67c1.73,0,3.78-.65,3.78-2.38a2.17,2.17,0,0,0-2.43-1.94c-2.32,0-4.21,2.75-4.59,3.84A8.78,8.78,0,0,0,196.38,70.17Z"/><path class="b0c35517-ed3a-4f96-b37c-67e0a7431223" d="M215.52,76.71c0,1.79.81,2.22,1.84,2.22a5,5,0,0,0,2.38-.7l2.7,4.32c-1.35.81-4.54,3-7.79,3A5.76,5.76,0,0,1,209,79.74c0-.22,2.06-19,3.35-31.14h6.17C217.36,59.58,215.52,76.44,215.52,76.71Z"/><path class="b0c35517-ed3a-4f96-b37c-67e0a7431223" d="M240.39,63.14l1.67-14.54H248s-2.92,27.73-2.92,28.49a2.09,2.09,0,0,0,2.16,1.79,5.83,5.83,0,0,0,2.05-.49l1.63,4.92a10.77,10.77,0,0,1-5.84,2.11A6.66,6.66,0,0,1,239.36,82c-1.73,1.41-4.54,3.95-8,3.95-4.81,0-8.44-4.6-8.44-8.92,0-7.79,4.17-15.9,11.9-15.9A9.69,9.69,0,0,1,240.39,63.14ZM229.68,76c0,1.89,1,3.84,2.92,3.84,4.11,0,6.54-7,6.54-9.41,0-1.84-1.08-3.73-2.81-3.73C232.44,66.71,229.68,71.58,229.68,76Z"/><path class="b0c35517-ed3a-4f96-b37c-67e0a7431223" d="M274.61,68.5c0,5.46-5.14,7.46-11.36,7.46a28.17,28.17,0,0,1-3-.11c0,2.7,2.7,4,5.29,4s3.73-.54,6.17-1.57l2.16,4.86c-2,1-5.84,2.82-9.84,2.82a11.14,11.14,0,0,1-11.13-11.09c0-7.29,5.18-13.73,12.64-13.73C270.93,61.14,274.61,64,274.61,68.5ZM264,70.17c1.73,0,3.78-.65,3.78-2.38a2.17,2.17,0,0,0-2.43-1.94c-2.33,0-4.22,2.75-4.6,3.84A8.88,8.88,0,0,0,264,70.17Z"/><path class="b0c35517-ed3a-4f96-b37c-67e0a7431223" d="M293.09,60.93a1.78,1.78,0,0,1,1.09.43,20.57,20.57,0,0,0-.38,4,48.17,48.17,0,0,0,.7,7.41L289.69,75l-1.35-5.3c-3.89,2.92-5.19,9-5.52,15.3h-5.94l2.48-23.46h6.17l-.22,4.48C286.93,63.85,290.34,60.93,293.09,60.93Z"/><path class="b0c35517-ed3a-4f96-b37c-67e0a7431223" d="M80.47,49.9c3-1.3,8.33-2.27,13.73-2.27,9.41,0,18.49,6.16,18.49,15.57C112.69,76.6,99.61,85,86.2,85a19.64,19.64,0,0,1-3.89-.65L85.77,54.6c-.92.17-1.94.33-3,.6ZM90.2,77.79c6.06-.1,15.25-5.56,15.25-13.51C105.45,58.87,100.69,54,96,54H93Z"/><path class="b0c35517-ed3a-4f96-b37c-67e0a7431223" d="M176.16,56.06c0-1.29-1.3-2.05-2.59-2.05-7.57,0-12.76,9.67-12.76,18.38,0,3.3,1.46,7,4.76,7,5.29,0,9.4-7.14,10.81-12h6.05L179.94,90h-6.37l1-8.22c-3,2.49-5.95,4.17-10.11,4.17C156.54,86,153,79.85,153,73.14c0-13,8.27-25.56,21.25-25.56,4.48,0,8.81,3.73,8.81,7.35a10,10,0,0,1-2.49,6.65l-5.4-2.81C175.57,57.68,176.16,57.2,176.16,56.06Z"/><path class="b0c35517-ed3a-4f96-b37c-67e0a7431223" d="M207,68.5C207,74,201.89,76,195.68,76a28.36,28.36,0,0,1-3-.11c0,2.7,2.7,4,5.3,4s3.73-.54,6.16-1.57l2.16,4.86c-1.94,1-5.83,2.82-9.84,2.82A11.15,11.15,0,0,1,185.3,74.87c0-7.29,5.19-13.73,12.65-13.73C203.35,61.14,207,64,207,68.5Zm-10.65,1.67c1.73,0,3.78-.65,3.78-2.38a2.17,2.17,0,0,0-2.43-1.94c-2.32,0-4.21,2.75-4.59,3.84A8.78,8.78,0,0,0,196.38,70.17Z"/><path class="eb7c2340-7ab0-4a3c-9f07-6172083062a6" d="M133.5,39.88c-2.93.19-4.39.28-7.31.49l-.2-2.92,1.55-.11c-1.34-1.56-2-2.33-3.37-3.88l-2.08.15c.12,1.64.19,2.46.31,4.09l1.42-.1.21,2.92c-2.67.19-4,.29-6.68.5l-.23-2.92,1.81-.14c-.33-4.32-.5-6.48-.83-10.8l-1.83.15c-.09-1.17-.14-1.76-.23-2.92,2.75-.22,4.12-.32,6.87-.52.08,1.17.12,1.75.21,2.92l-1.52.11.29,3.92,2.14-.16c1.08-1.65,1.63-2.48,2.72-4.13l-1.46.11-.21-2.92c2.84-.2,4.25-.29,7.09-.47.07,1.17.11,1.75.18,2.92l-1.91.12c-1.49,2.1-2.23,3.16-3.71,5.26,2,2.21,2.92,3.31,4.85,5.52l1.73-.11C133.39,38.13,133.42,38.71,133.5,39.88Z"/><path class="eb7c2340-7ab0-4a3c-9f07-6172083062a6" d="M134.83,29a15.63,15.63,0,0,1,2.52-1,11.47,11.47,0,0,1,2.46-.36,5.56,5.56,0,0,1,3.34.8,3.35,3.35,0,0,1,1.53,2.87c.1,2,.16,3,.26,5,0,.6.31.88.85.86a1.83,1.83,0,0,0,.48-.11c0,.7.07,1,.12,1.75a4.51,4.51,0,0,1-2.07.64,2.31,2.31,0,0,1-2.68-2.14v0A5.34,5.34,0,0,1,140.32,39a3.73,3.73,0,0,1-2.29.85,4.42,4.42,0,0,1-2.47-.6,2.79,2.79,0,0,1-1.32-2.49,2.74,2.74,0,0,1,1.55-2.93,9.92,9.92,0,0,1,3.68-.91,15.43,15.43,0,0,1,1.93,0l0-.38a5.91,5.91,0,0,0-.34-1.73c-.2-.56-.77-.81-1.73-.76a6.33,6.33,0,0,0-.94.12,2.8,2.8,0,0,0-.83.32l-.35,1.67-2.7-.13C134.63,30.84,134.7,30.24,134.83,29Zm6.67,5.66v-.15l-.85-.06a8,8,0,0,0-.85,0,3.5,3.5,0,0,0-1.53.41,1.25,1.25,0,0,0-.6,1.31,1.48,1.48,0,0,0,.36.93,1.29,1.29,0,0,0,1.08.32,2.5,2.5,0,0,0,1.61-.72A2.81,2.81,0,0,0,141.5,34.68Z"/><path class="eb7c2340-7ab0-4a3c-9f07-6172083062a6" d="M148,28.31a16.48,16.48,0,0,1,2.53-.95A11.82,11.82,0,0,1,153,27a5.58,5.58,0,0,1,3.33.84,3.37,3.37,0,0,1,1.5,2.9c.08,2,.11,3,.19,5q0,.9.84.87a1.79,1.79,0,0,0,.48-.1c0,.7.06,1,.09,1.74a4.3,4.3,0,0,1-2.07.62,2.31,2.31,0,0,1-2.65-2.18v0a5.27,5.27,0,0,1-1.34,1.65,3.65,3.65,0,0,1-2.31.82,4.44,4.44,0,0,1-2.46-.63,2.78,2.78,0,0,1-1.28-2.51,2.74,2.74,0,0,1,1.59-2.9,10,10,0,0,1,3.69-.86,17.11,17.11,0,0,1,1.93,0l0-.38a6,6,0,0,0-.32-1.74c-.18-.55-.76-.81-1.71-.77a6.45,6.45,0,0,0-.95.1,3,3,0,0,0-.83.31c-.15.67-.23,1-.37,1.66l-2.7-.15C147.8,30.13,147.88,29.52,148,28.31Zm6.59,5.75V33.9l-.85-.06a6.07,6.07,0,0,0-.85,0,3.68,3.68,0,0,0-1.54.39,1.26,1.26,0,0,0-.62,1.3,1.46,1.46,0,0,0,.36.93,1.26,1.26,0,0,0,1.07.34,2.52,2.52,0,0,0,1.62-.7A2.79,2.79,0,0,0,154.62,34.06Z"/><path class="eb7c2340-7ab0-4a3c-9f07-6172083062a6" d="M171,34.7a3.13,3.13,0,0,1-1.47,2.9,7.66,7.66,0,0,1-4,1,13,13,0,0,1-2.56-.19,9.86,9.86,0,0,1-2.47-.78c.14-1.3.21-2,.36-3.25l2.6.2.05,1.44a4.45,4.45,0,0,0,1,.16c.34,0,.6,0,.77,0a4.1,4.1,0,0,0,1.65-.36,1,1,0,0,0,.67-.94c0-.5-.37-.81-1.09-.94s-1.54-.27-2.48-.39a6.06,6.06,0,0,1-2.5-.87,2.73,2.73,0,0,1-1.15-2.4A2.82,2.82,0,0,1,162,27.42a8.71,8.71,0,0,1,3.46-.84,9.39,9.39,0,0,1,4.44.93c.15,1.18.22,1.76.37,2.94l-2.6.35-.25-1.61a5.94,5.94,0,0,0-1.86-.22,2.09,2.09,0,0,0-1.1.3.9.9,0,0,0-.43.85c0,.49.37.81,1.06.95s1.49.28,2.41.41a5.89,5.89,0,0,1,2.41.87A2.66,2.66,0,0,1,171,34.7Z"/><path class="eb7c2340-7ab0-4a3c-9f07-6172083062a6" d="M185.34,31.92A7.37,7.37,0,0,1,184,36.38a4.64,4.64,0,0,1-4,1.93,3.91,3.91,0,0,1-3.79-1.93c0,.29-.06.58-.1.87s-.08.58-.12.88l-3.33.07c.1-.6.19-1.2.26-1.8a10.78,10.78,0,0,0,.09-1.78c-.09-3.86-.17-7.72-.26-11.57l-1.58,0-.06-2.51,5-.11c.07,3.32.1,5,.16,8.29A4.66,4.66,0,0,1,177.69,27a4.17,4.17,0,0,1,2.54-.76,4.72,4.72,0,0,1,3.65,1.47A6,6,0,0,1,185.34,31.92Zm-3.48.33a3.86,3.86,0,0,0-.77-2.53,2.37,2.37,0,0,0-1.94-.84,2.45,2.45,0,0,0-2.08,1,3.62,3.62,0,0,0-.7,2.27v.29a3.89,3.89,0,0,0,.75,2.36,2.39,2.39,0,0,0,2.06.92,2.55,2.55,0,0,0,1.91-.86A3.73,3.73,0,0,0,181.86,32.25Z"/><path class="eb7c2340-7ab0-4a3c-9f07-6172083062a6" d="M199,32.15a5.69,5.69,0,0,1-1.83,4.39,6.66,6.66,0,0,1-4.6,1.65,6.28,6.28,0,0,1-4.39-1.53,5.59,5.59,0,0,1-1.73-4.34A6.39,6.39,0,0,1,187.93,28a7.07,7.07,0,0,1,9.48-.05A6.31,6.31,0,0,1,199,32.15Zm-3.46-.1a3.52,3.52,0,0,0-.84-2.6,2.79,2.79,0,0,0-2-.81,2.48,2.48,0,0,0-2,.92,3.87,3.87,0,0,0-.73,2.56,4.47,4.47,0,0,0,.7,2.51,2.33,2.33,0,0,0,2.07,1,2.6,2.6,0,0,0,2.08-1A4,4,0,0,0,195.5,32.05Z"/><path class="eb7c2340-7ab0-4a3c-9f07-6172083062a6" d="M211.47,34.39a3.93,3.93,0,0,1-1.56,2.7A5.91,5.91,0,0,1,206,38.23a6.39,6.39,0,0,1-4.29-1.5A5.42,5.42,0,0,1,200,32.36a6.57,6.57,0,0,1,1.57-4.45A5.44,5.44,0,0,1,206,26.16a5.74,5.74,0,0,1,4,1.43,4.78,4.78,0,0,1,1.5,3.67,7.87,7.87,0,0,1-.21,1.67c-3.07,0-4.61-.07-7.69-.09.18,1.84,1.09,2.76,2.73,2.77a2.13,2.13,0,0,0,1.83-.62,2.9,2.9,0,0,0,.6-1.15ZM208,31a2.43,2.43,0,0,0-.36-1.65,1.81,1.81,0,0,0-1.67-.79,2,2,0,0,0-1.62.66,3.31,3.31,0,0,0-.75,1.74Z"/><path class="eb7c2340-7ab0-4a3c-9f07-6172083062a6" d="M220.33,26.48a4.69,4.69,0,0,1,1.1.17,4.14,4.14,0,0,1,1.21.53c.16,1.63.24,2.44.41,4.07l-2.56.21c-.15-.79-.23-1.19-.39-2a1.75,1.75,0,0,0-.91-.33,1.37,1.37,0,0,0-1,.41,1.82,1.82,0,0,0-.46,1.28l-.1,4.82,2.07.05-.06,2.49c-2.78-.07-4.17-.09-6.95-.14l0-2.49,1.55,0c.05-2.63.07-4,.12-6.57l-1.7,0c0-1,0-1.51,0-2.52l4.81.09c0,.88,0,1.33,0,2.21a3.85,3.85,0,0,1,1-1.66A2.38,2.38,0,0,1,220.33,26.48Z"/><path class="eb7c2340-7ab0-4a3c-9f07-6172083062a6" d="M237.69,38.78l-4.88-.19c0-.86,0-1.29.08-2.15a4.84,4.84,0,0,1-1.51,1.65,4.22,4.22,0,0,1-2.56.62A4.5,4.5,0,0,1,225.25,37a6.38,6.38,0,0,1-1.2-4.29,7.36,7.36,0,0,1,1.43-4.38,5.17,5.17,0,0,1,6.33-1.06,4.11,4.11,0,0,1,1.36,1.49c.07-2.13.11-3.2.19-5.33L231,23.37c0-1,.05-1.51.09-2.51l5.75.21-.6,15.16,1.55.06Zm-4.67-6v-.28a3.05,3.05,0,0,0-.69-2.27,2.53,2.53,0,0,0-1.88-.88,2.78,2.78,0,0,0-2,.76,3.44,3.44,0,0,0-.92,2.56,3.68,3.68,0,0,0,.7,2.57,2.37,2.37,0,0,0,1.81.93,2.4,2.4,0,0,0,2.12-1A4.15,4.15,0,0,0,233,32.74Z"/><path class="eb7c2340-7ab0-4a3c-9f07-6172083062a6" d="M250.2,35.73a4,4,0,0,1-1.67,2.63,5.89,5.89,0,0,1-4,1,6.41,6.41,0,0,1-4.23-1.66,5.47,5.47,0,0,1-1.51-4.44,6.49,6.49,0,0,1,1.74-4.38A5.42,5.42,0,0,1,245,27.29a5.68,5.68,0,0,1,3.91,1.58,4.75,4.75,0,0,1,1.36,3.72,7.19,7.19,0,0,1-.27,1.66c-3.07-.16-4.61-.24-7.68-.38.11,1.84,1,2.79,2.62,2.87a2.17,2.17,0,0,0,1.86-.55,3,3,0,0,0,.64-1.12Zm-3.38-3.57a2.43,2.43,0,0,0-.3-1.66,1.79,1.79,0,0,0-1.64-.85,2,2,0,0,0-1.65.59,3.34,3.34,0,0,0-.81,1.71Z"/><path class="eb7c2340-7ab0-4a3c-9f07-6172083062a6" d="M259.35,28.16a4.91,4.91,0,0,1,1.1.21,4.27,4.27,0,0,1,1.18.57c.11,1.64.16,2.45.26,4.08l-2.56.12c-.13-.8-.19-1.2-.32-2a2,2,0,0,0-.89-.36,1.34,1.34,0,0,0-1,.38,1.74,1.74,0,0,0-.51,1.25c-.11,1.93-.17,2.89-.29,4.82l2.07.12-.15,2.49-6.94-.41c0-1,.08-1.49.13-2.48L253,37c.14-2.62.22-3.93.37-6.56l-1.7-.09c.06-1,.09-1.51.14-2.51l4.8.27-.13,2.21a4.07,4.07,0,0,1,1-1.63A2.42,2.42,0,0,1,259.35,28.16Z"/><path class="eb7c2340-7ab0-4a3c-9f07-6172083062a6" d="M269.15,40.58c-2.57-.19-3.86-.28-6.43-.45l.17-2.49,1.55.11.45-6.56-1.7-.11.17-2.51c2,.13,3,.2,5.06.35-.26,3.62-.39,5.43-.64,9.06l1.55.11Zm-4.09-14c.1-1.37.14-2.06.24-3.43l3.38.24c-.1,1.37-.15,2.06-.24,3.43Z"/><path class="eb7c2340-7ab0-4a3c-9f07-6172083062a6" d="M275.08,40.61a8,8,0,0,1-1.59,4.76c-.88,1-2.43,1.28-4.66.9,0-.88,0-1.31.06-2.19a2.89,2.89,0,0,0,1.85-.44c.54-.35.88-1.44,1-3.28l.65-8.63-1.83-.14.19-2.5,5.19.39C275.61,33.93,275.43,36.16,275.08,40.61Zm-2.33-13.44c.1-1.37.15-2.05.26-3.43l3.38.26c-.11,1.38-.16,2.06-.27,3.43Z"/><circle class="eb7c2340-7ab0-4a3c-9f07-6172083062a6" cx="54.14" cy="54" r="53.64"/><circle class="eb7c2340-7ab0-4a3c-9f07-6172083062a6" cx="54.14" cy="54" r="53.64"/><g class="e35f86f8-cd06-4d40-aefb-57d1acfc4c70"><path class="eaad234f-c334-4ebd-abea-c63d0eb66f07" d="M16.07,38.8s1.4.08,2,.18,18.17,8.09,18.17,8.09L42,61.51s-8.09,10.49-8.47,10-6.76-6-6.76-6L20.33,51.32l-6.65-7.83Z"/><path class="b0c35517-ed3a-4f96-b37c-67e0a7431223" d="M65.08,60.89l-.93.66-1,.75c-.42.32,1.43.45,1.93.29a4.15,4.15,0,0,0,1.55-1.11,1.24,1.24,0,0,1,1.21-.26,3.89,3.89,0,0,1-1-1.08,15.37,15.37,0,0,0-.2-5.41c-.67-2.32-.06-7.75.46-8.42l-.23-10-.57-.24s.15-2.62-1.84-3-.63-2.4.31-2.35,6.81-1.76,6.89-5.64-1.78-8.83-1.79-8.94S68.94,15.34,69,18s.3,5.47-2.06,6.55a26,26,0,0,1-5.73,1.58,6.53,6.53,0,0,0-1.76-1.59c-.76-.32-2.69-.11-2.79.22s-.66.62-1.44.64-1.56.19-1.6-.1-.36-.78-2.49-.72-1.72,1.13-1.72,1.13a7.05,7.05,0,0,0-3.23.47c-1.73.68-3,1.42-3.59.84s-3.37-.31-4.15,1l-.69,1.17c-1-.08-2,.13-2.78,0-1.62-.36-1.89-.36-3.22-2.68s-4.93-6.32-5.82-6.38-1.12.56-1,1.05A30.54,30.54,0,0,1,27.3,26c.88,2.66,2.53,6.15,2.53,6.15,1.73,3.65,7.17,2.11,7.22,2.23s1,.83-.18,2.24-1.58,1.84-2.7.89-2.44-4-5.62-4.27a15.24,15.24,0,0,0-5.47.4s-.45,1.19-1.24.73A3,3,0,0,0,20,33.74c-.36.13-.57,1.48-1.13,1.82s-1.1.76-1.24,1.25a1.17,1.17,0,0,0,.14.71c.14.22.43.17.65.11a2.4,2.4,0,0,0,.78-.31,3.62,3.62,0,0,0,.67-.74,6.76,6.76,0,0,1,1.68-1.32,3.84,3.84,0,0,1,.77-.42,3.65,3.65,0,0,1,.93-.18l5-.6a.78.78,0,0,0,.34-.09.25.25,0,0,0,.13-.29.36.36,0,0,0-.25-.21,7.74,7.74,0,0,0-3-.31c-.79,0-1.59.05-2.38.09a6.32,6.32,0,0,0-3.68,1A5.61,5.61,0,0,0,18.08,36c-.17.32-.32.67-.52,1a.8.8,0,0,0-.14.73,10.06,10.06,0,0,0,4,5.14A15,15,0,0,1,26,47.34c.09.36,5.08.62,8.36,1.22.43,2.39-4.09,11.07,1.73,16.93a.61.61,0,0,1-.72.5s-.37,1.15-1.11,1c0,0-.86-.19-.88-.92a6,6,0,0,1-1.2-1.84s.09-3.3.05-5.86a67.08,67.08,0,0,1,1.67-9.32L26.3,48.4a4.63,4.63,0,0,1-1.2-1.06c-.42-.6-2.24-3.54-4.6-4.72a7.74,7.74,0,0,1-3.36-3.73,1.93,1.93,0,0,0-1.07-.09s-8.4-.07-11.28,1c0,0-6.26,0-9.15,1.41,0,0-4,77.53,29.85,77.55,0,0,3.22.5,5.19-7.88,0,0,6.2-3.94,6.69-7a9.22,9.22,0,0,1,.77-3.17c.58-.88,1.57-4.09,2.56-5.59S42,93.35,41.94,90a7.59,7.59,0,0,0,2-4.22c.44-2.8,1.86-4.59,2.39-6.44a20.29,20.29,0,0,1,6.11-8c2.67-1.88,4.14-.76,4.14-.76"/><path class="eaad234f-c334-4ebd-abea-c63d0eb66f07" d="M49.77,26s-2.81,0-3,.52-.67,1.53,1.7,1.46,4.37.08,4.57-.13,0-.45.41-.56a30.77,30.77,0,0,1,4.67-.07c.19.11,2.74,2.21,3.25,2.21s1.85.46,1.13-1-2.39-2.93-3-2.9a45.38,45.38,0,0,1-5.77.17c-.41-.21-2-.82-2.48-.3A2.56,2.56,0,0,1,49.77,26Z"/><path class="eaad234f-c334-4ebd-abea-c63d0eb66f07" d="M66.58,61.26c-.62,1.06-1.32.19-1.32.19s-1,.71-.67.31-.33-.77-.34-1.24a1.49,1.49,0,0,0-.73-1.41l-.18-6.26c-.06-2.27-.36-1.93-1.16-2.71a1.79,1.79,0,0,1-.6-1.61c-.07-2.45-.62-1.92-.62-1.92,0-1.49-.79-1.88-.79-1.88-.06-2.06-.63-2.76-1.27-3.11a6.77,6.77,0,0,1-1.4-1.22s.09-1.17-.85-1.14-.76,1.18-.76,1.18c-.15.85-2.2,1.15-2.2,1.15-.54.41-.88,2.5-.28,4s-.16,5.33-.16,5.33-.8,2,.1,2.5a5.24,5.24,0,0,1,1.77,3c.31,1.09,2,2.11,2.51,3.08s-.13,1.75-.41,2.8-.71,2.62-1.22.59-.11-3-1.26-3.74-1.52-1.88-2.31-3.64-.87.36-1.71,1.06a4.06,4.06,0,0,0-1.66,2.07c-.48,1.21.7.93,1.72,2.34s-2.19.58-4.49.34-2.39,0-1.28-1.1.14-1.53-.89-2.11S42.3,56.76,41,54.19s-.7,1.28-1,2.27.7,3.1.6,4.79a3.74,3.74,0,0,0,1,2.4c.28.41.49.77.38,1.11-.28.86-1.41.83-2.93,1.31a4.9,4.9,0,0,0-3.21,3.45c-.12,1.32-1.47,3.38-2.41,4.76S37.64,79,37.64,79c-1.21.52-4.26,6.48-4.83,6.84s-.51,3.53-.51,3.53c-1.66,1.09-.35,2.8-.61,4.64s-1.52,3.44-2,4.77A28.3,28.3,0,0,0,29,102a6.32,6.32,0,0,1-2.57,2.37c-.81.26-.08-1,.14-2.76s-2.25-1.59-3-1.27-.18,7.88-.41,8.25a11.44,11.44,0,0,0-.3,2.58s-2.07.27-4,.33-1.68.17-1.6,3,1.29,2.17,1.29,2.17a3.58,3.58,0,0,0,1,2.7c1.1.92,3,2.64,3.2,1.44s3.14-2.48,4.29-3,2.06-4,3-6.52,3.92-4.3,5.47-5.78,1.56-2.31,2.05-5.36,2.35-4.87,3.23-6.06.81-1.77.76-3.57,1.2-3.07,1.86-4.59-.34-1.18,1.94-7a18.65,18.65,0,0,1,6.86-8.58s1-.52,1.71-.8A7.85,7.85,0,0,0,56.14,72c1,.47,2.24,1.2,2.24,1.2s1,.74,4.91,0c2.3-.42,2.43-.91,3-1.52a3.18,3.18,0,0,0,.89-1.2,5,5,0,0,0,.22-1.5s1.24.61,2,.18a2.52,2.52,0,0,0,1-1.38l-.75-4.22s-.89-2.35-2.18-2.47S66.58,61.26,66.58,61.26Z"/><path class="eaad234f-c334-4ebd-abea-c63d0eb66f07" d="M20.66,38.77s-.85-1-.31-1.54.74-1.4,2-1.61a16.41,16.41,0,0,1,3.84.2,9.24,9.24,0,0,1,3,.69,19.93,19.93,0,0,0,4.36,2.36c1.24.29,1.2,1.49.06,1.29s-1.67.19-2.78-1.06a4.44,4.44,0,0,0-3.62-1.61c-1.62-.11-3.52-.72-3.72,0s.89.42,2.36.53,4,1.12,4.58,1.88a6.84,6.84,0,0,0,2.05,1.94c.93.59,1.26.16,1.22,1.22s.38,2.2-.93,2l-4.3-.14s-.66.26-1.56-.71-3.79-3.64-4.46-3.82"/><path class="eaad234f-c334-4ebd-abea-c63d0eb66f07" d="M38.53,48.12s-.08.8.91.77,1-1.08,1-1.08.32-.83.84.84a3.3,3.3,0,0,0,3.23,2.16c1,0,4.14-1.19,4.09-3s-.41-5.38-.29-5.54.82-.77.46-1.22-1-1.45-2.08-1.38-1,.58-.71,1.09a6.87,6.87,0,0,0,1,1.31s.48,1-.1.31-.8-.91-1.44-.84-1.56.08-1.56.08a1.65,1.65,0,0,0-1.94-1.16s-.49-.66-1.08-.63-2.27-.16-2.38,3.41A40.82,40.82,0,0,0,38.53,48.12Z"/><path class="b0c35517-ed3a-4f96-b37c-67e0a7431223" d="M48,47.73s-1.69-1.08-1.69-2.22a1.4,1.4,0,0,0-2.32-1,3.23,3.23,0,0,0-.69,3.58c.57,1,2.06,1.83,3,1A2.31,2.31,0,0,1,48,48.39S48.39,48,48,47.73Z"/><path class="b0c35517-ed3a-4f96-b37c-67e0a7431223" d="M66.87,38.76c.07,0,1.91.39,2.67-.66s2.81-3.52,4.63-3.66,2.1.43,2.12.49-1.72-.41-2.85.58-2.25,5.84-4.21,5.94a12.65,12.65,0,0,1-2.51,0S64.6,40.26,66.87,38.76Z"/><path class="eaad234f-c334-4ebd-abea-c63d0eb66f07" d="M63.46,26.69a.68.68,0,0,0-.59,1c.35.94.54,2.73,2.37,2.15s4.3-3.22,4.39-4,.67-3.51-.58-2.46S66.74,26.59,63.46,26.69Z"/><path class="eaad234f-c334-4ebd-abea-c63d0eb66f07" d="M39.42,33c.11-.09.82-2.73-.09-3.05s-4.07.86-5.23-.1-6.73-8.36-8-9-.09,2,.42,2.74,2.4,7.15,3.88,8.68,2.25,2,4.92,1.61S38.76,33.51,39.42,33Z"/></g><path class="b0c35517-ed3a-4f96-b37c-67e0a7431223" d="M41.72,63.8a10,10,0,0,0,4.39,3.3c2.78,1,3.9,2.32,2.67,1.83s-6,.15-6.35-1.94-3-3.19-3-3.19Z"/><path class="eaad234f-c334-4ebd-abea-c63d0eb66f07" d="M64,41.5s-1.29.27-1.48.82.57,2.84,1,4.35.42.55.93,0a6.09,6.09,0,0,0,.86-3C65.33,43,64.72,41.28,64,41.5Z"/><path class="b0c35517-ed3a-4f96-b37c-67e0a7431223" d="M66,45.72s-1.31-.83-1.3-1.71a1.08,1.08,0,0,0-1.79-.76A2.49,2.49,0,0,0,62.39,46c.44.79,1.6,1.41,2.35.78A1.75,1.75,0,0,1,66,46.24S66.34,46,66,45.72Z"/><path class="b0c35517-ed3a-4f96-b37c-67e0a7431223" d="M66,61.23a2,2,0,0,1-1.48,1.3,7.74,7.74,0,0,1-3.17.42c-.91-.19-3.87-.42-3.87-.42a2.92,2.92,0,0,1,1.45,1c.6.8,1.22,1.06,1.2,1.32a.93.93,0,0,1-.86.7s.21-.62-.6-.65-2.18-.1-2.28-.7c0,0-.36.13.05,1.82,0,.1-1.5-2.21-.78-3.61s1.4-.72,2.13-.49a17.1,17.1,0,0,0,5.35.44,3.35,3.35,0,0,0,2.15-1"/><path class="b0c35517-ed3a-4f96-b37c-67e0a7431223" d="M66.3,65.05c0-.11-1.53,0-1.24-1.17s.83-.73,1.11-1.25.42-1.48.65-1.42.49.85.45,1.24-.4,1.46-.89,1.64S66.3,65.05,66.3,65.05Z"/><path class="b0c35517-ed3a-4f96-b37c-67e0a7431223" d="M53.94,69.54a2.63,2.63,0,0,0,3.14.94c2.24-.84,1.17-3.15,1.17-3.15a3.17,3.17,0,0,0,1.92-.41c.58-.52,1-1.38.76-1.87s.13-1,.59-.83a2.83,2.83,0,0,0,1.9-.21c.42-.29.54,0,.67.55s.63,1.81,1.77,1.92S67.05,66,67,66.3s-.73,1.11-.36,1.71,1.3.8,1.66,1.24,1.06-.15,1.06-.15,1-.31.62-2.68-.23-2.64-.23-2.64.65,2.75.83,3.61.31,2.07-1.45,2.41-2-.42-3.64-.13-5.84,1.48-8,1.61S55,71.15,55,71.15a33.65,33.65,0,0,0,3.4,2.23c.73.29-3.11.08-4.33-1.53s-1-2.21-1.71-2.91"/><path class="b0c35517-ed3a-4f96-b37c-67e0a7431223" d="M60.88,73.49a11.63,11.63,0,0,1,2.44-.34,3.65,3.65,0,0,0,3.4-1.9c.68-1.47.83-1.94.83-1.87a11,11,0,0,1-.91,3c-.49.7-2,1-4.75,1.3S60.88,73.49,60.88,73.49Z"/><path class="b0c35517-ed3a-4f96-b37c-67e0a7431223" d="M67,36.62c.92-.13,1.07-1.08,1.86-1.57,1-.62,2.32-2,3.39-2.51A12.13,12.13,0,0,1,75.76,32c1.55-.24,3.17.77,4.67,1.23a5.51,5.51,0,0,1,1.54.66,6,6,0,0,1,1.64,2.07,1.57,1.57,0,0,1,.29.92,1.5,1.5,0,0,1-.51.81c-2.14,2.2-3.69,4.91-6.29,6.53-1.26.79-3,2-4.44,1.75a23.57,23.57,0,0,1-2.85-.9c-1.33-.61-1.74-2-3.07-2.62a4.73,4.73,0,0,1-1.38-.84,3.81,3.81,0,0,1-.87-1.62c-.23-.76-1-3.54-.28-4.19.4-.38.83.34,1.19.56A2.54,2.54,0,0,0,67,36.62Z"/><path class="b0c35517-ed3a-4f96-b37c-67e0a7431223" d="M67.93,46a3.76,3.76,0,0,1-1.19.62.56.56,0,0,1-.34,0,.56.56,0,0,1-.3-.32,2.6,2.6,0,0,1-.2-1.18A25.53,25.53,0,0,1,66,42.53a1,1,0,0,1,.1-.43.83.83,0,0,1,.58-.39,2.16,2.16,0,0,1,1.55.33c.47.27.88.62,1.35.89,1,.55,2.08.71,3,1.22a1.2,1.2,0,0,1-.76.36c-.33.09-.66.17-1,.27a12.32,12.32,0,0,0-2,.69A8.45,8.45,0,0,0,67.93,46Z"/><g class="e35f86f8-cd06-4d40-aefb-57d1acfc4c70"><path class="eaad234f-c334-4ebd-abea-c63d0eb66f07" d="M16.07,38.8s1.4.08,2,.18,18.17,8.09,18.17,8.09L42,61.51s-8.09,10.49-8.47,10-6.76-6-6.76-6L20.33,51.32l-6.65-7.83Z"/><path class="b0c35517-ed3a-4f96-b37c-67e0a7431223" d="M65.08,60.89l-.93.66-1,.75c-.42.32,1.43.45,1.93.29a4.15,4.15,0,0,0,1.55-1.11,1.24,1.24,0,0,1,1.21-.26,3.89,3.89,0,0,1-1-1.08,15.37,15.37,0,0,0-.2-5.41c-.67-2.32-.06-7.75.46-8.42l-.23-10-.57-.24s.15-2.62-1.84-3-.63-2.4.31-2.35,6.81-1.76,6.89-5.64-1.78-8.83-1.79-8.94S68.94,15.34,69,18s.3,5.47-2.06,6.55a26,26,0,0,1-5.73,1.58,6.53,6.53,0,0,0-1.76-1.59c-.76-.32-2.69-.11-2.79.22s-.66.62-1.44.64-1.56.19-1.6-.1-.36-.78-2.49-.72-1.72,1.13-1.72,1.13a7.05,7.05,0,0,0-3.23.47c-1.73.68-3,1.42-3.59.84s-3.37-.31-4.15,1l-.69,1.17c-1-.08-2,.13-2.78,0-1.62-.36-1.89-.36-3.22-2.68s-4.93-6.32-5.82-6.38-1.12.56-1,1.05A30.54,30.54,0,0,1,27.3,26c.88,2.66,2.53,6.15,2.53,6.15,1.73,3.65,7.17,2.11,7.22,2.23s1,.83-.18,2.24-1.58,1.84-2.7.89-2.44-4-5.62-4.27a15.24,15.24,0,0,0-5.47.4s-.45,1.19-1.24.73A3,3,0,0,0,20,33.74c-.36.13-.57,1.48-1.13,1.82s-1.1.76-1.24,1.25a1.17,1.17,0,0,0,.14.71c.14.22.43.17.65.11a2.4,2.4,0,0,0,.78-.31,3.62,3.62,0,0,0,.67-.74,6.76,6.76,0,0,1,1.68-1.32,3.84,3.84,0,0,1,.77-.42,3.65,3.65,0,0,1,.93-.18l5-.6a.78.78,0,0,0,.34-.09.25.25,0,0,0,.13-.29.36.36,0,0,0-.25-.21,7.74,7.74,0,0,0-3-.31c-.79,0-1.59.05-2.38.09a6.32,6.32,0,0,0-3.68,1A5.61,5.61,0,0,0,18.08,36c-.17.32-.32.67-.52,1a.8.8,0,0,0-.14.73,10.06,10.06,0,0,0,4,5.14A15,15,0,0,1,26,47.34c.09.36,5.08.62,8.36,1.22.43,2.39-4.09,11.07,1.73,16.93a.61.61,0,0,1-.72.5s-.37,1.15-1.11,1c0,0-.86-.19-.88-.92a6,6,0,0,1-1.2-1.84s.09-3.3.05-5.86a48.65,48.65,0,0,1,1.38-9l-7.46-.77a4.63,4.63,0,0,1-1.2-1.06c-.43-.6-2.49-3.55-4.85-4.73a6.13,6.13,0,0,1-2.93-3.92,1.93,1.93,0,0,0-1.07-.09s-8.4-.07-11.28,1c0,0-6.26,0-9.15,1.41,0,0-4,77.53,29.85,77.55,0,0,3.22.5,5.19-7.88,0,0,6.2-3.94,6.69-7a9.22,9.22,0,0,1,.77-3.17c.58-.88,1.57-4.09,2.56-5.59S42,93.35,41.94,90a7.59,7.59,0,0,0,2-4.22c.44-2.8,1.86-4.59,2.39-6.44a20.29,20.29,0,0,1,6.11-8c2.67-1.88,4.14-.76,4.14-.76"/><path class="eaad234f-c334-4ebd-abea-c63d0eb66f07" d="M49.77,26s-2.81,0-3,.52-.67,1.53,1.7,1.46,4.37.08,4.57-.13,0-.45.41-.56a30.77,30.77,0,0,1,4.67-.07c.19.11,2.74,2.21,3.25,2.21s1.85.46,1.13-1-2.39-2.93-3-2.9a45.38,45.38,0,0,1-5.77.17c-.41-.21-2-.82-2.48-.3A2.56,2.56,0,0,1,49.77,26Z"/><path class="eaad234f-c334-4ebd-abea-c63d0eb66f07" d="M66.58,61.26c-.62,1.06-1.32.19-1.32.19s-.93.79-.61.39-.39-.85-.4-1.32a1.49,1.49,0,0,0-.73-1.41l-.18-6.26c-.06-2.27-.36-1.93-1.16-2.71a1.79,1.79,0,0,1-.6-1.61c-.07-2.45-.62-1.92-.62-1.92,0-1.49-.79-1.88-.79-1.88-.06-2.06-.63-2.76-1.27-3.11a6.77,6.77,0,0,1-1.4-1.22s.09-1.17-.85-1.14-.76,1.18-.76,1.18c-.15.85-2.2,1.15-2.2,1.15-.54.41-.88,2.5-.28,4s-.16,5.33-.16,5.33-.8,2,.1,2.5a5.24,5.24,0,0,1,1.77,3c.31,1.09,2,2.11,2.51,3.08s-.13,1.75-.41,2.8-.71,2.62-1.22.59-.11-3-1.26-3.74-1.52-1.88-2.31-3.64-.87.36-1.71,1.06a4.06,4.06,0,0,0-1.66,2.07c-.48,1.21.7.93,1.72,2.34s-2.19.58-4.49.34-2.39,0-1.28-1.1.14-1.53-.89-2.11S42.3,56.76,41,54.19s-.7,1.28-1,2.27.7,3.1.6,4.79a3.74,3.74,0,0,0,1,2.4c.28.41.49.77.38,1.11-.28.86-1.41.83-2.93,1.31a4.9,4.9,0,0,0-3.21,3.45c-.12,1.32-1.47,3.38-2.41,4.76S37.64,79,37.64,79c-1.21.52-4.26,6.48-4.83,6.84s-.51,3.53-.51,3.53c-1.66,1.09-.35,2.8-.61,4.64s-1.52,3.44-2,4.77A28.3,28.3,0,0,0,29,102a6.32,6.32,0,0,1-2.57,2.37c-.81.26-.08-1,.14-2.76s-2.25-1.59-3-1.27-.18,7.88-.41,8.25a11.44,11.44,0,0,0-.3,2.58s-2.07.27-4,.33-1.68.17-1.6,3,1.29,2.17,1.29,2.17a3.58,3.58,0,0,0,1,2.7c1.1.92,3,2.64,3.2,1.44s3.14-2.48,4.29-3,2.06-4,3-6.52,3.92-4.3,5.47-5.78,1.56-2.31,2.05-5.36,2.35-4.87,3.23-6.06.81-1.77.76-3.57,1.2-3.07,1.86-4.59-.34-1.18,1.94-7a18.65,18.65,0,0,1,6.86-8.58s1-.52,1.71-.8A7.85,7.85,0,0,0,56.14,72c1,.47,2.24,1.2,2.24,1.2s1,.74,4.91,0c2.3-.42,2.43-.91,3-1.52a3.18,3.18,0,0,0,.89-1.2,5,5,0,0,0,.22-1.5s1.24.61,2,.18a2.52,2.52,0,0,0,1-1.38l-.75-4.22s-.89-2.35-2.18-2.47S66.58,61.26,66.58,61.26Z"/><path class="eaad234f-c334-4ebd-abea-c63d0eb66f07" d="M20.66,38.77s-.85-1-.31-1.54.74-1.4,2-1.61a16.41,16.41,0,0,1,3.84.2,9.24,9.24,0,0,1,3,.69,19.93,19.93,0,0,0,4.36,2.36c1.24.29,1.2,1.49.06,1.29s-1.67.19-2.78-1.06a4.44,4.44,0,0,0-3.62-1.61c-1.62-.11-3.52-.72-3.72,0s.89.42,2.36.53,4,1.12,4.58,1.88a6.84,6.84,0,0,0,2.05,1.94c.93.59,1.26.16,1.22,1.22s.38,2.2-.93,2l-4.3-.14s-.66.26-1.56-.71-3.79-3.64-4.46-3.82"/><path class="eaad234f-c334-4ebd-abea-c63d0eb66f07" d="M38.53,48.12s-.08.8.91.77,1-1.08,1-1.08.32-.83.84.84a3.3,3.3,0,0,0,3.23,2.16c1,0,4.14-1.19,4.09-3s-.41-5.38-.29-5.54.82-.77.46-1.22-1-1.45-2.08-1.38-1,.58-.71,1.09a6.87,6.87,0,0,0,1,1.31s.48,1-.1.31-.8-.91-1.44-.84-1.56.08-1.56.08a1.65,1.65,0,0,0-1.94-1.16s-.49-.66-1.08-.63-2.27-.16-2.38,3.41A40.82,40.82,0,0,0,38.53,48.12Z"/><path class="b0c35517-ed3a-4f96-b37c-67e0a7431223" d="M48,47.73s-1.69-1.08-1.69-2.22a1.4,1.4,0,0,0-2.32-1,3.23,3.23,0,0,0-.69,3.58c.57,1,2.06,1.83,3,1A2.31,2.31,0,0,1,48,48.39S48.39,48,48,47.73Z"/><path class="b0c35517-ed3a-4f96-b37c-67e0a7431223" d="M66.87,38.76c.07,0,1.91.39,2.67-.66s2.81-3.52,4.63-3.66,2.1.43,2.12.49-1.72-.41-2.85.58-2.25,5.84-4.21,5.94a12.65,12.65,0,0,1-2.51,0S64.6,40.26,66.87,38.76Z"/><path class="eaad234f-c334-4ebd-abea-c63d0eb66f07" d="M63.46,26.69a.68.68,0,0,0-.59,1c.35.94.54,2.73,2.37,2.15s4.3-3.22,4.39-4,.67-3.51-.58-2.46S66.74,26.59,63.46,26.69Z"/><path class="eaad234f-c334-4ebd-abea-c63d0eb66f07" d="M39.42,33c.11-.09.82-2.73-.09-3.05s-4.07.86-5.23-.1-6.73-8.36-8-9-.09,2,.42,2.74,2.4,7.15,3.88,8.68,2.25,2,4.92,1.61S38.76,33.51,39.42,33Z"/></g><path class="b0c35517-ed3a-4f96-b37c-67e0a7431223" d="M41.72,63.8a10,10,0,0,0,4.39,3.3c2.78,1,3.9,2.32,2.67,1.83s-6,.15-6.35-1.94-3-3.19-3-3.19Z"/><path class="eaad234f-c334-4ebd-abea-c63d0eb66f07" d="M64,41.5s-1.29.27-1.48.82.57,2.84,1,4.35.42.55.93,0a6.09,6.09,0,0,0,.86-3C65.33,43,64.72,41.28,64,41.5Z"/><path class="b0c35517-ed3a-4f96-b37c-67e0a7431223" d="M66,45.72s-1.31-.83-1.3-1.71a1.08,1.08,0,0,0-1.79-.76A2.49,2.49,0,0,0,62.39,46c.44.79,1.6,1.41,2.35.78A1.75,1.75,0,0,1,66,46.24S66.34,46,66,45.72Z"/><path class="b0c35517-ed3a-4f96-b37c-67e0a7431223" d="M66,61.23a2,2,0,0,1-1.48,1.3,7.74,7.74,0,0,1-3.17.42c-.91-.19-3.87-.42-3.87-.42a2.92,2.92,0,0,1,1.45,1c.6.8,1.22,1.06,1.2,1.32a.93.93,0,0,1-.86.7s.21-.62-.6-.65-2.18-.1-2.28-.7c0,0-.36.13.05,1.82,0,.1-1.5-2.21-.78-3.61s1.4-.72,2.13-.49a17.1,17.1,0,0,0,5.35.44,3.35,3.35,0,0,0,2.15-1"/><path class="b0c35517-ed3a-4f96-b37c-67e0a7431223" d="M66.3,65.05c0-.11-1.53,0-1.24-1.17s.83-.73,1.11-1.25.42-1.48.65-1.42.49.85.45,1.24-.4,1.46-.89,1.64S66.3,65.05,66.3,65.05Z"/><path class="b0c35517-ed3a-4f96-b37c-67e0a7431223" d="M53.94,69.54a2.63,2.63,0,0,0,3.14.94c2.24-.84,1.17-3.15,1.17-3.15a3.17,3.17,0,0,0,1.92-.41c.58-.52,1-1.38.76-1.87s.13-1,.59-.83a2.83,2.83,0,0,0,1.9-.21c.42-.29.54,0,.67.55s.63,1.81,1.77,1.92S67.05,66,67,66.3s-.73,1.11-.36,1.71,1.3.8,1.66,1.24,1.06-.15,1.06-.15,1-.31.62-2.68-.23-2.64-.23-2.64.65,2.75.83,3.61.31,2.07-1.45,2.41-2-.42-3.64-.13-5.84,1.48-8,1.61S55,71.15,55,71.15a33.65,33.65,0,0,0,3.4,2.23c.73.29-3.11.08-4.33-1.53s-1-2.21-1.71-2.91"/><path class="b0c35517-ed3a-4f96-b37c-67e0a7431223" d="M60.88,73.49a11.63,11.63,0,0,1,2.44-.34,3.65,3.65,0,0,0,3.4-1.9c.68-1.47.83-1.94.83-1.87a11,11,0,0,1-.91,3c-.49.7-2,1-4.75,1.3S60.88,73.49,60.88,73.49Z"/><path class="b0c35517-ed3a-4f96-b37c-67e0a7431223" d="M67,36.62c.92-.13,1.07-1.08,1.86-1.57,1-.62,2.32-2,3.39-2.51A12.13,12.13,0,0,1,75.76,32c1.55-.24,3.17.77,4.67,1.23a5.51,5.51,0,0,1,1.54.66,6,6,0,0,1,1.64,2.07,1.57,1.57,0,0,1,.29.92,1.5,1.5,0,0,1-.51.81c-2.14,2.2-3.69,4.91-6.29,6.53-1.26.79-3,2-4.44,1.75a23.57,23.57,0,0,1-2.85-.9c-1.33-.61-1.74-2-3.07-2.62a4.73,4.73,0,0,1-1.38-.84,3.81,3.81,0,0,1-.87-1.62c-.23-.76-1-3.54-.28-4.19.4-.38.83.34,1.19.56A2.54,2.54,0,0,0,67,36.62Z"/><path class="b0c35517-ed3a-4f96-b37c-67e0a7431223" d="M67.93,46a3.76,3.76,0,0,1-1.19.62.56.56,0,0,1-.34,0,.56.56,0,0,1-.3-.32,2.6,2.6,0,0,1-.2-1.18A25.53,25.53,0,0,1,66,42.53a1,1,0,0,1,.1-.43.83.83,0,0,1,.58-.39,2.16,2.16,0,0,1,1.55.33c.47.27.88.62,1.35.89,1,.55,2.08.71,3,1.22a1.2,1.2,0,0,1-.76.36c-.33.09-.66.17-1,.27a12.32,12.32,0,0,0-2,.69A8.45,8.45,0,0,0,67.93,46Z"/><path class="eaad234f-c334-4ebd-abea-c63d0eb66f07" d="M67,37.38a2.44,2.44,0,0,0,1.67-.25A4.57,4.57,0,0,0,69.9,36a5.92,5.92,0,0,1,6.88-1.67,21.72,21.72,0,0,1,2.69,1.22c1.43.78,1.63,1.72.64,3a11.5,11.5,0,0,1-8.74,5c-1.24.07-2.82.48-4.05.61,0,0,.1-2.22-.18-2.27l5.21-4.53-4.78,3.22-.35-.84S67.76,38.1,67,37.38Z"/><path class="b156cab7-c231-41fb-96c8-9e38b4626961" d="M66,38.19c.09,0,2.12.86,3.21-.2s4-3.46,6.1-3.24,2.33.94,2.33,1-1.89-.84-3.39.07-3.83,6.24-6.1,5.95a14.48,14.48,0,0,1-2.89-.54S63.09,39.44,66,38.19Z"/><path class="b0c35517-ed3a-4f96-b37c-67e0a7431223" d="M136.1,68.5C136.1,74,131,76,124.75,76a28.45,28.45,0,0,1-3-.11c0,2.7,2.7,4,5.3,4s3.73-.54,6.16-1.57l2.16,4.86c-1.94,1-5.83,2.82-9.83,2.82a11.15,11.15,0,0,1-11.14-11.09c0-7.29,5.19-13.73,12.65-13.73C132.43,61.14,136.1,64,136.1,68.5Zm-10.65,1.67c1.73,0,3.79-.65,3.79-2.38,0-1.19-1.14-1.94-2.44-1.94-2.32,0-4.21,2.75-4.59,3.84A8.82,8.82,0,0,0,125.45,70.17Z"/><path class="b0c35517-ed3a-4f96-b37c-67e0a7431223" d="M215.52,76.71c0,1.79.81,2.22,1.84,2.22a5,5,0,0,0,2.38-.7l2.7,4.32c-1.35.81-4.54,3-7.79,3A5.76,5.76,0,0,1,209,79.74c0-.22,2.06-19,3.35-31.14h6.17C217.36,59.58,215.52,76.44,215.52,76.71Z"/><path class="b0c35517-ed3a-4f96-b37c-67e0a7431223" d="M240.39,63.14l1.67-14.54H248s-2.92,27.73-2.92,28.49a2.09,2.09,0,0,0,2.16,1.79,5.83,5.83,0,0,0,2.05-.49l1.63,4.92a10.77,10.77,0,0,1-5.84,2.11A6.66,6.66,0,0,1,239.36,82c-1.73,1.41-4.54,3.95-8,3.95-4.81,0-8.44-4.6-8.44-8.92,0-7.79,4.17-15.9,11.9-15.9A9.69,9.69,0,0,1,240.39,63.14ZM229.68,76c0,1.89,1,3.84,2.92,3.84,4.11,0,6.54-7,6.54-9.41,0-1.84-1.08-3.73-2.81-3.73C232.44,66.71,229.68,71.58,229.68,76Z"/><path class="b0c35517-ed3a-4f96-b37c-67e0a7431223" d="M274.61,68.5c0,5.46-5.14,7.46-11.36,7.46a28.17,28.17,0,0,1-3-.11c0,2.7,2.7,4,5.29,4s3.73-.54,6.17-1.57l2.16,4.86c-2,1-5.84,2.82-9.84,2.82a11.14,11.14,0,0,1-11.13-11.09c0-7.29,5.18-13.73,12.64-13.73C270.93,61.14,274.61,64,274.61,68.5ZM264,70.17c1.73,0,3.78-.65,3.78-2.38a2.17,2.17,0,0,0-2.43-1.94c-2.33,0-4.22,2.75-4.6,3.84A8.88,8.88,0,0,0,264,70.17Z"/><path class="b0c35517-ed3a-4f96-b37c-67e0a7431223" d="M293.09,60.93a1.78,1.78,0,0,1,1.09.43,20.57,20.57,0,0,0-.38,4,48.17,48.17,0,0,0,.7,7.41L289.69,75l-1.35-5.3c-3.89,2.92-5.19,9-5.52,15.3h-5.94l2.48-23.46h6.17l-.22,4.48C286.93,63.85,290.34,60.93,293.09,60.93Z"/><circle class="eb7c2340-7ab0-4a3c-9f07-6172083062a6" cx="54.14" cy="54" r="53.64"/><circle class="eb7c2340-7ab0-4a3c-9f07-6172083062a6" cx="54.14" cy="54" r="53.64"/><g class="e35f86f8-cd06-4d40-aefb-57d1acfc4c70"><path class="eaad234f-c334-4ebd-abea-c63d0eb66f07" d="M16.07,38.8s1.4.08,2,.18,18.17,8.09,18.17,8.09L42,61.51s-8.09,10.49-8.47,10-6.76-6-6.76-6L20.33,51.32l-6.65-7.83Z"/><path class="b0c35517-ed3a-4f96-b37c-67e0a7431223" d="M65.08,60.89l-.93.66-1,.75c-.42.32,1.43.45,1.93.29a4.15,4.15,0,0,0,1.55-1.11,1.24,1.24,0,0,1,1.21-.26,3.89,3.89,0,0,1-1-1.08,15.37,15.37,0,0,0-.2-5.41c-.67-2.32-.06-7.75.46-8.42l-.23-10-.57-.24s.15-2.62-1.84-3-.63-2.4.31-2.35,6.81-1.76,6.89-5.64-1.78-8.83-1.79-8.94S68.94,15.34,69,18s.3,5.47-2.06,6.55a26,26,0,0,1-5.73,1.58,6.53,6.53,0,0,0-1.76-1.59c-.76-.32-2.69-.11-2.79.22s-.66.62-1.44.64-1.56.19-1.6-.1-.36-.78-2.49-.72-1.72,1.13-1.72,1.13a7.05,7.05,0,0,0-3.23.47c-1.73.68-3,1.42-3.59.84s-3.37-.31-4.15,1l-.69,1.17c-1-.08-2,.13-2.78,0-1.62-.36-1.89-.36-3.22-2.68s-4.93-6.32-5.82-6.38-1.12.56-1,1.05A30.54,30.54,0,0,1,27.3,26c.88,2.66,2.53,6.15,2.53,6.15,1.73,3.65,7.17,2.11,7.22,2.23s1,.83-.18,2.24-1.58,1.84-2.7.89-2.44-4-5.62-4.27a15.24,15.24,0,0,0-5.47.4s-.45,1.19-1.24.73A3,3,0,0,0,20,33.74c-.36.13-.57,1.48-1.13,1.82s-1.1.76-1.24,1.25a1.17,1.17,0,0,0,.14.71c.14.22.43.17.65.11a2.4,2.4,0,0,0,.78-.31,3.62,3.62,0,0,0,.67-.74,6.76,6.76,0,0,1,1.68-1.32,3.84,3.84,0,0,1,.77-.42,3.65,3.65,0,0,1,.93-.18l5-.6a.78.78,0,0,0,.34-.09.25.25,0,0,0,.13-.29.36.36,0,0,0-.25-.21,7.74,7.74,0,0,0-3-.31c-.79,0-1.59.05-2.38.09a6.32,6.32,0,0,0-3.68,1A5.61,5.61,0,0,0,18.08,36c-.17.32-.32.67-.52,1a.8.8,0,0,0-.14.73,10.06,10.06,0,0,0,4,5.14A15,15,0,0,1,26,47.34c.09.36,5.08.62,8.36,1.22.43,2.39-4.09,11.07,1.73,16.93a.61.61,0,0,1-.72.5s-.37,1.15-1.11,1c0,0-.86-.19-.88-.92a6,6,0,0,1-1.2-1.84s.09-3.3.05-5.86a67.08,67.08,0,0,1,1.67-9.32L26.3,48.4a4.63,4.63,0,0,1-1.2-1.06c-.42-.6-2.24-3.54-4.6-4.72a7.74,7.74,0,0,1-3.36-3.73,1.93,1.93,0,0,0-1.07-.09s-8.4-.07-11.28,1c0,0-6.26,0-9.15,1.41,0,0-4,77.53,29.85,77.55,0,0,3.22.5,5.19-7.88,0,0,6.2-3.94,6.69-7a9.22,9.22,0,0,1,.77-3.17c.58-.88,1.57-4.09,2.56-5.59S42,93.35,41.94,90a7.59,7.59,0,0,0,2-4.22c.44-2.8,1.86-4.59,2.39-6.44a20.29,20.29,0,0,1,6.11-8c2.67-1.88,4.14-.76,4.14-.76"/><path class="eaad234f-c334-4ebd-abea-c63d0eb66f07" d="M49.77,26s-2.81,0-3,.52-.67,1.53,1.7,1.46,4.37.08,4.57-.13,0-.45.41-.56a30.77,30.77,0,0,1,4.67-.07c.19.11,2.74,2.21,3.25,2.21s1.85.46,1.13-1-2.39-2.93-3-2.9a45.38,45.38,0,0,1-5.77.17c-.41-.21-2-.82-2.48-.3A2.56,2.56,0,0,1,49.77,26Z"/><path class="eaad234f-c334-4ebd-abea-c63d0eb66f07" d="M66.58,61.26c-.62,1.06-1.32.19-1.32.19s-1,.71-.67.31-.33-.77-.34-1.24a1.49,1.49,0,0,0-.73-1.41l-.18-6.26c-.06-2.27-.36-1.93-1.16-2.71a1.79,1.79,0,0,1-.6-1.61c-.07-2.45-.62-1.92-.62-1.92,0-1.49-.79-1.88-.79-1.88-.06-2.06-.63-2.76-1.27-3.11a6.77,6.77,0,0,1-1.4-1.22s.09-1.17-.85-1.14-.76,1.18-.76,1.18c-.15.85-2.2,1.15-2.2,1.15-.54.41-.88,2.5-.28,4s-.16,5.33-.16,5.33-.8,2,.1,2.5a5.24,5.24,0,0,1,1.77,3c.31,1.09,2,2.11,2.51,3.08s-.13,1.75-.41,2.8-.71,2.62-1.22.59-.11-3-1.26-3.74-1.52-1.88-2.31-3.64-.87.36-1.71,1.06a4.06,4.06,0,0,0-1.66,2.07c-.48,1.21.7.93,1.72,2.34s-2.19.58-4.49.34-2.39,0-1.28-1.1.14-1.53-.89-2.11S42.3,56.76,41,54.19s-.7,1.28-1,2.27.7,3.1.6,4.79a3.74,3.74,0,0,0,1,2.4c.28.41.49.77.38,1.11-.28.86-1.41.83-2.93,1.31a4.9,4.9,0,0,0-3.21,3.45c-.12,1.32-1.47,3.38-2.41,4.76S37.64,79,37.64,79c-1.21.52-4.26,6.48-4.83,6.84s-.51,3.53-.51,3.53c-1.66,1.09-.35,2.8-.61,4.64s-1.52,3.44-2,4.77A28.3,28.3,0,0,0,29,102a6.32,6.32,0,0,1-2.57,2.37c-.81.26-.08-1,.14-2.76s-2.25-1.59-3-1.27-.18,7.88-.41,8.25a11.44,11.44,0,0,0-.3,2.58s-2.07.27-4,.33-1.68.17-1.6,3,1.29,2.17,1.29,2.17a3.58,3.58,0,0,0,1,2.7c1.1.92,3,2.64,3.2,1.44s3.14-2.48,4.29-3,2.06-4,3-6.52,3.92-4.3,5.47-5.78,1.56-2.31,2.05-5.36,2.35-4.87,3.23-6.06.81-1.77.76-3.57,1.2-3.07,1.86-4.59-.34-1.18,1.94-7a18.65,18.65,0,0,1,6.86-8.58s1-.52,1.71-.8A7.85,7.85,0,0,0,56.14,72c1,.47,2.24,1.2,2.24,1.2s1,.74,4.91,0c2.3-.42,2.43-.91,3-1.52a3.18,3.18,0,0,0,.89-1.2,5,5,0,0,0,.22-1.5s1.24.61,2,.18a2.52,2.52,0,0,0,1-1.38l-.75-4.22s-.89-2.35-2.18-2.47S66.58,61.26,66.58,61.26Z"/><path class="eaad234f-c334-4ebd-abea-c63d0eb66f07" d="M20.66,38.77s-.85-1-.31-1.54.74-1.4,2-1.61a16.41,16.41,0,0,1,3.84.2,9.24,9.24,0,0,1,3,.69,19.93,19.93,0,0,0,4.36,2.36c1.24.29,1.2,1.49.06,1.29s-1.67.19-2.78-1.06a4.44,4.44,0,0,0-3.62-1.61c-1.62-.11-3.52-.72-3.72,0s.89.42,2.36.53,4,1.12,4.58,1.88a6.84,6.84,0,0,0,2.05,1.94c.93.59,1.26.16,1.22,1.22s.38,2.2-.93,2l-4.3-.14s-.66.26-1.56-.71-3.79-3.64-4.46-3.82"/><path class="eaad234f-c334-4ebd-abea-c63d0eb66f07" d="M38.53,48.12s-.08.8.91.77,1-1.08,1-1.08.32-.83.84.84a3.3,3.3,0,0,0,3.23,2.16c1,0,4.14-1.19,4.09-3s-.41-5.38-.29-5.54.82-.77.46-1.22-1-1.45-2.08-1.38-1,.58-.71,1.09a6.87,6.87,0,0,0,1,1.31s.48,1-.1.31-.8-.91-1.44-.84-1.56.08-1.56.08a1.65,1.65,0,0,0-1.94-1.16s-.49-.66-1.08-.63-2.27-.16-2.38,3.41A40.82,40.82,0,0,0,38.53,48.12Z"/><path class="b0c35517-ed3a-4f96-b37c-67e0a7431223" d="M48,47.73s-1.69-1.08-1.69-2.22a1.4,1.4,0,0,0-2.32-1,3.23,3.23,0,0,0-.69,3.58c.57,1,2.06,1.83,3,1A2.31,2.31,0,0,1,48,48.39S48.39,48,48,47.73Z"/><path class="b0c35517-ed3a-4f96-b37c-67e0a7431223" d="M66.87,38.76c.07,0,1.91.39,2.67-.66s2.81-3.52,4.63-3.66,2.1.43,2.12.49-1.72-.41-2.85.58-2.25,5.84-4.21,5.94a12.65,12.65,0,0,1-2.51,0S64.6,40.26,66.87,38.76Z"/><path class="eaad234f-c334-4ebd-abea-c63d0eb66f07" d="M63.46,26.69a.68.68,0,0,0-.59,1c.35.94.54,2.73,2.37,2.15s4.3-3.22,4.39-4,.67-3.51-.58-2.46S66.74,26.59,63.46,26.69Z"/><path class="eaad234f-c334-4ebd-abea-c63d0eb66f07" d="M39.42,33c.11-.09.82-2.73-.09-3.05s-4.07.86-5.23-.1-6.73-8.36-8-9-.09,2,.42,2.74,2.4,7.15,3.88,8.68,2.25,2,4.92,1.61S38.76,33.51,39.42,33Z"/></g><path class="b0c35517-ed3a-4f96-b37c-67e0a7431223" d="M41.72,63.8a10,10,0,0,0,4.39,3.3c2.78,1,3.9,2.32,2.67,1.83s-6,.15-6.35-1.94-3-3.19-3-3.19Z"/><path class="eaad234f-c334-4ebd-abea-c63d0eb66f07" d="M64,41.5s-1.29.27-1.48.82.57,2.84,1,4.35.42.55.93,0a6.09,6.09,0,0,0,.86-3C65.33,43,64.72,41.28,64,41.5Z"/><path class="b0c35517-ed3a-4f96-b37c-67e0a7431223" d="M66,45.72s-1.31-.83-1.3-1.71a1.08,1.08,0,0,0-1.79-.76A2.49,2.49,0,0,0,62.39,46c.44.79,1.6,1.41,2.35.78A1.75,1.75,0,0,1,66,46.24S66.34,46,66,45.72Z"/><path class="b0c35517-ed3a-4f96-b37c-67e0a7431223" d="M66,61.23a2,2,0,0,1-1.48,1.3,7.74,7.74,0,0,1-3.17.42c-.91-.19-3.87-.42-3.87-.42a2.92,2.92,0,0,1,1.45,1c.6.8,1.22,1.06,1.2,1.32a.93.93,0,0,1-.86.7s.21-.62-.6-.65-2.18-.1-2.28-.7c0,0-.36.13.05,1.82,0,.1-1.5-2.21-.78-3.61s1.4-.72,2.13-.49a17.1,17.1,0,0,0,5.35.44,3.35,3.35,0,0,0,2.15-1"/><path class="b0c35517-ed3a-4f96-b37c-67e0a7431223" d="M66.3,65.05c0-.11-1.53,0-1.24-1.17s.83-.73,1.11-1.25.42-1.48.65-1.42.49.85.45,1.24-.4,1.46-.89,1.64S66.3,65.05,66.3,65.05Z"/><path class="b0c35517-ed3a-4f96-b37c-67e0a7431223" d="M53.94,69.54a2.63,2.63,0,0,0,3.14.94c2.24-.84,1.17-3.15,1.17-3.15a3.17,3.17,0,0,0,1.92-.41c.58-.52,1-1.38.76-1.87s.13-1,.59-.83a2.83,2.83,0,0,0,1.9-.21c.42-.29.54,0,.67.55s.63,1.81,1.77,1.92S67.05,66,67,66.3s-.73,1.11-.36,1.71,1.3.8,1.66,1.24,1.06-.15,1.06-.15,1-.31.62-2.68-.23-2.64-.23-2.64.65,2.75.83,3.61.31,2.07-1.45,2.41-2-.42-3.64-.13-5.84,1.48-8,1.61S55,71.15,55,71.15a33.65,33.65,0,0,0,3.4,2.23c.73.29-3.11.08-4.33-1.53s-1-2.21-1.71-2.91"/><path class="b0c35517-ed3a-4f96-b37c-67e0a7431223" d="M60.88,73.49a11.63,11.63,0,0,1,2.44-.34,3.65,3.65,0,0,0,3.4-1.9c.68-1.47.83-1.94.83-1.87a11,11,0,0,1-.91,3c-.49.7-2,1-4.75,1.3S60.88,73.49,60.88,73.49Z"/><path class="b0c35517-ed3a-4f96-b37c-67e0a7431223" d="M67,36.62c.92-.13,1.07-1.08,1.86-1.57,1-.62,2.32-2,3.39-2.51A12.13,12.13,0,0,1,75.76,32c1.55-.24,3.17.77,4.67,1.23a5.51,5.51,0,0,1,1.54.66,6,6,0,0,1,1.64,2.07,1.57,1.57,0,0,1,.29.92,1.5,1.5,0,0,1-.51.81c-2.14,2.2-3.69,4.91-6.29,6.53-1.26.79-3,2-4.44,1.75a23.57,23.57,0,0,1-2.85-.9c-1.33-.61-1.74-2-3.07-2.62a4.73,4.73,0,0,1-1.38-.84,3.81,3.81,0,0,1-.87-1.62c-.23-.76-1-3.54-.28-4.19.4-.38.83.34,1.19.56A2.54,2.54,0,0,0,67,36.62Z"/><path class="b0c35517-ed3a-4f96-b37c-67e0a7431223" d="M67.93,46a3.76,3.76,0,0,1-1.19.62.56.56,0,0,1-.34,0,.56.56,0,0,1-.3-.32,2.6,2.6,0,0,1-.2-1.18A25.53,25.53,0,0,1,66,42.53a1,1,0,0,1,.1-.43.83.83,0,0,1,.58-.39,2.16,2.16,0,0,1,1.55.33c.47.27.88.62,1.35.89,1,.55,2.08.71,3,1.22a1.2,1.2,0,0,1-.76.36c-.33.09-.66.17-1,.27a12.32,12.32,0,0,0-2,.69A8.45,8.45,0,0,0,67.93,46Z"/><g class="e35f86f8-cd06-4d40-aefb-57d1acfc4c70"><path class="eaad234f-c334-4ebd-abea-c63d0eb66f07" d="M16.07,38.8s1.4.08,2,.18,18.17,8.09,18.17,8.09L42,61.51s-8.09,10.49-8.47,10-6.76-6-6.76-6L20.33,51.32l-6.65-7.83Z"/><path class="b0c35517-ed3a-4f96-b37c-67e0a7431223" d="M65.08,60.89l-.93.66-1,.75c-.42.32,1.43.45,1.93.29a4.15,4.15,0,0,0,1.55-1.11,1.24,1.24,0,0,1,1.21-.26,3.89,3.89,0,0,1-1-1.08,15.37,15.37,0,0,0-.2-5.41c-.67-2.32-.06-7.75.46-8.42l-.23-10-.57-.24s.15-2.62-1.84-3-.63-2.4.31-2.35,6.81-1.76,6.89-5.64-1.78-8.83-1.79-8.94S68.94,15.34,69,18s.3,5.47-2.06,6.55a26,26,0,0,1-5.73,1.58,6.53,6.53,0,0,0-1.76-1.59c-.76-.32-2.69-.11-2.79.22s-.66.62-1.44.64-1.56.19-1.6-.1-.36-.78-2.49-.72-1.72,1.13-1.72,1.13a7.05,7.05,0,0,0-3.23.47c-1.73.68-3,1.42-3.59.84s-3.37-.31-4.15,1l-.69,1.17c-1-.08-2,.13-2.78,0-1.62-.36-1.89-.36-3.22-2.68s-4.93-6.32-5.82-6.38-1.12.56-1,1.05A30.54,30.54,0,0,1,27.3,26c.88,2.66,2.53,6.15,2.53,6.15,1.73,3.65,7.17,2.11,7.22,2.23s1,.83-.18,2.24-1.58,1.84-2.7.89-2.44-4-5.62-4.27a15.24,15.24,0,0,0-5.47.4s-.45,1.19-1.24.73A3,3,0,0,0,20,33.74c-.36.13-.57,1.48-1.13,1.82s-1.1.76-1.24,1.25a1.17,1.17,0,0,0,.14.71c.14.22.43.17.65.11a2.4,2.4,0,0,0,.78-.31,3.62,3.62,0,0,0,.67-.74,6.76,6.76,0,0,1,1.68-1.32,3.84,3.84,0,0,1,.77-.42,3.65,3.65,0,0,1,.93-.18l5-.6a.78.78,0,0,0,.34-.09.25.25,0,0,0,.13-.29.36.36,0,0,0-.25-.21,7.74,7.74,0,0,0-3-.31c-.79,0-1.59.05-2.38.09a6.32,6.32,0,0,0-3.68,1A5.61,5.61,0,0,0,18.08,36c-.17.32-.32.67-.52,1a.8.8,0,0,0-.14.73,10.06,10.06,0,0,0,4,5.14A15,15,0,0,1,26,47.34c.09.36,5.08.62,8.36,1.22.43,2.39-4.09,11.07,1.73,16.93a.61.61,0,0,1-.72.5s-.37,1.15-1.11,1c0,0-.86-.19-.88-.92a6,6,0,0,1-1.2-1.84s.09-3.3.05-5.86a48.65,48.65,0,0,1,1.38-9l-7.46-.77a4.63,4.63,0,0,1-1.2-1.06c-.43-.6-2.49-3.55-4.85-4.73a6.13,6.13,0,0,1-2.93-3.92,1.93,1.93,0,0,0-1.07-.09s-8.4-.07-11.28,1c0,0-6.26,0-9.15,1.41,0,0-4,77.53,29.85,77.55,0,0,3.22.5,5.19-7.88,0,0,6.2-3.94,6.69-7a9.22,9.22,0,0,1,.77-3.17c.58-.88,1.57-4.09,2.56-5.59S42,93.35,41.94,90a7.59,7.59,0,0,0,2-4.22c.44-2.8,1.86-4.59,2.39-6.44a20.29,20.29,0,0,1,6.11-8c2.67-1.88,4.14-.76,4.14-.76"/><path class="eaad234f-c334-4ebd-abea-c63d0eb66f07" d="M49.77,26s-2.81,0-3,.52-.67,1.53,1.7,1.46,4.37.08,4.57-.13,0-.45.41-.56a30.77,30.77,0,0,1,4.67-.07c.19.11,2.74,2.21,3.25,2.21s1.85.46,1.13-1-2.39-2.93-3-2.9a45.38,45.38,0,0,1-5.77.17c-.41-.21-2-.82-2.48-.3A2.56,2.56,0,0,1,49.77,26Z"/><path class="eaad234f-c334-4ebd-abea-c63d0eb66f07" d="M66.58,61.26c-.62,1.06-1.32.19-1.32.19s-.93.79-.61.39-.39-.85-.4-1.32a1.49,1.49,0,0,0-.73-1.41l-.18-6.26c-.06-2.27-.36-1.93-1.16-2.71a1.79,1.79,0,0,1-.6-1.61c-.07-2.45-.62-1.92-.62-1.92,0-1.49-.79-1.88-.79-1.88-.06-2.06-.63-2.76-1.27-3.11a6.77,6.77,0,0,1-1.4-1.22s.09-1.17-.85-1.14-.76,1.18-.76,1.18c-.15.85-2.2,1.15-2.2,1.15-.54.41-.88,2.5-.28,4s-.16,5.33-.16,5.33-.8,2,.1,2.5a5.24,5.24,0,0,1,1.77,3c.31,1.09,2,2.11,2.51,3.08s-.13,1.75-.41,2.8-.71,2.62-1.22.59-.11-3-1.26-3.74-1.52-1.88-2.31-3.64-.87.36-1.71,1.06a4.06,4.06,0,0,0-1.66,2.07c-.48,1.21.7.93,1.72,2.34s-2.19.58-4.49.34-2.39,0-1.28-1.1.14-1.53-.89-2.11S42.3,56.76,41,54.19s-.7,1.28-1,2.27.7,3.1.6,4.79a3.74,3.74,0,0,0,1,2.4c.28.41.49.77.38,1.11-.28.86-1.41.83-2.93,1.31a4.9,4.9,0,0,0-3.21,3.45c-.12,1.32-1.47,3.38-2.41,4.76S37.64,79,37.64,79c-1.21.52-4.26,6.48-4.83,6.84s-.51,3.53-.51,3.53c-1.66,1.09-.35,2.8-.61,4.64s-1.52,3.44-2,4.77A28.3,28.3,0,0,0,29,102a6.32,6.32,0,0,1-2.57,2.37c-.81.26-.08-1,.14-2.76s-2.25-1.59-3-1.27-.18,7.88-.41,8.25a11.44,11.44,0,0,0-.3,2.58s-2.07.27-4,.33-1.68.17-1.6,3,1.29,2.17,1.29,2.17a3.58,3.58,0,0,0,1,2.7c1.1.92,3,2.64,3.2,1.44s3.14-2.48,4.29-3,2.06-4,3-6.52,3.92-4.3,5.47-5.78,1.56-2.31,2.05-5.36,2.35-4.87,3.23-6.06.81-1.77.76-3.57,1.2-3.07,1.86-4.59-.34-1.18,1.94-7a18.65,18.65,0,0,1,6.86-8.58s1-.52,1.71-.8A7.85,7.85,0,0,0,56.14,72c1,.47,2.24,1.2,2.24,1.2s1,.74,4.91,0c2.3-.42,2.43-.91,3-1.52a3.18,3.18,0,0,0,.89-1.2,5,5,0,0,0,.22-1.5s1.24.61,2,.18a2.52,2.52,0,0,0,1-1.38l-.75-4.22s-.89-2.35-2.18-2.47S66.58,61.26,66.58,61.26Z"/><path class="eaad234f-c334-4ebd-abea-c63d0eb66f07" d="M20.66,38.77s-.85-1-.31-1.54.74-1.4,2-1.61a16.41,16.41,0,0,1,3.84.2,9.24,9.24,0,0,1,3,.69,19.93,19.93,0,0,0,4.36,2.36c1.24.29,1.2,1.49.06,1.29s-1.67.19-2.78-1.06a4.44,4.44,0,0,0-3.62-1.61c-1.62-.11-3.52-.72-3.72,0s.89.42,2.36.53,4,1.12,4.58,1.88a6.84,6.84,0,0,0,2.05,1.94c.93.59,1.26.16,1.22,1.22s.38,2.2-.93,2l-4.3-.14s-.66.26-1.56-.71-3.79-3.64-4.46-3.82"/><path class="eaad234f-c334-4ebd-abea-c63d0eb66f07" d="M38.53,48.12s-.08.8.91.77,1-1.08,1-1.08.32-.83.84.84a3.3,3.3,0,0,0,3.23,2.16c1,0,4.14-1.19,4.09-3s-.41-5.38-.29-5.54.82-.77.46-1.22-1-1.45-2.08-1.38-1,.58-.71,1.09a6.87,6.87,0,0,0,1,1.31s.48,1-.1.31-.8-.91-1.44-.84-1.56.08-1.56.08a1.65,1.65,0,0,0-1.94-1.16s-.49-.66-1.08-.63-2.27-.16-2.38,3.41A40.82,40.82,0,0,0,38.53,48.12Z"/><path class="b0c35517-ed3a-4f96-b37c-67e0a7431223" d="M48,47.73s-1.69-1.08-1.69-2.22a1.4,1.4,0,0,0-2.32-1,3.23,3.23,0,0,0-.69,3.58c.57,1,2.06,1.83,3,1A2.31,2.31,0,0,1,48,48.39S48.39,48,48,47.73Z"/><path class="b0c35517-ed3a-4f96-b37c-67e0a7431223" d="M66.87,38.76c.07,0,1.91.39,2.67-.66s2.81-3.52,4.63-3.66,2.1.43,2.12.49-1.72-.41-2.85.58-2.25,5.84-4.21,5.94a12.65,12.65,0,0,1-2.51,0S64.6,40.26,66.87,38.76Z"/><path class="eaad234f-c334-4ebd-abea-c63d0eb66f07" d="M63.46,26.69a.68.68,0,0,0-.59,1c.35.94.54,2.73,2.37,2.15s4.3-3.22,4.39-4,.67-3.51-.58-2.46S66.74,26.59,63.46,26.69Z"/><path class="eaad234f-c334-4ebd-abea-c63d0eb66f07" d="M39.42,33c.11-.09.82-2.73-.09-3.05s-4.07.86-5.23-.1-6.73-8.36-8-9-.09,2,.42,2.74,2.4,7.15,3.88,8.68,2.25,2,4.92,1.61S38.76,33.51,39.42,33Z"/></g><path class="b0c35517-ed3a-4f96-b37c-67e0a7431223" d="M41.72,63.8a10,10,0,0,0,4.39,3.3c2.78,1,3.9,2.32,2.67,1.83s-6,.15-6.35-1.94-3-3.19-3-3.19Z"/><path class="eaad234f-c334-4ebd-abea-c63d0eb66f07" d="M64,41.5s-1.29.27-1.48.82.57,2.84,1,4.35.42.55.93,0a6.09,6.09,0,0,0,.86-3C65.33,43,64.72,41.28,64,41.5Z"/><path class="b0c35517-ed3a-4f96-b37c-67e0a7431223" d="M66,45.72s-1.31-.83-1.3-1.71a1.08,1.08,0,0,0-1.79-.76A2.49,2.49,0,0,0,62.39,46c.44.79,1.6,1.41,2.35.78A1.75,1.75,0,0,1,66,46.24S66.34,46,66,45.72Z"/><path class="b0c35517-ed3a-4f96-b37c-67e0a7431223" d="M66,61.23a2,2,0,0,1-1.48,1.3,7.74,7.74,0,0,1-3.17.42c-.91-.19-3.87-.42-3.87-.42a2.92,2.92,0,0,1,1.45,1c.6.8,1.22,1.06,1.2,1.32a.93.93,0,0,1-.86.7s.21-.62-.6-.65-2.18-.1-2.28-.7c0,0-.36.13.05,1.82,0,.1-1.5-2.21-.78-3.61s1.4-.72,2.13-.49a17.1,17.1,0,0,0,5.35.44,3.35,3.35,0,0,0,2.15-1"/><path class="b0c35517-ed3a-4f96-b37c-67e0a7431223" d="M66.3,65.05c0-.11-1.53,0-1.24-1.17s.83-.73,1.11-1.25.42-1.48.65-1.42.49.85.45,1.24-.4,1.46-.89,1.64S66.3,65.05,66.3,65.05Z"/><path class="b0c35517-ed3a-4f96-b37c-67e0a7431223" d="M53.94,69.54a2.63,2.63,0,0,0,3.14.94c2.24-.84,1.17-3.15,1.17-3.15a3.17,3.17,0,0,0,1.92-.41c.58-.52,1-1.38.76-1.87s.13-1,.59-.83a2.83,2.83,0,0,0,1.9-.21c.42-.29.54,0,.67.55s.63,1.81,1.77,1.92S67.05,66,67,66.3s-.73,1.11-.36,1.71,1.3.8,1.66,1.24,1.06-.15,1.06-.15,1-.31.62-2.68-.23-2.64-.23-2.64.65,2.75.83,3.61.31,2.07-1.45,2.41-2-.42-3.64-.13-5.84,1.48-8,1.61S55,71.15,55,71.15a33.65,33.65,0,0,0,3.4,2.23c.73.29-3.11.08-4.33-1.53s-1-2.21-1.71-2.91"/><path class="b0c35517-ed3a-4f96-b37c-67e0a7431223" d="M60.88,73.49a11.63,11.63,0,0,1,2.44-.34,3.65,3.65,0,0,0,3.4-1.9c.68-1.47.83-1.94.83-1.87a11,11,0,0,1-.91,3c-.49.7-2,1-4.75,1.3S60.88,73.49,60.88,73.49Z"/><path class="b0c35517-ed3a-4f96-b37c-67e0a7431223" d="M67,36.62c.92-.13,1.07-1.08,1.86-1.57,1-.62,2.32-2,3.39-2.51A12.13,12.13,0,0,1,75.76,32c1.55-.24,3.17.77,4.67,1.23a5.51,5.51,0,0,1,1.54.66,6,6,0,0,1,1.64,2.07,1.57,1.57,0,0,1,.29.92,1.5,1.5,0,0,1-.51.81c-2.14,2.2-3.69,4.91-6.29,6.53-1.26.79-3,2-4.44,1.75a23.57,23.57,0,0,1-2.85-.9c-1.33-.61-1.74-2-3.07-2.62a4.73,4.73,0,0,1-1.38-.84,3.81,3.81,0,0,1-.87-1.62c-.23-.76-1-3.54-.28-4.19.4-.38.83.34,1.19.56A2.54,2.54,0,0,0,67,36.62Z"/><path class="b0c35517-ed3a-4f96-b37c-67e0a7431223" d="M67.93,46a3.76,3.76,0,0,1-1.19.62.56.56,0,0,1-.34,0,.56.56,0,0,1-.3-.32,2.6,2.6,0,0,1-.2-1.18A25.53,25.53,0,0,1,66,42.53a1,1,0,0,1,.1-.43.83.83,0,0,1,.58-.39,2.16,2.16,0,0,1,1.55.33c.47.27.88.62,1.35.89,1,.55,2.08.71,3,1.22a1.2,1.2,0,0,1-.76.36c-.33.09-.66.17-1,.27a12.32,12.32,0,0,0-2,.69A8.45,8.45,0,0,0,67.93,46Z"/><path class="eaad234f-c334-4ebd-abea-c63d0eb66f07" d="M67,37.38a2.44,2.44,0,0,0,1.67-.25A4.57,4.57,0,0,0,69.9,36a5.92,5.92,0,0,1,6.88-1.67,21.72,21.72,0,0,1,2.69,1.22c1.43.78,1.63,1.72.64,3a11.5,11.5,0,0,1-8.74,5c-1.24.07-2.82.48-4.05.61,0,0,.1-2.22-.18-2.27l5.21-4.53-4.78,3.22-.35-.84S67.76,38.1,67,37.38Z"/><path class="b156cab7-c231-41fb-96c8-9e38b4626961" d="M66,38.19c.09,0,2.12.86,3.21-.2s4-3.46,6.1-3.24,2.33.94,2.33,1-1.89-.84-3.39.07-3.83,6.24-6.1,5.95a14.48,14.48,0,0,1-2.89-.54S63.09,39.44,66,38.19Z"/><path class="b0c35517-ed3a-4f96-b37c-67e0a7431223" d="M80.47,49.9c3-1.3,8.33-2.27,13.73-2.27,9.41,0,18.49,6.16,18.49,15.57C112.69,76.6,99.61,85,86.2,85a19.64,19.64,0,0,1-3.89-.65L85.77,54.6c-.92.17-1.94.33-3,.6ZM90.2,77.79c6.06-.1,15.25-5.56,15.25-13.51C105.45,58.87,100.69,54,96,54H93Z"/></svg>
