<svg id="fd17fdf8-68f6-41bb-8a8f-28fa8f2faedf" data-name="Laag 1" xmlns="http://www.w3.org/2000/svg" viewBox="0 0 50 50"><defs><style>.aec51dea-bc42-4860-ad2c-8918d39d5aa1{fill:#060606;}</style></defs><title>icon</title><path d="M18,6.65h-.59L15.09,12h-.93L11.89,6.65h-.61V5.53H14V6.65h-.59l1.32,3.26h.06L16,6.65h-.61V5.53H18Z"/><path d="M18,7.81a6.34,6.34,0,0,1,1-.32,4.28,4.28,0,0,1,.94-.08,2.07,2.07,0,0,1,1.24.37,1.31,1.31,0,0,1,.53,1.14v1.94c0,.23.1.35.31.35l.18,0v.67a1.62,1.62,0,0,1-.8.21.88.88,0,0,1-1-.88h0a1.92,1.92,0,0,1-.54.61,1.36,1.36,0,0,1-.89.28,1.67,1.67,0,0,1-.93-.29,1.08,1.08,0,0,1-.45-1,1.06,1.06,0,0,1,.66-1.09,3.7,3.7,0,0,1,1.42-.26,5.16,5.16,0,0,1,.73,0V9.32a2.59,2.59,0,0,0-.09-.68c-.07-.21-.28-.32-.64-.32l-.36,0a.94.94,0,0,0-.32.11l-.17.63-1-.11Zm2.4,2.33v-.06l-.32,0-.32,0a1.43,1.43,0,0,0-.6.12.5.5,0,0,0-.25.49.57.57,0,0,0,.12.37.47.47,0,0,0,.4.15,1,1,0,0,0,.63-.24A1.11,1.11,0,0,0,20.43,10.14Z"/><path d="M28.11,12H25.65V11h.59V9.45a1.37,1.37,0,0,0-.19-.83.69.69,0,0,0-.57-.24.87.87,0,0,0-.7.28,1.11,1.11,0,0,0-.26.74V11h.59v1H22.65V11h.59V8.47H22.6v-1h1.92v.69A1.53,1.53,0,0,1,26,7.41a1.67,1.67,0,0,1,1.09.37A1.42,1.42,0,0,1,27.52,9V11h.59Z"/><path d="M28.91,7.81a6,6,0,0,1,1-.32,4.28,4.28,0,0,1,.94-.08,2.07,2.07,0,0,1,1.24.37,1.31,1.31,0,0,1,.53,1.14v1.94c0,.23.1.35.3.35a.63.63,0,0,0,.19,0v.67a1.62,1.62,0,0,1-.8.21.88.88,0,0,1-1-.88h0a1.92,1.92,0,0,1-.54.61,1.36,1.36,0,0,1-.89.28,1.73,1.73,0,0,1-.94-.29,1.1,1.1,0,0,1-.44-1,1.06,1.06,0,0,1,.66-1.09,3.7,3.7,0,0,1,1.42-.26,5.16,5.16,0,0,1,.73,0V9.32a2.59,2.59,0,0,0-.09-.68c-.07-.21-.28-.32-.64-.32l-.36,0a.94.94,0,0,0-.32.11l-.17.63-1-.11Zm2.4,2.33v-.06L31,10l-.32,0a1.43,1.43,0,0,0-.6.12.5.5,0,0,0-.25.49.62.62,0,0,0,.11.37.5.5,0,0,0,.41.15,1,1,0,0,0,.63-.24A1.11,1.11,0,0,0,31.31,10.14Z"/><path d="M35.9,5.05a2.89,2.89,0,0,1,.68.09,1.73,1.73,0,0,1,.67.32l.2,1.2-1,.11-.22-.7A1.34,1.34,0,0,0,35.88,6c-.33,0-.49.2-.49.59v.89h1.1v.92h-1.1V11h.74v1H33.52V11h.59V8.41h-.54V7.49h.54V6.81a1.83,1.83,0,0,1,.46-1.23A1.67,1.67,0,0,1,35.9,5.05Z"/><path d="M16.8,33.93h-.62V37.3a2.65,2.65,0,0,1-.62,1.81,2.48,2.48,0,0,1-1.92.7,3.37,3.37,0,0,1-1.37-.29,1.82,1.82,0,0,1-.95-1.09l1-.58a1.48,1.48,0,0,0,1.32.91,1.1,1.1,0,0,0,.87-.38,1.54,1.54,0,0,0,.34-1.08v-.6a1.59,1.59,0,0,1-.54.59,1.64,1.64,0,0,1-1,.25A2,2,0,0,1,11.94,37a2.18,2.18,0,0,1-.6-1.66,2.82,2.82,0,0,1,.55-1.76,1.82,1.82,0,0,1,1.52-.72,1.67,1.67,0,0,1,.9.22,1.6,1.6,0,0,1,.55.58v-.71H16.8Zm-1.94,1.28V35.1a1.27,1.27,0,0,0-.29-.9,1,1,0,0,0-.74-.32,1,1,0,0,0-.73.33,1.53,1.53,0,0,0-.29,1,1.47,1.47,0,0,0,.26,1,.85.85,0,0,0,.68.3,1,1,0,0,0,.83-.39A1.48,1.48,0,0,0,14.86,35.21Z"/><path d="M20.14,32.87a2.37,2.37,0,0,1,.43.05,2,2,0,0,1,.48.2l.2,1.62-1,.11-.17-.79a.76.76,0,0,0-.36-.12.58.58,0,0,0-.4.17.74.74,0,0,0-.16.52v1.92H20v1H17.23v-1h.61V33.93h-.67v-1h1.88v.88a1.62,1.62,0,0,1,.37-.67A.91.91,0,0,1,20.14,32.87Z"/><path d="M22.13,33.26a6,6,0,0,1,1-.34,5.3,5.3,0,0,1,1-.08,2.14,2.14,0,0,1,1.29.39,1.34,1.34,0,0,1,.54,1.17v2c0,.24.11.36.32.36l.19,0v.7a1.73,1.73,0,0,1-.83.21.91.91,0,0,1-1-.91h0a2.15,2.15,0,0,1-.55.63,1.47,1.47,0,0,1-.93.29,1.75,1.75,0,0,1-1-.3,1.3,1.3,0,0,1,.22-2.14,3.74,3.74,0,0,1,1.47-.28c.29,0,.54,0,.75,0v-.15a2.74,2.74,0,0,0-.09-.7q-.11-.33-.66-.33l-.38,0a1.42,1.42,0,0,0-.33.11l-.17.65-1.05-.11Zm2.48,2.4V35.6l-.33,0a1.83,1.83,0,0,0-.33,0,1.44,1.44,0,0,0-.61.12.52.52,0,0,0-.27.51.62.62,0,0,0,.12.38.51.51,0,0,0,.42.15,1,1,0,0,0,.65-.25A1.11,1.11,0,0,0,24.61,35.66Z"/><path d="M30.75,36.11a1.66,1.66,0,0,1-.55,1.16,1.75,1.75,0,0,1-1.16.37,1.93,1.93,0,0,1-1.24-.38,1.33,1.33,0,0,1-.48-1.1V33.87h-.65v-.94h.65v-1.4h1.32v1.4h1.65v.94H28.64v2.06c0,.41.18.61.55.61a.84.84,0,0,0,.33-.11c.14-.07.23-.28.27-.62Z"/><path d="M33.54,37.54H31v-1h.61V33.93H31v-1h2v3.62h.61Zm-2-5.43V30.74h1.32v1.37Z"/><path d="M38.17,36.13a1.25,1.25,0,0,1-.6,1.14,3,3,0,0,1-1.58.37,5,5,0,0,1-1-.11,3.73,3.73,0,0,1-1-.34l.19-1.29,1,.12v.57a1.59,1.59,0,0,0,.39.07l.31,0a1.6,1.6,0,0,0,.65-.12.41.41,0,0,0,.28-.37q0-.3-.42-.39l-1-.18a2.32,2.32,0,0,1-1-.38,1.09,1.09,0,0,1-.42-1,1.12,1.12,0,0,1,.65-1.14,3.28,3.28,0,0,1,1.37-.29,3.71,3.71,0,0,1,1.73.42l.11,1.17-1,.11-.08-.64a2.48,2.48,0,0,0-.73-.11.73.73,0,0,0-.43.11.35.35,0,0,0-.18.33c0,.19.13.33.4.39s.58.13.94.19a2.38,2.38,0,0,1,.94.37A1.08,1.08,0,0,1,38.17,36.13Z"/><path d="M13.72,42.16h-.25l-.88,1.93h-.5l-.93-1.93H10.9v-.53h1.25v.53h-.23l.48,1h0l.37-1h-.2v-.53h1.12Z"/><path d="M16.2,43.31a.85.85,0,0,1-.32.58,1.23,1.23,0,0,1-.83.25,1.3,1.3,0,0,1-.9-.31,1.13,1.13,0,0,1-.36-.92,1.44,1.44,0,0,1,.32-.95,1.29,1.29,0,0,1,1.74-.08,1,1,0,0,1,.33.77,2,2,0,0,1,0,.35H14.52c0,.39.24.59.58.59a.47.47,0,0,0,.39-.14.89.89,0,0,0,.12-.24Zm-.75-.72a.46.46,0,0,0-.08-.34.38.38,0,0,0-.35-.17.44.44,0,0,0-.34.14.73.73,0,0,0-.15.37Z"/><path d="M18,41.6l.23,0a.77.77,0,0,1,.25.1l.11.86-.53.06L18,42.23a.45.45,0,0,0-.19-.06.29.29,0,0,0-.21.09.37.37,0,0,0-.09.27v1h.43v.53H16.47v-.53h.32v-1.4h-.35v-.53h1v.47a1,1,0,0,1,.19-.36A.53.53,0,0,1,18,41.6Z"/><path d="M21.06,44.09H18.91l-.07-.37,1.32-1.56h-.74l-.11.37-.51,0,.09-.86h2.16l.05.37-1.35,1.56h.79l.11-.39.56.06Z"/><path d="M23.84,43.31a.83.83,0,0,1-.33.58,1.2,1.2,0,0,1-.82.25,1.32,1.32,0,0,1-.91-.31,1.16,1.16,0,0,1-.35-.92,1.38,1.38,0,0,1,.32-.95,1.29,1.29,0,0,1,1.74-.08,1,1,0,0,1,.32.77,2,2,0,0,1,0,.35H22.16c0,.39.23.59.58.59a.44.44,0,0,0,.38-.14.72.72,0,0,0,.13-.24Zm-.75-.72a.51.51,0,0,0-.08-.34.38.38,0,0,0-.35-.17.43.43,0,0,0-.34.14.73.73,0,0,0-.15.37Z"/><path d="M27.11,44.09H25.75v-.53h.33V42.7a.75.75,0,0,0-.1-.45.4.4,0,0,0-.32-.14.5.5,0,0,0-.38.16.6.6,0,0,0-.15.41v.88h.33v.53H24.1v-.53h.33v-1.4h-.35v-.53h1.05V42a.84.84,0,0,1,.79-.43.92.92,0,0,1,.61.21.78.78,0,0,1,.26.64v1.13h.32Z"/><path d="M30.21,44.09h-1v-.46a1,1,0,0,1-.31.36.86.86,0,0,1-.53.15.94.94,0,0,1-.76-.33,1.33,1.33,0,0,1-.28-.9,1.6,1.6,0,0,1,.27-.94.94.94,0,0,1,.82-.39.89.89,0,0,1,.49.12.81.81,0,0,1,.3.31V40.87h-.49v-.53h1.19v3.22h.33Zm-1-1.24v-.06a.69.69,0,0,0-.16-.48.51.51,0,0,0-.4-.17.53.53,0,0,0-.41.17.74.74,0,0,0-.18.55.77.77,0,0,0,.16.54.49.49,0,0,0,.39.19.51.51,0,0,0,.44-.24A.9.9,0,0,0,29.18,42.85Z"/><path d="M31.82,44.09H30.46v-.53h.33v-1.4h-.36v-.53h1.06v1.93h.33Zm-1.06-2.9v-.73h.7v.73Z"/><path d="M35.08,44.09H33.73v-.53h.32V42.7a.75.75,0,0,0-.1-.45.39.39,0,0,0-.32-.14.5.5,0,0,0-.38.16.6.6,0,0,0-.15.41v.88h.33v.53H32.07v-.53h.33v-1.4h-.35v-.53H33.1V42a.84.84,0,0,1,.79-.43.92.92,0,0,1,.61.21.78.78,0,0,1,.26.64v1.13h.32Z"/><path d="M38.17,42.16h-.32V44a1.37,1.37,0,0,1-.34,1,1.32,1.32,0,0,1-1,.37,1.69,1.69,0,0,1-.73-.16,1,1,0,0,1-.51-.58l.54-.3a.79.79,0,0,0,.7.48.62.62,0,0,0,.47-.2.86.86,0,0,0,.18-.58v-.32a.8.8,0,0,1-.29.32.94.94,0,0,1-.51.13,1.09,1.09,0,0,1-.76-.3,1.17,1.17,0,0,1-.32-.88,1.49,1.49,0,0,1,.3-.94.94.94,0,0,1,.81-.39.9.9,0,0,1,.48.12.78.78,0,0,1,.29.31v-.38h1Zm-1,.69v-.06a.69.69,0,0,0-.15-.48.51.51,0,0,0-.4-.17.5.5,0,0,0-.39.17.84.84,0,0,0-.15.55.71.71,0,0,0,.14.51.44.44,0,0,0,.36.16.53.53,0,0,0,.44-.2A.81.81,0,0,0,37.14,42.85Z"/><path d="M24,20a.41.41,0,0,0,.26.25l.4.14a1.33,1.33,0,0,1,.38.17.47.47,0,0,1,.2.32.38.38,0,0,1-.17-.16.19.19,0,0,0-.19-.1.62.62,0,0,0-.11.41.92.92,0,0,0,.14.39,1.79,1.79,0,0,0,.3.32,1.16,1.16,0,0,0,.37.21c0,.07-.05.11-.07.11a.09.09,0,0,1-.06,0,.31.31,0,0,0-.09-.07.16.16,0,0,0-.12,0,.15.15,0,0,0,.11.16,1.46,1.46,0,0,1,.23.1,2,2,0,0,0,.27-.68.71.71,0,0,0-.09-.45,2.44,2.44,0,0,0-.39-.43,7,7,0,0,1-.58-.65.41.41,0,0,1,.36,0,2.06,2.06,0,0,1,.31.23l.31.3a.89.89,0,0,0,.35.23,6.53,6.53,0,0,1,.86,2,6.81,6.81,0,0,1,.18,2.09,6.44,6.44,0,0,1-.45,2,5.06,5.06,0,0,1-1,1.62,4.11,4.11,0,0,1-1.62,1,4.83,4.83,0,0,1-2.15.22,3.78,3.78,0,0,1-.92-.24,8,8,0,0,1-.83-.36,8.29,8.29,0,0,1,.07-1.06,1.5,1.5,0,0,1,.27-.8,8.42,8.42,0,0,0,1.23,0,5,5,0,0,0,1.14-.19,3.56,3.56,0,0,0,.92-.44,1.66,1.66,0,0,0,.58-.71.43.43,0,0,1-.08-.31,1.11,1.11,0,0,1,.07-.26l.12-.24a.63.63,0,0,0,.07-.26,4.17,4.17,0,0,0-.37-2.3,2.5,2.5,0,0,0-1.47-1.3,5.67,5.67,0,0,0-.85,0,4.17,4.17,0,0,0-.72.14l-.66.19a6.37,6.37,0,0,1-.69.16,11.9,11.9,0,0,1,0-1.69c.05-.56.12-1.12.2-1.69s.15-1.14.22-1.72a14.3,14.3,0,0,0,.11-1.75,8.92,8.92,0,0,0,1.66-.06c.5-.08,1-.14,1.43-.19a11.65,11.65,0,0,1,1.29-.07,3.08,3.08,0,0,1,1.16.23,3.91,3.91,0,0,0,0,1.08,1.82,1.82,0,0,1,0,.94,4.46,4.46,0,0,1-1,.1l-1,0a3.77,3.77,0,0,0-.87.14,1,1,0,0,0-.59.44,7.64,7.64,0,0,1-.05.91c0,.25,0,.5,0,.76a6.75,6.75,0,0,0,.71.1,3.9,3.9,0,0,1,.71.12,1.75,1.75,0,0,1,.59.25,1,1,0,0,1,.37.5.32.32,0,0,1-.18-.13,1.08,1.08,0,0,0-.17-.19.19.19,0,0,0-.17-.06S24,19.91,24,20Zm-3.25-1.92a.2.2,0,0,0,0,.21.5.5,0,0,0,.1.22.26.26,0,0,0-.08-.43Zm4.83,9.67a3.86,3.86,0,0,1-.91.37l-1,.23-1,.23a3.81,3.81,0,0,0-.86.31A8.61,8.61,0,0,0,23,28.8a8.23,8.23,0,0,0,.92-.25,8.51,8.51,0,0,0,.83-.34C25,28.08,25.26,27.94,25.54,27.78Zm-2.71.09c-.09-.09-.16-.11-.23-.07a.51.51,0,0,1-.31.07,1,1,0,0,0,0,.16c0,.06,0,.09.08.09a.11.11,0,0,1,.07-.11A.44.44,0,0,1,22.6,28l.15,0C22.8,27.93,22.83,27.91,22.83,27.87Zm.87-.26s0,.05-.07.05a.34.34,0,0,0-.14.05s-.07,0-.07.06,0,.05.11.1a.1.1,0,0,1,.07-.1l.11-.06.07-.05Zm.45-6.7a.34.34,0,0,1,.17.28.36.36,0,0,1-.08.34c.1,0,.16,0,.17-.13a.69.69,0,0,0,0-.28.48.48,0,0,0-.13-.22C24.2,20.85,24.17,20.85,24.15,20.91Zm.35.71a.9.9,0,0,0-.24,0c-.07,0-.11.06-.11.15a.12.12,0,0,1,.12,0,.22.22,0,0,1,.05.08l.05.1s.05,0,.13,0,0-.22-.07-.22S24.41,21.7,24.5,21.62Zm-.18-6.85h.17c.06,0,.09,0,.09-.08h-.16C24.36,14.7,24.32,14.73,24.32,14.77Zm.35,5.8H24.5c-.1.1-.08.18.08.26a.28.28,0,0,1,0-.13A.27.27,0,0,0,24.67,20.57Zm-.17,1s.07,0,.08.09,0,.08.09.08a.23.23,0,0,0,0-.24C24.59,21.38,24.54,21.4,24.5,21.53Zm.7-6.16c0,.05,0,.08.09.08a.07.07,0,0,0,.08-.08.08.08,0,0,1-.08-.07S25.25,15.28,25.2,15.37Zm.17,7a.58.58,0,0,0,.06.26.48.48,0,0,0,.11.19c0-.1,0-.21,0-.33S25.5,22.28,25.37,22.32Zm.45,2.38c-.14,0-.23.06-.25.18s0,.18.17.18,0-.16,0-.19S25.82,24.79,25.82,24.7Z"/><path d="M33.59,15.47c.07,0,.11,0,.1-.07a.45.45,0,0,0-.06-.12.58.58,0,0,1-.05-.14c0-.05,0-.09.1-.14a.55.55,0,0,1,.23.12,1.1,1.1,0,0,1,.15.16l.15.17a.38.38,0,0,0,.24.11.57.57,0,0,0-.34-.4.83.83,0,0,1-.43-.35.58.58,0,0,1,.19,0l.18.05h.24a2.34,2.34,0,0,0,.35-.08,4.74,4.74,0,0,1,1.86,1.83,9.59,9.59,0,0,1,1,2.75,14.39,14.39,0,0,1,.33,3.27A19,19,0,0,1,37.59,26a2.22,2.22,0,0,0-.05.66,1.63,1.63,0,0,1,0,.58,1.26,1.26,0,0,1-.32.55,5.57,5.57,0,0,0-.43.5.22.22,0,0,0,0,.24.09.09,0,0,1,0,.15,2.91,2.91,0,0,1-1.23.85,5.12,5.12,0,0,1-1.68.37,4.11,4.11,0,0,1-1.68-.25,2.26,2.26,0,0,1-1.23-1A1,1,0,0,0,31,29a1.2,1.2,0,0,0,.17.21l.16.2a.65.65,0,0,1,.11.22.4.4,0,0,1-.4-.15,2.59,2.59,0,0,1-.34-.47c-.1-.19-.22-.37-.34-.57A1.32,1.32,0,0,0,30,28V27.4a6.88,6.88,0,0,1-1-2.56,13,13,0,0,1-.2-3.07,16.77,16.77,0,0,1,.43-3.1,11.76,11.76,0,0,1,.95-2.62c0-.07-.09-.1-.12-.08a.26.26,0,0,0-.11.08.35.35,0,0,1-.13.11c-.05,0-.12,0-.22,0a5.28,5.28,0,0,0,.27-.53,4.66,4.66,0,0,1,.25-.5,2.88,2.88,0,0,1,.33-.43,1,1,0,0,1,.5-.25,4.88,4.88,0,0,1-.34.58,4.51,4.51,0,0,0-.33.66,2.56,2.56,0,0,1,.88-.69,8.27,8.27,0,0,0,1-.55,1.06,1.06,0,0,1,.44.21,3.26,3.26,0,0,1,.33.31l.3.31A.82.82,0,0,0,33.59,15.47ZM29.31,23h-.19v.19h.19Zm.45.3s0,0,.1,0,.09,0,.09,0-.07,0-.08,0S29.82,23.27,29.76,23.33ZM30,22.07c0,.1,0,.2,0,.3s.06.13.21.08a.67.67,0,0,0,0-.23C30.11,22.16,30.05,22.11,30,22.07Zm.3,1.26c0-.1-.07-.15-.09-.14s0,0,0,.08a.21.21,0,0,0,0,.11S30.22,23.4,30.25,23.33Zm.2-1.46c0-.14.06-.18.05-.12l-.05.21-.06.17A2,2,0,0,1,30.45,21.87Zm.47.58c0,.06,0,.09.1.09v-.2s0,0,0,0a.1.1,0,0,0-.08,0c0,.06-.1.08-.28.08a1.72,1.72,0,0,0,0,.26c0,.07.07.09.17,0S30.86,22.45,30.92,22.45Zm3.34,3.81a.93.93,0,0,0-.17-.68,6.4,6.4,0,0,0-.42-.49,2.5,2.5,0,0,1-.39-.47.78.78,0,0,1-.05-.65.57.57,0,0,1,.46.08.91.91,0,0,1,.23.28,2.92,2.92,0,0,1,.17.36.41.41,0,0,0,.27.24.49.49,0,0,0,.48-.26,1.4,1.4,0,0,0,.12-.6,5.17,5.17,0,0,0-.06-.76,4.24,4.24,0,0,1-.07-.77,7.33,7.33,0,0,1,.09-1.15,4.35,4.35,0,0,0,0-1.14,9.21,9.21,0,0,0-.32-1.38,3.1,3.1,0,0,0-.56-1.09,1.3,1.3,0,0,0-.83-.5,1.77,1.77,0,0,0-1.18.38,13.17,13.17,0,0,0-.39,2.13,15.86,15.86,0,0,0-.1,2.49,12.91,12.91,0,0,0,.3,2.39,4.25,4.25,0,0,0,.79,1.78,1,1,0,0,1,.4-.05l.44,0a1.41,1.41,0,0,0,.41,0A.56.56,0,0,0,34.26,26.26Zm-2.4,2.51a.62.62,0,0,0,.26.31l.32.16a.29.29,0,0,0-.07-.22.38.38,0,0,0-.15-.09L32,28.86A.39.39,0,0,1,31.86,28.77Zm.19-2.51A1.26,1.26,0,0,1,32,26l.06.1a1,1,0,0,1,.07.17C32.11,26.34,32.09,26.33,32.05,26.26ZM33.68,29a.24.24,0,0,1,.18.1l.14.19a.36.36,0,0,0,.13.14s.08,0,.13-.06a.26.26,0,0,1-.13-.14L34,29.05a.31.31,0,0,0-.14-.12S33.75,28.94,33.68,29Zm1.26-13.48a.27.27,0,0,1,.18,0l.13.1.09.07s0,0,0-.08l-.09-.06-.12-.09a.27.27,0,0,0-.14,0A.1.1,0,0,0,34.94,15.56Zm.84,12.61a.24.24,0,0,1-.17.09h-.28a.15.15,0,0,1,0,.13l-.07.11a.09.09,0,0,0,0,.08s0,.05.12.07a.32.32,0,0,1,.11-.14l.2-.14.15-.12S35.82,28.2,35.78,28.17Zm.57.19a1.05,1.05,0,0,1-.47.21,1.37,1.37,0,0,0-.49.2.22.22,0,0,0,.25.15.81.81,0,0,0,.35-.14,1.8,1.8,0,0,0,.29-.25C36.36,28.44,36.38,28.39,36.35,28.36ZM36,16.82v-.1q.2-.18.15-.18a.29.29,0,0,0-.14.08.42.42,0,0,0-.14.16C35.81,16.84,35.85,16.85,36,16.82ZM37,20.35a.29.29,0,0,1,0,.19,1.7,1.7,0,0,0,0,.22,1,1,0,0,0,0,.18s0,.08.07.08a.58.58,0,0,1,0-.26c0-.07,0-.13.06-.18a.28.28,0,0,0,0-.13A.32.32,0,0,0,37,20.35Zm.36,1h-.2a.37.37,0,0,0-.16.07c0,.15,0,.23.1.26a.64.64,0,0,1,.2.11.46.46,0,0,0,0-.21A.65.65,0,0,1,37.4,21.32Z"/><path d="M15.74,16.44a1.8,1.8,0,0,0-.61,0,.7.7,0,0,0-.47.3l-.18.08a.52.52,0,0,0-.17.12.36.36,0,0,0-.11.14.25.25,0,0,0,0,.17l.06-.08a.13.13,0,0,0,0-.07.19.19,0,0,0,0-.07l.06,0a.11.11,0,0,1,0,.1.22.22,0,0,0-.17,0,.18.18,0,0,1-.15.05,2.22,2.22,0,0,0-.29.63,3.24,3.24,0,0,0-.12.62q-.18,0-.21.06a.62.62,0,0,0-.05.24.22.22,0,0,0,.16,0c.06-.05.09-.09.09-.14s.06.11.2.11c0,0,0,0,0-.05l0,0,0,0s0,0,0-.06a.06.06,0,0,0-.06,0s0,0,0,.07,0,.05,0,.06,0,0-.05,0v-.1s0,.05-.11,0l-.11,0a1.1,1.1,0,0,1,.41-.13h.48l.47,0a1,1,0,0,0,.4-.07c0-.06.05-.06,0,0l0,.09c.21-.07.31-.06.3,0a.16.16,0,0,1,0-.08h.1c0,.05.07.1,0,.14s0,.07,0,.08a.19.19,0,0,1,0-.11s0-.05,0-.1a.7.7,0,0,1,.24.06.23.23,0,0,0,.19,0,2.37,2.37,0,0,1,0,.43c0,.13,0,.3,0,.51H16l-.25,0a.16.16,0,0,1,.09-.08H16l.12,0a.12.12,0,0,0,.1,0q-.46-.19-.66-.06l.06.05s.06,0,.06,0,0,.12-.1.12a.53.53,0,0,1-.21,0l-.24-.06a.31.31,0,0,0-.21,0,.05.05,0,0,1,0,0s-.05,0-.05-.1a.11.11,0,0,1,.1,0l.12,0,.15.05a.3.3,0,0,0,.16,0,1.58,1.58,0,0,0-.35-.16.25.25,0,0,0-.31.1s-.05,0-.06,0,0,0,0,0l0,0s0,0-.06,0h.09c.07,0,.1.05.1.1h-.43a.84.84,0,0,1-.51-.16.46.46,0,0,1,.12.39,1.26,1.26,0,0,0,0,.47.11.11,0,0,0,.09.13c.07,0,.1.06.1.11l.7,0a2.22,2.22,0,0,1,.69.08,1.88,1.88,0,0,0,.4,0,2.69,2.69,0,0,1,.57,0,1.87,1.87,0,0,0,0,.47.4.4,0,0,1-.17.37h-1a5.25,5.25,0,0,1-.56,0A3,3,0,0,1,14.1,21c.06,0,.08,0,.05,0s-.05,0-.05,0a.57.57,0,0,0-.13.14.43.43,0,0,1-.2.15,4.42,4.42,0,0,0,.32,1,3.07,3.07,0,0,0,.5.78c.13-.1.31-.08.54,0a.71.71,0,0,1-.07.16.4.4,0,0,0-.08.16l.06,0a.1.1,0,0,1,.06.1s0,.05,0,.06l0,0,0,0h.08s0,0,.06-.09a.64.64,0,0,0,.47,0,1,1,0,0,1,.39-.06v.11h.06a.11.11,0,0,1-.06-.11,4.54,4.54,0,0,0,.62-.34,4.79,4.79,0,0,1,.64-.33c0,.33-.06.61-.07.85s0,.49-.06.76c-.06,0-.1,0-.11.06a1,1,0,0,0,0,.14.58.58,0,0,1-.05.14c0,.05-.08.06-.17.05l.1-.1a.22.22,0,0,0,0-.1.44.44,0,0,0-.1.15,1,1,0,0,0,0,.16h-.12l-.13.08.11,0s.06.06,0,.11,0-.08-.12-.06l-.2,0c0-.06,0-.1.06-.11a.13.13,0,0,0,.07-.1H16.3c-.07,0-.08,0,0,.08a.67.67,0,0,1-.18.07l-.16,0a.2.2,0,0,0-.1.07.14.14,0,0,0,0,.13.48.48,0,0,1-.16-.12,1.1,1.1,0,0,0-.16-.15L15.3,25a.35.35,0,0,0-.23,0H15l-.1,0c-.05,0-.06,0,0,0a.19.19,0,0,0,.13.07.41.41,0,0,1,.35.05,1.46,1.46,0,0,0,.27.13.78.78,0,0,1-.6,0,5,5,0,0,0-.56-.23v.13a1.17,1.17,0,0,0-.3-.17.41.41,0,0,1-.2-.21.48.48,0,0,1,.23.07.35.35,0,0,0,.19.06.19.19,0,0,1,0-.1s0-.07,0-.11l0-.13a.22.22,0,0,0-.11-.1l0,.16v.16H14a.14.14,0,0,1,.06-.1s0-.06,0-.12a.45.45,0,0,1-.19-.06.43.43,0,0,0-.2-.07.17.17,0,0,0,0,.12.09.09,0,0,0,.06,0l.08,0a.06.06,0,0,1,0,.06.28.28,0,0,1-.29-.36.31.31,0,0,1,.13.06s.07,0,.08,0,0,0,0-.05h0l-.07,0s0,0,0-.05a.71.71,0,0,1-.09-.17.11.11,0,0,0-.11-.06c.06.05.07.08,0,.1a.77.77,0,0,0-.15.1c.06-.05.08-.08.05-.11a.16.16,0,0,1,0-.11c.05,0,.06,0,.05.06s0,.05.05.06a.16.16,0,0,0,0-.12l-.08-.07-.11-.06a.19.19,0,0,1-.08-.07v.09a.84.84,0,0,1,0,.1s.08,0,.08,0,0,0,0,.08a2.74,2.74,0,0,1-.52-.6,4.78,4.78,0,0,1-.4-.74c-.12-.26-.23-.54-.34-.81l-.32-.84L11.31,21a1,1,0,0,0-.53,0,.27.27,0,0,0-.19,0h-.25a.45.45,0,0,1-.2,0c-.06,0-.08-.1-.07-.21a.58.58,0,0,1,0-.37,1.8,1.8,0,0,0,.08-.39l.69.05a2.76,2.76,0,0,0,.6,0,.37.37,0,0,0,.21-.27,1.72,1.72,0,0,1,.14-.33c0-.14-.12-.2-.22-.19a1.92,1.92,0,0,1-.39,0v-.1a.36.36,0,0,0,.19.05l.23,0,.24,0H12a.49.49,0,0,1,0-.13s0,0,.08,0c0-.1,0-.17-.06-.2a.2.2,0,0,0-.16,0l-.21,0-.19,0c0,.06,0,.08.05.07s0,0,0,.07a.28.28,0,0,0-.42-.05l0,0a.11.11,0,0,1,0,.1l-.1,0h-.09v-.1l0,.05a.11.11,0,0,1-.12,0l0-.1a1.94,1.94,0,0,0,0,.22.11.11,0,0,0,.1.08h-.12s-.06-.08,0-.1,0,0,0-.09-.08.06-.1,0a.14.14,0,0,0-.1-.06.17.17,0,0,1,0,.07v.12l0-.08s0,0,.09,0v.1l-.1,0h-.12a.31.31,0,0,1-.24.11,3.32,3.32,0,0,1-.42,0,1.27,1.27,0,0,1-.06-.41,1.62,1.62,0,0,0-.07-.47,2.49,2.49,0,0,1,.59-.06A2,2,0,0,0,11,18.2l0-.09.26,0,.26,0a.44.44,0,0,0,.27-.21,1.64,1.64,0,0,0,.14-.33c0-.11.06-.24.1-.36a1.16,1.16,0,0,1,.14-.34,1.1,1.1,0,0,0,.23-.25c.06-.1.12-.2.19-.3a3.25,3.25,0,0,1,.23-.29,1.56,1.56,0,0,1,.3-.26.09.09,0,0,1,.07-.08h.13l.36-.3a.77.77,0,0,1,.32-.17h.22a.4.4,0,0,0,.23-.08l.76-.26a2.52,2.52,0,0,1,.76-.16l.74,0a.9.9,0,0,1,.55.17.88.88,0,0,0-.09.5,2.9,2.9,0,0,1,0,.59s-.05.08-.12.09-.11,0-.11.09l0,.1s0,0,.06,0a.12.12,0,0,1,.05,0c.05,0,.07-.1.05-.14l0-.06.12.09v-.09a.16.16,0,0,0,0,.12s0,.1,0,.21c-.05-.07-.1-.1-.15-.08s-.11,0-.16-.07.06.11,0,.12a.19.19,0,0,0-.05.1.86.86,0,0,0-.26-.11l-.25,0a1.43,1.43,0,0,0-.43,0,.75.75,0,0,1-.33,0Zm-5.4,2a.27.27,0,0,0-.05.19.35.35,0,0,0,0,.13c0,.06.07.08.1.05a.07.07,0,0,0,0-.05.15.15,0,0,0,0-.07.21.21,0,0,0,0-.06.43.43,0,0,1,0-.07A.24.24,0,0,1,10.34,18.49Zm.27,2.17a.28.28,0,0,0-.19,0q-.11.06,0,.15h.2c-.05-.06-.05-.09,0-.11S10.61,20.71,10.61,20.66Zm0-1.73c0-.05,0-.07,0-.05s-.09,0-.14-.07a.08.08,0,0,0,.05.1ZM13,16.12a.18.18,0,0,0-.13.06.26.26,0,0,0-.08.13.09.09,0,0,0,.11,0A.53.53,0,0,1,13,16.12Zm.42,0a.53.53,0,0,0-.16,0,.48.48,0,0,0-.14.09.1.1,0,0,0,0,.1s0,.05.13.05a.22.22,0,0,1,.06-.14A1.85,1.85,0,0,0,13.4,16.16Zm.35,1.42c-.11,0-.19,0-.22,0a.13.13,0,0,1-.11.06s0,0,.05,0h.11l.12,0A.1.1,0,0,0,13.75,17.58Zm.05-.64a.4.4,0,0,1-.17.09.4.4,0,0,0-.17.09c0,.05,0,.07.1.05l.11,0c0-.05,0-.08.07-.09A.1.1,0,0,0,13.8,16.94Zm-.27-.67h.11a.1.1,0,0,0-.06-.1l-.05,0ZM13.65,20s0,0,0,.08,0,0,0,0,0,0,0,0S13.68,20.08,13.65,20Zm0-.21c-.05,0-.07,0,0,0a.11.11,0,0,1,0,.09Zm-.05-.57,0-.09a.05.05,0,0,1,0,0,.12.12,0,0,1,0,.09v-.09l-.08,0Zm0,.78a.31.31,0,0,1,.07.12s0,.05-.08.1a0,0,0,0,1,0,0,.06.06,0,0,1,.05,0,0,0,0,0,1,0,.05s0,0-.1.07v.11l.18-.14a.36.36,0,0,1,.26,0,.3.3,0,0,0-.15-.09l-.16,0a.13.13,0,0,0,0-.06l0-.05S13.68,20,13.65,20Zm.15-.43c-.05,0-.09-.05-.1,0s0,0,0,0,0,.07.06,0Zm0-.52c-.05,0-.08-.07-.1,0a.08.08,0,0,0,0,0,.08.08,0,0,1,0,0S13.79,19,13.84,19.08Zm.1.11c0-.05,0-.06,0,0l-.05,0Zm0-.52a0,0,0,0,0-.05,0,.09.09,0,0,0-.05.08.09.09,0,0,1,.05-.08A0,0,0,0,1,14,18.67Zm.09,5.79a.12.12,0,0,0,0-.11.15.15,0,0,1,0-.12c-.05.05-.05.1,0,.12A.11.11,0,0,1,14.06,24.46ZM14,18.67h0v0s0,0,0,0l0,.05v-.1l-.1,0Zm.32-.08s0,0,0,0l0,0,0,0s0,0,0,0-.06,0,0,0,0,0,0,.09a.08.08,0,0,1,0,0A.1.1,0,0,1,14.29,18.59Zm.14-.11a.11.11,0,0,1-.08.1h-.06c0-.06,0-.08.07-.06S14.43,18.53,14.43,18.48Zm.26-3.3-.22.09h-.13a.2.2,0,0,1,0,.07s0,0,0,.06v.08a.77.77,0,0,1,.19-.11A.66.66,0,0,0,14.69,15.18Zm-.34,9.62c.05,0,.07,0,.05-.05l0-.06Zm.59-6.28a.12.12,0,0,1,.1.13s-.08,0-.1,0a.12.12,0,0,1-.1,0v-.1c.05,0,.08,0,.08,0S14.94,18.58,14.94,18.52Zm.38,2.38-.07,0c-.05,0-.08.06-.08.1s-.06,0,0,0,0,0,0,.09a1,1,0,0,1,.16-.09.16.16,0,0,0,.08-.13Zm0-5.56c0-.05,0-.07-.05-.05s-.06,0-.05-.06a0,0,0,0,0,0,0,.06.06,0,0,0,0,.06.1.1,0,0,0,.05,0A.08.08,0,0,0,15.3,15.34ZM15.41,25a.18.18,0,0,0,0-.14s-.09,0-.17,0a.07.07,0,0,0,.06.09Zm0-6.32c.06-.05.07-.08,0-.1l-.13,0c0,.06,0,.08.05.06S15.38,18.61,15.38,18.67Zm.35,2.26h-.21c0,.07,0,.1.09.11A.11.11,0,0,0,15.73,20.93Zm-.15-2.37v.12c.06,0,.08,0,.06-.05s0-.06.06-.05Zm.32,5.59a.12.12,0,0,1-.1,0,.17.17,0,0,0-.12-.06.1.1,0,0,0,.06.1.09.09,0,0,1,0,.1l.26-.08Zm.33-5.31a.45.45,0,0,0-.24-.11l-.29,0s0,.07,0,.08.06,0,.06-.07v.1a.54.54,0,0,1,0,.11.28.28,0,0,1,.17-.09Zm.32,5.28c0-.05,0-.06,0,0s-.05,0-.11,0,0,.06.06,0A.09.09,0,0,0,16.55,24.12Zm.54-.19a.29.29,0,0,1-.15.11.7.7,0,0,0-.19.1l.12,0c.07,0,.1,0,.1,0s.07,0,.06-.06A.19.19,0,0,1,17.09,23.93ZM17,15.78a.11.11,0,0,0-.11.06.43.43,0,0,1,0,.05l.06,0S17,15.83,17,15.78Zm.22,8.39a.07.07,0,0,1-.08.08.33.33,0,0,0-.17.11.64.64,0,0,0,.12-.15S17.14,24.16,17.21,24.17Z"/><path class="aec51dea-bc42-4860-ad2c-8918d39d5aa1" d="M7.6,11.4v-.67c0,2.17.09,4.44.14,6.7,0-4.9.17-10.65-.25-14.44a2.05,2.05,0,0,0,.13-.56.81.81,0,0,1,0-.14l0,0,.05-.09.12,0c.06,0,0,0,.27,0l1.15.06a9.79,9.79,0,0,0,1.25,0l3-.08-2.07,0,2.07,0c6.39-.12,13.33.07,20.5.28L42,2.68c0,1.66.08,3.37.11,4.89,0,1.77,0,3.32,0,4.4v1.77l0-2c.11,2.48.2,4.73.25,6.91,0-.38.08-.45.13-1.36l0,1.11c.11,1,.11,3.36.15,4.46-.05-.24-.07.63-.08,1.39l0-.3c0,2.91,0,6.27,0,8.87,0,.36,0,.63,0,.79l0,2.49c-.08-.19-.09,2.06-.13.88.07,1.86,0,3.74.08,5.52,0,.79,0,1.59,0,2.39a7.24,7.24,0,0,1-.24,2.25,1.47,1.47,0,0,1-1.45,1,9,9,0,0,1-1.17,0l-1.25,0-9.91-.07.16,0c-2.29,0-4.32.12-7.11,0-2,.08-4.83,0-5.63.12-2.31-.08-3.22,0-5.49-.12.29.06-.25.05-.75,0H9.24l-.08,0a.45.45,0,0,1-.26-.28.58.58,0,0,1,0-.14h0v-.21c0-.1,0-.06,0,.22a.63.63,0,0,0,.16.35c.08.1.28.15.25.15h.06l.1,0,.14,0,.24,0,.41.05.61,0c.37,0,.71,0,1.34.12l0,0c3,.2,5.93.38,8.9.5l9,.27c2,0,4.1.05,6.21.1l3.15.07a10.69,10.69,0,0,0,1.7,0,2.8,2.8,0,0,0,1.88-.94,3.71,3.71,0,0,0,.74-2,15.57,15.57,0,0,0,.06-1.78V41.31c0-2.26,0-4.44,0-6.37,0-.92.06-1.58.11-2.37,0-3.54.05-8,0-12v.19c0-2.12.06-3.71,0-5.79a2,2,0,0,1,0-.47c0-.16,0-2.85-.15-5.73-.16-3.08-.32-6.37-.37-7.4H41.85C37.48,1.21,33,.94,29.2.9L26.78,1c-.67-.06-.8,0-1.6,0C23.16.78,22,.86,23,1L18.18.9l-2.07,0A6.14,6.14,0,0,1,14.89.84c-1.51,0-1.06,0-2.65-.09-.4-.08-3.92.07-4.46,0h.3L6.35.73c0,.48,0,1-.07,1.43l-.06.93c0,.6-.07,1.2-.07,1.9-.1,5,.11,10.42.31,15,.08,0-.06-1,0-1.07.11,2.72.17,5.46.34,8.2,0,.5,0,1.1,0,1.33,0,.88.08.51.11,1.16l-.06.09c.12.93,0,1.37.12,2.25a3.45,3.45,0,0,1,.08.68c-.07,0,.08,1,0,.92h0c0,.19,0,.32,0,.55s.54,3.67.6,4.06v.17c0,.5.12.71.11.42l.05.62,0-.07,0,.61c0,.12,0,.25-.06.08,0,.34.1.73.12,1.08,0-1-.08-2.18-.09-3.2.06.41.08,1.17.13,1.62s.05,1.65.09,2.52a2.64,2.64,0,0,1,.12.75c0,.21,0,.48,0,.84-.07-.41-.09-.81-.13-1.23a10.15,10.15,0,0,0,.06,1.35c0,.15.08,1,.15,1.46-.09-.21,0,.41,0,.72s.07.55.08.41c.08.11-.08-1.36,0-.89,0,.13,0,.8.08,1.15,0,0,0-.24.07,0a10.11,10.11,0,0,1,.09,1,3.25,3.25,0,0,1,0-.36c0,.52-.51-2.79-.43-2.12,0-.18.5,2.94.47,2.59s.09.22.07-.11l-.07-.36c0-.45,0-.64.06-.48.06.75-.45-2.11-.36-1.47v-.26a9,9,0,0,1,.12,1.27,2.62,2.62,0,0,1,.12.67v.11c.05.31.08.75.11.54-.17-1.84.5,1.18.36-.61,0,.76-.11-.24-.19-1a5.81,5.81,0,0,0,0-1c0-.49,0-.29-.08-.38,0-.27,0-.79,0-.73-.08-.37,0-.61-.08-1.07s0,0-.07-.25c0-.6-.11-1.45-.14-1.93,0-.19.05-.77.15-.36.07.92-.14-.34,0,.61.06-.42.1.84.18,1a10.28,10.28,0,0,0-.09-1.44v.11a18.25,18.25,0,0,1-.14-1.86c0,.12,0-.1.08.23l0-.62c0-.08,0-.16,0,0a5,5,0,0,1-.06-.82c0-.07-.43-3.31-.39-3.21,0-.45,0-.57-.07-1,0,0,0,.25.06.64s.1.91.16,1.41c.11,1,.23,2,.19,1.65S8,32,8,31.67s-.06-.73-.09-.65c0-.57.08.16.08-.24,0,0,0,0,0-.1v-.39c-.11-.87-.13-2.16-.27-3.07a8.39,8.39,0,0,1,.22,1.15v.1A3.46,3.46,0,0,0,8,29a13.23,13.23,0,0,0-.13-1.63v-.32h0c0-.19,0-.17,0-.1v0c.08-.36-.22-2.2-.22-3.23,0-.3,0,0-.06-.4,0-1.06,0-1.8-.06-2.87-.06-.35-.08-.38-.1.05l0-.83c.16.75,0-1.55.2-.72a9.11,9.11,0,0,0,0-1.21s-.08-.11-.1-.69c0-.82,0-.61,0-1.3,0-.16.06.09.09.06-.09-1,.06-.91,0-1.88a14.74,14.74,0,0,0-.14-1.85C7.49,11.32,7.54,11.32,7.6,11.4Z"/></svg>