<?xml version="1.0" encoding="utf-8"?>
<!-- Generator: Adobe Illustrator 23.0.3, SVG Export Plug-In . SVG Version: 6.00 Build 0)  -->
<svg version="1.1" id="Laag_1" xmlns="http://www.w3.org/2000/svg" xmlns:xlink="http://www.w3.org/1999/xlink" x="0px" y="0px"
	 viewBox="0 0 113.97 144.55" style="enable-background:new 0 0 113.97 144.55;" xml:space="preserve">
<style type="text/css">
	.st0{fill:#F7D56B;}
	.st1{fill:#0F0F0F;}
</style>
<path class="st0" d="M107.98,8.2c-2.12,19.24-3.39,38.58-3.37,57.94c0.01,11.81,0.51,23.62,1.27,35.41c0.3,4.66,0.65,9.33,0.77,14
	c0.19,7.29-0.16,14.6-1.06,21.84c-4.51,1.89-9.62,1.39-14.49,0.89c-19.07-1.98-38.17-3.62-57.27-5.26
	c-3.57-0.31-7.18-0.61-10.73-0.16c-3.32,0.42-6.65,1.51-9.96,0.99c-0.64-0.1-1.31-0.28-1.72-0.77c-0.45-0.52-0.51-1.27-0.53-1.96
	c-0.53-15.01,4.86-29.92,3.14-44.84c-1.03-8.91-4.56-17.38-5.52-26.3C7.83,53.6,8.49,47.16,8.24,40.74
	C7.9,32.1,5.94,23.57,6.01,14.9c0.02-2.81-0.51-7.39,2.68-8.58c3.4-1.27,8.77-0.31,12.37-0.33c18.54-0.12,37.08,0.14,55.61,0.78
	C87.12,7.12,97.55,7.6,107.98,8.2z"/>
<path d="M37.82,20.66h-1.6l-6.26,14.52h-2.52l-6.23-14.52h-1.65v-3.09h7.29v3.09h-1.6l3.6,8.92h0.16l3.52-8.92h-1.65v-3.09h6.94
	V20.66z"/>
<path d="M38.01,23.83c1.07-0.43,1.95-0.73,2.67-0.88c0.71-0.15,1.57-0.23,2.56-0.23c1.32,0,2.46,0.34,3.41,1.03
	c0.96,0.69,1.44,1.73,1.44,3.12v5.31c0,0.63,0.28,0.95,0.84,0.95c0.16,0,0.33-0.03,0.51-0.08l0.03,1.84
	c-0.7,0.38-1.44,0.57-2.2,0.57c-1.61,0-2.5-0.8-2.68-2.41v-0.03c-0.34,0.61-0.84,1.17-1.48,1.68c-0.64,0.5-1.46,0.76-2.45,0.76
	c-0.89,0-1.73-0.26-2.55-0.79c-0.81-0.52-1.22-1.43-1.22-2.71c0-1.5,0.6-2.49,1.8-2.98c1.2-0.49,2.5-0.73,3.89-0.73
	c0.78,0,1.44,0.04,2,0.11v-0.41c0-0.63-0.09-1.25-0.26-1.84c-0.17-0.6-0.76-0.89-1.75-0.89c-0.36,0-0.69,0.02-0.99,0.07
	c-0.3,0.05-0.59,0.14-0.88,0.29l-0.46,1.73L37.47,27L38.01,23.83z M44.59,30.2v-0.16c-0.29-0.04-0.58-0.07-0.88-0.11
	c-0.3-0.04-0.59-0.05-0.88-0.05c-0.61,0-1.16,0.11-1.63,0.34c-0.47,0.23-0.7,0.67-0.7,1.34c0,0.4,0.11,0.73,0.33,1
	c0.22,0.27,0.59,0.41,1.11,0.41c0.61,0,1.19-0.22,1.72-0.66C44.19,31.86,44.5,31.16,44.59,30.2z"/>
<path d="M65.62,35.19h-6.75v-2.63h1.63V28.3c0-1.05-0.18-1.8-0.53-2.25c-0.35-0.45-0.87-0.68-1.56-0.68c-0.83,0-1.47,0.26-1.92,0.77
	c-0.45,0.51-0.69,1.19-0.7,2.02v4.39h1.63v2.63h-6.75v-2.63h1.63v-6.94h-1.76v-2.66h5.26v1.87c0.81-1.41,2.12-2.11,3.93-2.11
	c1.16,0,2.16,0.34,3.01,1.03c0.85,0.69,1.27,1.75,1.27,3.2v5.61h1.63V35.19z"/>
<path d="M67.79,23.83c1.07-0.43,1.95-0.73,2.67-0.88c0.71-0.15,1.57-0.23,2.56-0.23c1.32,0,2.46,0.34,3.41,1.03
	c0.96,0.69,1.44,1.73,1.44,3.12v5.31c0,0.63,0.28,0.95,0.84,0.95c0.16,0,0.33-0.03,0.51-0.08l0.03,1.84
	c-0.7,0.38-1.44,0.57-2.2,0.57c-1.61,0-2.5-0.8-2.68-2.41v-0.03c-0.34,0.61-0.84,1.17-1.48,1.68c-0.64,0.5-1.46,0.76-2.45,0.76
	c-0.89,0-1.73-0.26-2.55-0.79c-0.81-0.52-1.22-1.43-1.22-2.71c0-1.5,0.6-2.49,1.8-2.98c1.2-0.49,2.5-0.73,3.89-0.73
	c0.78,0,1.44,0.04,2,0.11v-0.41c0-0.63-0.09-1.25-0.26-1.84c-0.17-0.6-0.76-0.89-1.75-0.89c-0.36,0-0.69,0.02-0.99,0.07
	c-0.3,0.05-0.59,0.14-0.88,0.29l-0.46,1.73L67.25,27L67.79,23.83z M74.37,30.2v-0.16c-0.29-0.04-0.58-0.07-0.88-0.11
	c-0.3-0.04-0.59-0.05-0.88-0.05c-0.61,0-1.16,0.11-1.63,0.34c-0.47,0.23-0.7,0.67-0.7,1.34c0,0.4,0.11,0.73,0.33,1
	c0.22,0.27,0.59,0.41,1.11,0.41c0.61,0,1.19-0.22,1.72-0.66C73.97,31.86,74.28,31.16,74.37,30.2z"/>
<path d="M86.94,16.27c0.56,0,1.17,0.08,1.84,0.24c0.67,0.16,1.28,0.45,1.84,0.87l0.54,3.31l-2.71,0.3l-0.6-1.92
	c-0.38-0.11-0.7-0.16-0.98-0.16c-0.9,0-1.36,0.54-1.36,1.63v2.44h3.01v2.49h-3.01v7.1h2.03v2.63h-7.15v-2.63h1.63v-7.1h-1.49v-2.49
	h1.49V21.1c0-1.26,0.41-2.38,1.25-3.36C84.12,16.76,85.34,16.27,86.94,16.27z"/>
<path d="M34.64,95.32h-1.68v9.23c0,2.01-0.57,3.66-1.71,4.94c-1.14,1.28-2.89,1.92-5.26,1.92c-1.31,0-2.56-0.27-3.75-0.8
	c-1.19-0.53-2.06-1.52-2.6-2.98l2.77-1.57c0.89,1.66,2.1,2.49,3.61,2.49c0.97,0,1.77-0.35,2.39-1.05c0.62-0.7,0.94-1.68,0.94-2.95
	v-1.65c-0.34,0.63-0.83,1.17-1.48,1.62c-0.65,0.45-1.54,0.67-2.66,0.67c-1.47,0-2.76-0.51-3.86-1.54c-1.1-1.03-1.65-2.54-1.65-4.53
	c0-1.88,0.5-3.49,1.51-4.81s2.4-1.99,4.17-1.99c0.99,0,1.81,0.21,2.46,0.62c0.65,0.41,1.16,0.94,1.51,1.59v-1.96h5.29V95.32z
	 M29.36,98.82v-0.31c0-1.04-0.27-1.86-0.8-2.45s-1.21-0.88-2.03-0.88c-0.8,0-1.47,0.3-2,0.89c-0.53,0.6-0.8,1.54-0.8,2.82
	c0,1.21,0.24,2.09,0.71,2.63c0.48,0.54,1.09,0.81,1.86,0.81c0.99,0,1.74-0.35,2.27-1.06C29.1,100.57,29.36,99.75,29.36,98.82z"/>
<path d="M43.79,92.41c0.35,0,0.75,0.05,1.19,0.15c0.44,0.1,0.87,0.28,1.3,0.55l0.56,4.42l-2.74,0.31l-0.48-2.15
	c-0.37-0.22-0.7-0.34-0.98-0.34c-0.41,0-0.77,0.16-1.08,0.48c-0.31,0.32-0.46,0.78-0.46,1.4v5.26h2.24v2.71h-7.52v-2.71h1.68v-7.16
	h-1.82v-2.74h5.15v2.41c0.2-0.73,0.54-1.34,0.99-1.83C42.27,92.66,42.93,92.41,43.79,92.41z"/>
<path d="M49.24,93.48c1.1-0.45,2.02-0.75,2.76-0.91c0.74-0.16,1.62-0.24,2.64-0.24c1.36,0,2.54,0.35,3.52,1.06
	c0.99,0.71,1.48,1.78,1.48,3.22v5.48c0,0.65,0.29,0.98,0.87,0.98c0.17,0,0.34-0.03,0.53-0.08l0.03,1.9
	c-0.73,0.39-1.48,0.59-2.27,0.59c-1.66,0-2.58-0.83-2.77-2.49v-0.03c-0.35,0.63-0.86,1.21-1.52,1.73c-0.66,0.52-1.51,0.78-2.53,0.78
	c-0.91,0-1.79-0.27-2.63-0.81c-0.84-0.54-1.26-1.47-1.26-2.8c0-1.55,0.62-2.57,1.86-3.08c1.24-0.5,2.58-0.75,4.01-0.75
	c0.8,0,1.49,0.04,2.07,0.11v-0.42c0-0.65-0.09-1.29-0.27-1.9c-0.18-0.62-0.78-0.92-1.8-0.92c-0.37,0-0.71,0.02-1.02,0.07
	c-0.31,0.05-0.61,0.15-0.91,0.29l-0.48,1.79l-2.88-0.31L49.24,93.48z M56.04,100.05v-0.17c-0.3-0.04-0.6-0.08-0.91-0.11
	c-0.31-0.04-0.61-0.06-0.91-0.06c-0.63,0-1.19,0.12-1.68,0.35c-0.48,0.23-0.73,0.7-0.73,1.39c0,0.41,0.11,0.75,0.34,1.03
	c0.22,0.28,0.61,0.42,1.15,0.42c0.63,0,1.23-0.23,1.78-0.69C55.62,101.76,55.95,101.04,56.04,100.05z"/>
<path d="M72.85,101.28c-0.19,1.45-0.69,2.52-1.51,3.19c-0.82,0.67-1.88,1.01-3.19,1.01c-1.4,0-2.53-0.35-3.4-1.05
	c-0.87-0.7-1.3-1.7-1.3-3.01v-6.27h-1.79v-2.57h1.79v-3.83h3.61v3.83h4.53v2.57h-4.53v5.65c0,1.1,0.5,1.65,1.51,1.65
	c0.22,0,0.53-0.1,0.91-0.29c0.38-0.2,0.63-0.76,0.74-1.69L72.85,101.28z"/>
<path d="M80.49,105.2h-6.97v-2.71h1.68v-7.16h-1.82v-2.74h5.43v9.9h1.68V105.2z M75.06,90.34V86.6h3.61v3.75H75.06z"/>
<path d="M93.16,101.34c0,1.4-0.56,2.44-1.67,3.12s-2.55,1.02-4.32,1.02c-0.91,0-1.83-0.1-2.75-0.29c-0.92-0.2-1.81-0.51-2.64-0.94
	l0.5-3.52l2.8,0.31v1.57c0.34,0.11,0.69,0.18,1.06,0.21c0.37,0.03,0.65,0.04,0.84,0.04c0.69,0,1.29-0.11,1.79-0.34
	c0.5-0.22,0.76-0.56,0.76-1.01c0-0.54-0.38-0.89-1.15-1.06c-0.76-0.17-1.65-0.34-2.66-0.5c-1.01-0.17-1.89-0.51-2.66-1.04
	c-0.76-0.52-1.15-1.41-1.15-2.66c0-1.55,0.6-2.59,1.8-3.12c1.2-0.53,2.45-0.8,3.73-0.8c1.68,0,3.25,0.38,4.73,1.15l0.31,3.22
	L89.69,97l-0.22-1.76c-0.62-0.2-1.28-0.31-1.99-0.31c-0.47,0-0.86,0.1-1.19,0.29c-0.33,0.2-0.49,0.5-0.49,0.91
	c0,0.54,0.37,0.9,1.11,1.08c0.74,0.18,1.59,0.35,2.57,0.52c0.98,0.17,1.84,0.51,2.57,1.02C92.79,99.26,93.16,100.12,93.16,101.34z"
	/>
<path d="M26.23,117.84h-0.69l-2.4,5.28h-1.39l-2.54-5.28H18.5v-1.45h3.43v1.45h-0.64l1.31,2.82h0.09l1-2.82h-0.54v-1.45h3.07V117.84
	z"/>
<path d="M33.01,121.01c-0.05,0.6-0.34,1.12-0.88,1.58c-0.54,0.46-1.29,0.69-2.25,0.69c-1,0-1.83-0.28-2.48-0.85
	s-0.98-1.41-0.98-2.54c0-1.03,0.3-1.9,0.89-2.59c0.59-0.69,1.42-1.04,2.48-1.04c0.94,0,1.69,0.27,2.28,0.81
	c0.58,0.54,0.88,1.24,0.89,2.12c0,0.33-0.03,0.65-0.1,0.97h-4.42c0.11,1.06,0.64,1.6,1.58,1.6c0.52,0,0.87-0.12,1.05-0.37
	c0.18-0.25,0.3-0.47,0.34-0.67L33.01,121.01z M30.96,119.04c0.04-0.34-0.03-0.66-0.22-0.96c-0.18-0.3-0.5-0.45-0.96-0.45
	c-0.4,0-0.71,0.13-0.92,0.39c-0.22,0.26-0.36,0.6-0.42,1.01H30.96z"/>
<path d="M37.99,116.31c0.19,0,0.4,0.03,0.63,0.08c0.23,0.05,0.47,0.15,0.69,0.29l0.3,2.36l-1.46,0.16l-0.25-1.15
	c-0.2-0.12-0.37-0.18-0.52-0.18c-0.22,0-0.41,0.09-0.57,0.25c-0.16,0.17-0.25,0.42-0.25,0.75v2.81h1.19v1.45h-4.01v-1.45h0.89v-3.82
	h-0.97v-1.46h2.75v1.28c0.11-0.39,0.29-0.71,0.53-0.98C37.18,116.44,37.53,116.31,37.99,116.31z"/>
<path d="M46.3,123.12h-5.88l-0.19-1.01l3.61-4.27h-2.01l-0.3,1.03l-1.39-0.12l0.24-2.36h5.91l0.15,1.01l-3.72,4.27h2.16l0.31-1.06
	l1.52,0.15L46.3,123.12z"/>
<path d="M53.91,121.01c-0.05,0.6-0.34,1.12-0.88,1.58c-0.54,0.46-1.29,0.69-2.25,0.69c-1,0-1.83-0.28-2.48-0.85
	c-0.65-0.57-0.98-1.41-0.98-2.54c0-1.03,0.3-1.9,0.89-2.59c0.59-0.69,1.42-1.04,2.48-1.04c0.94,0,1.69,0.27,2.28,0.81
	c0.58,0.54,0.88,1.24,0.89,2.12c0,0.33-0.03,0.65-0.1,0.97h-4.42c0.11,1.06,0.64,1.6,1.58,1.6c0.52,0,0.87-0.12,1.05-0.37
	c0.18-0.25,0.3-0.47,0.34-0.67L53.91,121.01z M51.87,119.04c0.04-0.34-0.03-0.66-0.22-0.96c-0.18-0.3-0.5-0.45-0.96-0.45
	c-0.4,0-0.71,0.13-0.92,0.39c-0.22,0.26-0.36,0.6-0.42,1.01H51.87z"/>
<path d="M62.88,123.12h-3.72v-1.45h0.9v-2.34c0-0.58-0.1-0.99-0.29-1.24c-0.19-0.25-0.48-0.37-0.86-0.37
	c-0.46,0-0.81,0.14-1.06,0.43c-0.25,0.28-0.38,0.65-0.39,1.11v2.42h0.89v1.45h-3.72v-1.45h0.89v-3.82h-0.97v-1.46h2.9v1.03
	c0.45-0.78,1.17-1.16,2.16-1.16c0.64,0,1.19,0.19,1.66,0.57c0.47,0.38,0.7,0.96,0.7,1.76v3.09h0.9V123.12z"/>
<path d="M71.36,123.12h-2.82v-1.25c-0.19,0.39-0.47,0.72-0.84,0.99c-0.37,0.27-0.86,0.41-1.46,0.41c-0.89,0-1.58-0.3-2.09-0.91
	c-0.51-0.61-0.76-1.43-0.76-2.48c0-1,0.25-1.86,0.75-2.57c0.5-0.71,1.25-1.06,2.25-1.06c0.55,0,1,0.11,1.34,0.33
	c0.35,0.22,0.62,0.5,0.81,0.84v-3.1h-1.34v-1.46h3.27v8.82h0.89V123.12z M68.54,119.72v-0.16c0-0.56-0.15-0.99-0.44-1.31
	s-0.66-0.47-1.1-0.47c-0.43,0-0.8,0.16-1.13,0.48c-0.32,0.32-0.49,0.82-0.49,1.51c0,0.65,0.15,1.14,0.45,1.48
	c0.3,0.34,0.65,0.51,1.06,0.51c0.51,0,0.91-0.21,1.2-0.64C68.39,120.68,68.54,120.22,68.54,119.72z"/>
<path d="M75.76,123.12h-3.72v-1.45h0.9v-3.82h-0.97v-1.46h2.89v5.28h0.9V123.12z M72.86,115.2v-2h1.92v2H72.86z"/>
<path d="M84.7,123.12h-3.72v-1.45h0.9v-2.34c0-0.58-0.1-0.99-0.29-1.24c-0.19-0.25-0.48-0.37-0.86-0.37c-0.46,0-0.81,0.14-1.06,0.43
	c-0.25,0.28-0.38,0.65-0.39,1.11v2.42h0.89v1.45h-3.72v-1.45h0.89v-3.82h-0.97v-1.46h2.9v1.03c0.45-0.78,1.17-1.16,2.16-1.16
	c0.64,0,1.19,0.19,1.66,0.57c0.47,0.38,0.7,0.96,0.7,1.76v3.09h0.9V123.12z"/>
<path d="M93.16,117.86h-0.9v4.92c0,1.07-0.3,1.95-0.91,2.63c-0.61,0.68-1.54,1.02-2.81,1.02c-0.7,0-1.36-0.14-2-0.43
	c-0.64-0.28-1.1-0.81-1.39-1.59l1.48-0.84c0.48,0.89,1.12,1.33,1.92,1.33c0.52,0,0.94-0.19,1.28-0.56c0.33-0.37,0.5-0.9,0.5-1.57
	v-0.88c-0.18,0.34-0.44,0.63-0.79,0.87c-0.35,0.24-0.82,0.36-1.42,0.36c-0.79,0-1.47-0.27-2.06-0.82c-0.59-0.55-0.88-1.35-0.88-2.42
	c0-1,0.27-1.86,0.81-2.57c0.54-0.71,1.28-1.06,2.22-1.06c0.53,0,0.96,0.11,1.31,0.33c0.35,0.22,0.62,0.5,0.81,0.85v-1.04h2.82
	V117.86z M90.34,119.72v-0.16c0-0.56-0.14-0.99-0.43-1.31c-0.28-0.31-0.64-0.47-1.08-0.47c-0.43,0-0.78,0.16-1.07,0.48
	c-0.28,0.32-0.43,0.82-0.43,1.51c0,0.65,0.13,1.11,0.38,1.4s0.58,0.43,0.99,0.43c0.53,0,0.93-0.19,1.21-0.57
	C90.2,120.66,90.34,120.22,90.34,119.72z"/>
<g>
	<path d="M54.26,57.29c0.12,0.31,0.35,0.54,0.7,0.67c0.35,0.14,0.72,0.26,1.11,0.38c0.39,0.12,0.73,0.27,1.03,0.47
		c0.29,0.2,0.48,0.49,0.56,0.88c-0.23-0.12-0.39-0.26-0.47-0.44c-0.08-0.18-0.26-0.26-0.53-0.26c-0.23,0.35-0.33,0.72-0.29,1.11
		c0.04,0.39,0.17,0.74,0.38,1.05c0.21,0.31,0.49,0.61,0.82,0.88c0.33,0.27,0.67,0.47,1.02,0.59c-0.08,0.2-0.15,0.29-0.21,0.29
		s-0.12-0.03-0.18-0.09c-0.06-0.06-0.14-0.12-0.23-0.18c-0.1-0.06-0.21-0.07-0.32-0.03c0,0.23,0.1,0.38,0.29,0.44
		c0.2,0.06,0.41,0.15,0.64,0.26c0.43-0.78,0.67-1.4,0.73-1.85c0.06-0.45-0.03-0.86-0.26-1.23c-0.23-0.37-0.59-0.77-1.06-1.2
		c-0.47-0.43-1-1.02-1.58-1.76c0.35-0.12,0.67-0.09,0.97,0.09c0.29,0.18,0.58,0.39,0.85,0.64c0.27,0.25,0.56,0.53,0.85,0.82
		c0.29,0.29,0.61,0.5,0.97,0.62c1.09,1.68,1.87,3.49,2.34,5.42c0.47,1.93,0.64,3.84,0.5,5.71c-0.14,1.87-0.55,3.66-1.23,5.36
		c-0.68,1.7-1.63,3.17-2.84,4.42c-1.21,1.25-2.69,2.19-4.42,2.81c-1.74,0.62-3.7,0.82-5.89,0.59c-0.86-0.12-1.7-0.33-2.52-0.64
		c-0.82-0.31-1.58-0.64-2.28-1c0-0.86,0.07-1.83,0.21-2.9c0.14-1.07,0.38-1.81,0.73-2.2c1.13,0.12,2.26,0.15,3.37,0.09
		c1.11-0.06,2.15-0.23,3.11-0.53c0.96-0.29,1.8-0.69,2.52-1.2c0.72-0.51,1.26-1.15,1.61-1.93c-0.2-0.31-0.27-0.6-0.23-0.85
		c0.04-0.25,0.11-0.49,0.21-0.7c0.1-0.21,0.21-0.44,0.32-0.67c0.12-0.23,0.18-0.47,0.18-0.7c0.23-2.42-0.1-4.52-1-6.3
		c-0.9-1.78-2.25-2.96-4.04-3.54c-0.86-0.04-1.63-0.02-2.31,0.06c-0.68,0.08-1.34,0.21-1.96,0.38c-0.63,0.18-1.23,0.35-1.82,0.53
		c-0.59,0.18-1.21,0.32-1.87,0.44c-0.12-1.56-0.11-3.1,0.03-4.63c0.14-1.52,0.31-3.07,0.53-4.63c0.21-1.56,0.42-3.12,0.62-4.69
		c0.19-1.56,0.29-3.16,0.29-4.8c1.64,0.08,3.15,0.02,4.54-0.18c1.39-0.19,2.69-0.36,3.92-0.5c1.23-0.14,2.4-0.2,3.52-0.2
		c1.11,0,2.18,0.21,3.19,0.64c-0.12,0.98-0.09,1.96,0.09,2.96c0.18,1,0.15,1.85-0.09,2.55c-0.86,0.2-1.76,0.29-2.69,0.29
		c-0.94,0-1.85,0.02-2.72,0.06c-0.88,0.04-1.68,0.17-2.4,0.38c-0.72,0.21-1.26,0.62-1.61,1.2c0,0.98-0.04,1.81-0.12,2.49
		c-0.08,0.68-0.12,1.38-0.12,2.08c0.59,0.12,1.23,0.21,1.93,0.26c0.7,0.06,1.36,0.17,1.96,0.32c0.6,0.16,1.14,0.39,1.61,0.7
		c0.47,0.31,0.8,0.76,1,1.35c-0.2-0.04-0.36-0.16-0.5-0.35c-0.14-0.19-0.28-0.36-0.44-0.5c-0.16-0.14-0.31-0.19-0.47-0.18
		C54.63,56.75,54.45,56.94,54.26,57.29z M45.35,52.02c-0.12,0.12-0.14,0.31-0.06,0.59c0.08,0.27,0.18,0.47,0.29,0.59
		c0.16-0.12,0.22-0.31,0.2-0.59C45.77,52.33,45.63,52.13,45.35,52.02z M58.59,78.49c-0.78,0.43-1.61,0.76-2.49,1
		c-0.88,0.23-1.76,0.45-2.64,0.64c-0.88,0.2-1.75,0.4-2.61,0.62c-0.86,0.21-1.64,0.5-2.34,0.85c1.09-0.04,2.09-0.15,2.99-0.32
		c0.9-0.18,1.74-0.4,2.52-0.67c0.78-0.27,1.54-0.59,2.28-0.94C57.05,79.31,57.81,78.92,58.59,78.49z M51.15,78.73
		c-0.23-0.23-0.44-0.29-0.61-0.18c-0.18,0.12-0.46,0.18-0.85,0.18c0,0.12,0.01,0.26,0.03,0.44c0.02,0.18,0.09,0.26,0.21,0.26
		c0-0.16,0.07-0.26,0.21-0.32c0.14-0.06,0.27-0.1,0.41-0.12c0.14-0.02,0.27-0.04,0.41-0.06C51.08,78.91,51.15,78.84,51.15,78.73z
		 M53.55,78.02c0,0.08-0.07,0.13-0.21,0.15c-0.14,0.02-0.26,0.06-0.38,0.12c-0.12,0.06-0.19,0.12-0.21,0.18
		c-0.02,0.06,0.09,0.15,0.32,0.26c0-0.12,0.06-0.21,0.18-0.26c0.12-0.06,0.22-0.12,0.32-0.18c0.1-0.06,0.16-0.1,0.18-0.12
		C53.78,78.15,53.71,78.1,53.55,78.02z M54.78,59.69c0.23,0.12,0.39,0.37,0.47,0.76c0.08,0.39,0,0.7-0.23,0.94
		c0.27,0,0.43-0.12,0.47-0.35c0.04-0.23,0.02-0.49-0.06-0.76c-0.08-0.27-0.2-0.48-0.35-0.62C54.92,59.52,54.82,59.53,54.78,59.69z
		 M55.72,61.62c-0.23,0-0.45,0.02-0.64,0.06c-0.2,0.04-0.29,0.18-0.29,0.41c0.16-0.04,0.26-0.03,0.32,0.03
		c0.06,0.06,0.11,0.14,0.15,0.23c0.04,0.1,0.08,0.19,0.12,0.26c0.04,0.08,0.16,0.08,0.35,0c0-0.39-0.06-0.6-0.18-0.62
		C55.43,61.98,55.49,61.86,55.72,61.62z M55.25,42.88c0.12,0,0.26-0.01,0.44-0.03c0.18-0.02,0.26-0.09,0.26-0.21
		c-0.12,0-0.26,0.01-0.44,0.03C55.34,42.69,55.25,42.76,55.25,42.88z M56.19,58.75h-0.47c-0.27,0.27-0.2,0.51,0.23,0.7
		c0-0.12,0.04-0.23,0.12-0.35C56.15,58.99,56.19,58.87,56.19,58.75z M55.72,61.39c0.12,0,0.2,0.08,0.23,0.23
		c0.04,0.16,0.12,0.23,0.23,0.23c0.12-0.23,0.1-0.46-0.06-0.67C55.98,60.97,55.84,61.04,55.72,61.39z M57.65,44.52
		c0,0.16,0.08,0.23,0.23,0.23c0.16,0,0.23-0.08,0.23-0.23c-0.12,0-0.2-0.06-0.23-0.18C57.85,44.22,57.77,44.28,57.65,44.52z
		 M58.12,63.56c0,0.23,0.05,0.47,0.15,0.7c0.1,0.23,0.21,0.41,0.32,0.53c0-0.27,0.01-0.58,0.03-0.91
		C58.64,63.55,58.47,63.44,58.12,63.56z M59.35,70.06c-0.39,0-0.63,0.17-0.7,0.5c-0.08,0.33,0.08,0.5,0.47,0.5
		c0-0.27,0.04-0.45,0.12-0.53C59.31,70.45,59.35,70.29,59.35,70.06z"/>
	<path d="M80.62,44.81c0.19-0.04,0.28-0.11,0.26-0.21c-0.02-0.1-0.07-0.21-0.15-0.32c-0.08-0.12-0.13-0.24-0.15-0.38
		c-0.02-0.14,0.07-0.26,0.26-0.38c0.27,0.08,0.49,0.19,0.64,0.32c0.16,0.14,0.29,0.28,0.41,0.44c0.12,0.16,0.25,0.31,0.41,0.47
		c0.16,0.16,0.37,0.25,0.64,0.29c-0.12-0.51-0.43-0.87-0.94-1.08c-0.51-0.21-0.9-0.54-1.17-0.97c0.19,0,0.37,0.03,0.53,0.09
		c0.16,0.06,0.32,0.1,0.5,0.12c0.18,0.02,0.39,0.02,0.64,0c0.25-0.02,0.58-0.09,0.97-0.21c2.11,1.13,3.81,2.8,5.1,5.01
		c1.29,2.21,2.25,4.72,2.87,7.53c0.62,2.81,0.93,5.79,0.91,8.93c-0.02,3.14-0.28,6.18-0.79,9.11c-0.16,0.66-0.2,1.26-0.15,1.79
		c0.06,0.53,0.01,1.06-0.15,1.61c-0.12,0.51-0.41,1.01-0.88,1.49c-0.47,0.49-0.86,0.95-1.17,1.38c-0.12,0.27-0.11,0.49,0.03,0.64
		c0.14,0.16,0.13,0.29-0.03,0.41c-0.78,0.98-1.9,1.76-3.37,2.34c-1.46,0.59-3,0.92-4.6,1c-1.6,0.08-3.13-0.15-4.6-0.67
		c-1.46-0.53-2.59-1.42-3.37-2.67c0.08,0.35,0.18,0.64,0.32,0.85c0.14,0.21,0.28,0.41,0.44,0.59c0.16,0.18,0.3,0.35,0.44,0.53
		c0.14,0.18,0.24,0.38,0.32,0.62c-0.43,0.08-0.8-0.06-1.11-0.41c-0.31-0.35-0.61-0.78-0.91-1.29c-0.29-0.51-0.61-1.02-0.94-1.55
		c-0.33-0.53-0.73-0.93-1.2-1.2v-1.58c-1.29-1.95-2.19-4.29-2.69-7c-0.51-2.71-0.69-5.52-0.56-8.41c0.14-2.89,0.54-5.71,1.2-8.47
		c0.66-2.75,1.52-5.14,2.58-7.18c-0.12-0.19-0.22-0.27-0.32-0.23c-0.1,0.04-0.2,0.12-0.29,0.23c-0.1,0.12-0.22,0.21-0.35,0.29
		c-0.14,0.08-0.34,0.06-0.61-0.06c0.27-0.47,0.52-0.95,0.73-1.44c0.21-0.49,0.45-0.95,0.7-1.38c0.25-0.43,0.56-0.82,0.91-1.17
		c0.35-0.35,0.8-0.59,1.35-0.7c-0.27,0.55-0.58,1.08-0.91,1.61c-0.33,0.53-0.64,1.12-0.91,1.79c0.78-0.9,1.58-1.52,2.4-1.87
		s1.76-0.86,2.81-1.52c0.47,0.12,0.87,0.31,1.2,0.59c0.33,0.27,0.63,0.56,0.91,0.85c0.27,0.29,0.55,0.58,0.82,0.85
		C79.89,44.5,80.23,44.69,80.62,44.81z M68.9,65.49h-0.53v0.53h0.53V65.49z M70.13,66.31c0,0.08,0.09,0.12,0.26,0.12
		c0.18,0,0.26-0.04,0.26-0.12c-0.12,0-0.2-0.04-0.23-0.12C70.39,66.11,70.29,66.15,70.13,66.31z M70.66,62.85
		c0,0.27-0.01,0.55-0.03,0.82c-0.02,0.27,0.17,0.35,0.56,0.23c0-0.27-0.02-0.49-0.06-0.64C71.09,63.11,70.93,62.97,70.66,62.85z
		 M71.48,66.31c-0.12-0.27-0.21-0.4-0.26-0.38c-0.06,0.02-0.08,0.09-0.06,0.21c0.02,0.12,0.06,0.23,0.12,0.32
		C71.33,66.55,71.4,66.5,71.48,66.31z M72.01,62.33c0.12-0.39,0.17-0.51,0.15-0.35c-0.02,0.16-0.07,0.35-0.15,0.59
		c-0.08,0.23-0.13,0.39-0.15,0.47C71.84,63.11,71.89,62.87,72.01,62.33z M73.3,63.91c0,0.16,0.1,0.23,0.29,0.23v-0.53
		c0-0.04-0.02-0.08-0.06-0.12c-0.08-0.08-0.16-0.12-0.23-0.12c0,0.16-0.26,0.23-0.76,0.23c0,0.27,0.02,0.51,0.06,0.7
		c0.04,0.2,0.19,0.23,0.47,0.12C73.06,64.08,73.14,63.91,73.3,63.91z M82.43,74.33c0.08-0.78-0.07-1.41-0.44-1.87
		c-0.37-0.47-0.76-0.91-1.17-1.32c-0.41-0.41-0.76-0.84-1.06-1.29c-0.29-0.45-0.34-1.04-0.15-1.79c0.59-0.08,1-0.01,1.26,0.21
		c0.25,0.21,0.47,0.48,0.64,0.79c0.18,0.31,0.33,0.64,0.47,0.97c0.14,0.33,0.38,0.56,0.73,0.67c0.66-0.04,1.1-0.28,1.32-0.73
		c0.21-0.45,0.32-1,0.32-1.64c0-0.64-0.06-1.34-0.18-2.08c-0.12-0.74-0.17-1.44-0.17-2.11c0-1.05,0.08-2.1,0.23-3.13
		c0.16-1.03,0.17-2.08,0.06-3.13c-0.2-1.29-0.49-2.55-0.88-3.78c-0.39-1.23-0.9-2.23-1.52-2.99c-0.63-0.76-1.39-1.21-2.28-1.35
		c-0.9-0.14-1.97,0.21-3.22,1.03c-0.47,1.64-0.83,3.58-1.08,5.83c-0.26,2.25-0.34,4.52-0.26,6.82c0.08,2.3,0.35,4.48,0.82,6.53
		c0.47,2.05,1.19,3.68,2.17,4.89c0.31-0.12,0.67-0.17,1.08-0.15c0.41,0.02,0.81,0.05,1.2,0.09c0.39,0.04,0.77,0.04,1.14,0
		C81.84,74.76,82.16,74.61,82.43,74.33z M75.87,81.19c0.16,0.39,0.39,0.67,0.7,0.85c0.31,0.18,0.6,0.32,0.88,0.44
		c0-0.27-0.06-0.47-0.18-0.59c-0.12-0.12-0.26-0.21-0.41-0.26c-0.16-0.06-0.33-0.12-0.53-0.18C76.15,81.39,75.99,81.31,75.87,81.19z
		 M76.4,74.33c-0.2-0.47-0.28-0.69-0.26-0.67c0.02,0.02,0.08,0.12,0.18,0.29c0.1,0.18,0.17,0.33,0.21,0.47
		C76.56,74.56,76.52,74.53,76.4,74.33z M80.85,81.95c0.19,0,0.36,0.09,0.5,0.26c0.14,0.18,0.26,0.35,0.38,0.53
		c0.12,0.18,0.23,0.3,0.35,0.38c0.12,0.08,0.23,0.02,0.35-0.18c-0.12-0.04-0.23-0.17-0.35-0.38c-0.12-0.21-0.23-0.41-0.35-0.59
		c-0.12-0.18-0.24-0.29-0.38-0.35C81.21,81.57,81.05,81.68,80.85,81.95z M84.31,45.04c0.19-0.04,0.36-0.02,0.5,0.06
		c0.14,0.08,0.25,0.17,0.35,0.26c0.1,0.1,0.18,0.17,0.23,0.21c0.06,0.04,0.11-0.04,0.15-0.23c-0.04,0-0.12-0.05-0.23-0.15
		c-0.12-0.1-0.23-0.19-0.35-0.26c-0.12-0.08-0.24-0.12-0.38-0.12C84.43,44.81,84.35,44.89,84.31,45.04z M86.59,79.55
		c-0.12,0.16-0.26,0.24-0.44,0.26c-0.17,0.02-0.44,0.03-0.79,0.03c0.04,0.12,0.02,0.23-0.06,0.35c-0.08,0.12-0.15,0.21-0.21,0.29
		s-0.08,0.16-0.06,0.23c0.02,0.08,0.13,0.14,0.32,0.18c0.04-0.12,0.15-0.24,0.32-0.38c0.18-0.14,0.35-0.26,0.53-0.38
		c0.17-0.12,0.31-0.22,0.41-0.32C86.72,79.71,86.71,79.63,86.59,79.55z M88.18,80.07c-0.39,0.31-0.82,0.51-1.29,0.59
		c-0.47,0.08-0.92,0.25-1.35,0.53c0.12,0.31,0.34,0.45,0.67,0.41c0.33-0.04,0.65-0.17,0.97-0.38c0.31-0.21,0.58-0.44,0.79-0.67
		C88.18,80.31,88.25,80.15,88.18,80.07z M87.12,48.5v-0.29c0.35-0.31,0.49-0.47,0.41-0.47c-0.08,0-0.21,0.07-0.38,0.2
		c-0.17,0.14-0.3,0.28-0.38,0.44C86.69,48.54,86.81,48.58,87.12,48.5z M90.05,58.17c0.08,0.12,0.11,0.28,0.09,0.5
		c-0.02,0.21-0.03,0.42-0.03,0.62c0,0.2,0.01,0.36,0.03,0.5c0.02,0.14,0.09,0.21,0.2,0.21c-0.08-0.27-0.09-0.51-0.03-0.7
		c0.06-0.19,0.11-0.36,0.15-0.5c0.04-0.14,0.04-0.25,0-0.35C90.42,58.33,90.28,58.25,90.05,58.17z M91.04,60.8
		c-0.23,0-0.42,0.01-0.56,0.03c-0.14,0.02-0.28,0.09-0.44,0.2c0,0.39,0.1,0.63,0.29,0.7c0.2,0.08,0.37,0.18,0.53,0.29
		c0.08-0.27,0.11-0.46,0.09-0.56C90.94,61.38,90.97,61.15,91.04,60.8z"/>
</g>
<g>
	<path d="M31.76,47.46c-0.56-0.05-1.12-0.02-1.68,0.1c-0.56,0.12-0.99,0.39-1.28,0.82c-0.16,0.05-0.33,0.13-0.5,0.22
		c-0.17,0.09-0.33,0.2-0.46,0.32c-0.13,0.12-0.23,0.25-0.3,0.4c-0.07,0.15-0.07,0.3-0.02,0.46c0.05-0.08,0.11-0.15,0.16-0.22
		c0.05-0.07,0.09-0.13,0.12-0.18c0.03-0.08,0.04-0.15,0.04-0.2c0.05,0,0.11,0.01,0.16,0.04c0.08,0.05,0.12,0.15,0.12,0.28
		c-0.16-0.03-0.31,0.01-0.46,0.12c-0.15,0.11-0.29,0.15-0.42,0.12c-0.37,0.59-0.64,1.16-0.8,1.72c-0.16,0.56-0.27,1.13-0.32,1.72
		c-0.32-0.03-0.51,0.03-0.58,0.16s-0.11,0.35-0.14,0.64c0.13,0.03,0.28-0.02,0.44-0.14c0.16-0.12,0.24-0.25,0.24-0.38
		c0,0.21,0.19,0.32,0.56,0.32c-0.08-0.08-0.11-0.13-0.1-0.16c0.01-0.03,0.04-0.06,0.08-0.1c0.04-0.04,0.07-0.07,0.1-0.1
		c0.03-0.03,0.01-0.08-0.04-0.16c-0.08,0-0.13,0.03-0.14,0.08c-0.01,0.05-0.03,0.11-0.04,0.18c-0.01,0.07-0.03,0.13-0.04,0.18
		c-0.01,0.05-0.06,0.08-0.14,0.08V53.5c0,0.11-0.11,0.13-0.32,0.08c-0.11-0.03-0.2-0.07-0.28-0.12c0.32-0.19,0.69-0.3,1.12-0.34
		c0.43-0.04,0.86-0.05,1.3-0.02c0.44,0.03,0.87,0.04,1.3,0.04c0.43,0,0.79-0.07,1.08-0.2c0.11-0.16,0.13-0.15,0.08,0.04
		c-0.03,0.08-0.07,0.16-0.12,0.24c0.59-0.19,0.87-0.17,0.84,0.04c0.03-0.13,0.05-0.21,0.08-0.22c0.03-0.01,0.12-0.01,0.28,0.02
		c0.13,0.13,0.17,0.26,0.12,0.38c-0.05,0.12-0.01,0.19,0.12,0.22c0.03-0.16,0.07-0.26,0.14-0.3c0.07-0.04,0.05-0.13-0.06-0.26
		c0.27,0.03,0.48,0.07,0.64,0.14c0.16,0.07,0.33,0.05,0.52-0.06c0.11,0.43,0.16,0.81,0.16,1.16c0,0.35-0.03,0.81-0.08,1.4
		c-0.32-0.03-0.57-0.04-0.76-0.04c-0.19,0-0.41-0.01-0.68-0.04c0.08-0.13,0.17-0.21,0.26-0.22c0.09-0.01,0.19-0.01,0.3,0.02
		c0.11,0.03,0.21,0.05,0.32,0.08c0.11,0.03,0.2,0.01,0.28-0.04c-0.85-0.37-1.46-0.43-1.8-0.16c0.05,0.05,0.11,0.09,0.16,0.12
		c0.11,0.05,0.16,0.03,0.16-0.08c-0.03,0.21-0.12,0.33-0.28,0.34c-0.16,0.01-0.35-0.01-0.56-0.06c-0.21-0.05-0.43-0.11-0.66-0.18
		c-0.23-0.07-0.42-0.07-0.58-0.02c-0.05,0-0.09-0.01-0.12-0.04c-0.08-0.03-0.12-0.12-0.12-0.28c0.08-0.05,0.17-0.07,0.26-0.04
		c0.09,0.03,0.21,0.06,0.34,0.1c0.13,0.04,0.27,0.08,0.4,0.12c0.13,0.04,0.28,0.03,0.44-0.02c-0.29-0.19-0.61-0.33-0.96-0.44
		c-0.35-0.11-0.63-0.01-0.84,0.28c-0.08,0.05-0.13,0.07-0.16,0.06c-0.03-0.01-0.06-0.04-0.1-0.08c-0.04-0.04-0.07-0.07-0.1-0.1
		c-0.03-0.03-0.08,0-0.16,0.08c0.08,0,0.16,0.01,0.24,0.04c0.19,0.05,0.28,0.15,0.28,0.28c-0.27-0.03-0.66-0.04-1.18-0.04
		c-0.52,0-0.98-0.15-1.38-0.44c0.27,0.29,0.37,0.65,0.32,1.06c-0.05,0.41-0.03,0.85,0.08,1.3c-0.03,0.19,0.05,0.31,0.24,0.36
		c0.19,0.05,0.28,0.15,0.28,0.28c0.59,0.05,1.22,0.07,1.9,0.06c0.68-0.01,1.31,0.06,1.9,0.22c0.32,0.03,0.69,0.01,1.1-0.04
		c0.41-0.05,0.93-0.05,1.54,0c-0.05,0.45-0.06,0.88-0.02,1.28c0.04,0.4-0.11,0.73-0.46,1c-0.43-0.03-0.87-0.03-1.34-0.02
		c-0.47,0.01-0.96,0.02-1.46,0.02c-0.51,0-1.01-0.03-1.52-0.08c-0.51-0.05-1.01-0.17-1.52-0.36c0.16,0.03,0.2-0.01,0.12-0.1
		c-0.08-0.09-0.12-0.06-0.12,0.1c-0.16,0.13-0.28,0.27-0.36,0.4c-0.08,0.13-0.27,0.27-0.56,0.4c0.21,1.01,0.51,1.92,0.88,2.72
		c0.37,0.8,0.83,1.51,1.36,2.12c0.37-0.27,0.87-0.23,1.48,0.12c-0.03,0.13-0.09,0.27-0.2,0.42c-0.11,0.15-0.17,0.3-0.2,0.46
		c0.05,0,0.11,0.01,0.16,0.04C29.95,66.77,30,66.86,30,67c0.05,0.08,0.07,0.13,0.04,0.16c-0.03,0.03-0.06,0.05-0.1,0.06
		c-0.04,0.01-0.07,0.03-0.08,0.04c-0.01,0.01,0.02,0.02,0.1,0.02c0.03,0,0.07-0.01,0.12-0.04c0.08-0.03,0.13-0.11,0.16-0.24
		c0.45,0.19,0.89,0.21,1.3,0.08c0.41-0.13,0.77-0.19,1.06-0.16v0.28l0.32,0.04c-0.05,0-0.11-0.01-0.16-0.04
		c-0.11-0.05-0.16-0.15-0.16-0.28c0.61-0.29,1.18-0.61,1.7-0.94c0.52-0.33,1.1-0.63,1.74-0.9c-0.08,0.91-0.15,1.68-0.2,2.32
		c-0.05,0.64-0.11,1.34-0.16,2.08c-0.16,0-0.26,0.06-0.3,0.18c-0.04,0.12-0.07,0.25-0.1,0.38c-0.03,0.13-0.07,0.26-0.14,0.38
		c-0.07,0.12-0.22,0.17-0.46,0.14c0.16-0.13,0.25-0.23,0.28-0.28c0.03-0.05,0.04-0.15,0.04-0.28c-0.13,0.13-0.22,0.27-0.26,0.42
		c-0.04,0.15-0.06,0.29-0.06,0.42c-0.16,0-0.27,0.01-0.32,0.02c-0.05,0.01-0.17,0.09-0.36,0.22c0.11,0.03,0.2,0.05,0.28,0.08
		c0.16,0.05,0.17,0.15,0.04,0.28c0-0.16-0.11-0.21-0.32-0.16c-0.21,0.05-0.4,0.08-0.56,0.08c0-0.16,0.05-0.26,0.16-0.3
		c0.11-0.04,0.17-0.13,0.2-0.26c-0.16-0.03-0.33-0.03-0.52-0.02c-0.19,0.01-0.23,0.09-0.12,0.22c-0.16,0.08-0.32,0.14-0.48,0.18
		c-0.16,0.04-0.31,0.08-0.44,0.12s-0.23,0.1-0.28,0.18c-0.05,0.08-0.05,0.2,0,0.36c-0.16-0.08-0.31-0.19-0.44-0.34
		c-0.13-0.15-0.28-0.28-0.44-0.4c-0.16-0.12-0.33-0.22-0.52-0.3c-0.19-0.08-0.4-0.09-0.64-0.04c-0.13,0-0.22,0-0.26,0
		c-0.04,0-0.13-0.01-0.26-0.04c-0.13-0.03-0.16,0.01-0.08,0.12c0.08,0.11,0.2,0.17,0.36,0.2c0.27-0.11,0.58-0.06,0.94,0.14
		c0.36,0.2,0.61,0.31,0.74,0.34c-0.61,0.24-1.15,0.25-1.62,0.04c-0.47-0.21-0.98-0.43-1.54-0.64l-0.04,0.36
		c-0.29-0.21-0.56-0.37-0.8-0.46c-0.24-0.09-0.43-0.29-0.56-0.58c0.27,0.03,0.48,0.09,0.64,0.2c0.16,0.11,0.33,0.16,0.52,0.16
		c-0.08-0.08-0.13-0.17-0.14-0.26c-0.01-0.09-0.03-0.2-0.04-0.32c-0.01-0.12-0.04-0.23-0.08-0.34c-0.04-0.11-0.14-0.2-0.3-0.28
		l-0.04,0.44l-0.04,0.44h-0.24c0.03-0.13,0.08-0.23,0.16-0.28c0.08-0.05,0.12-0.16,0.12-0.32c-0.13,0-0.31-0.06-0.54-0.18
		c-0.23-0.12-0.41-0.18-0.54-0.18c0,0.16,0.03,0.27,0.08,0.32c0.05,0.05,0.11,0.09,0.18,0.1c0.07,0.01,0.13,0.03,0.2,0.06
		c0.07,0.03,0.1,0.08,0.1,0.16c-0.61-0.05-0.88-0.37-0.8-0.96c0.13,0.03,0.25,0.08,0.36,0.16c0.11,0.08,0.17,0.05,0.2-0.08
		c0.08-0.08,0.11-0.13,0.1-0.14c-0.01-0.01-0.05-0.03-0.12-0.04c-0.07-0.01-0.13-0.03-0.18-0.04c-0.05-0.01-0.08-0.06-0.08-0.14
		c-0.13-0.19-0.22-0.34-0.26-0.46c-0.04-0.12-0.14-0.18-0.3-0.18c0.16,0.13,0.19,0.23,0.08,0.28c-0.11,0.05-0.24,0.15-0.4,0.28
		c0.16-0.13,0.21-0.23,0.14-0.3c-0.07-0.07-0.1-0.17-0.1-0.3c0.13,0.03,0.18,0.08,0.14,0.16c-0.04,0.08,0.01,0.13,0.14,0.16
		c0.03-0.13,0.01-0.24-0.06-0.32c-0.07-0.08-0.14-0.15-0.22-0.2c-0.08-0.05-0.17-0.11-0.28-0.16c-0.11-0.05-0.19-0.12-0.24-0.2
		c0,0.13,0,0.22,0,0.26c0,0.04-0.01,0.13-0.04,0.26c0.13,0.03,0.21,0.05,0.22,0.08c0.01,0.03,0.02,0.11,0.02,0.24
		c-0.53-0.48-1.01-1.03-1.42-1.66c-0.41-0.63-0.78-1.3-1.1-2.02c-0.32-0.72-0.63-1.46-0.92-2.22c-0.29-0.76-0.59-1.53-0.88-2.3
		c-0.29-0.03-0.69-0.1-1.2-0.22c-0.51-0.12-0.99-0.11-1.44,0.02c-0.13-0.08-0.31-0.11-0.54-0.1c-0.23,0.01-0.45,0.02-0.66,0.02
		c-0.21,0-0.4-0.04-0.56-0.12c-0.16-0.08-0.23-0.27-0.2-0.56c-0.13-0.32-0.15-0.66-0.06-1.02c0.09-0.36,0.17-0.71,0.22-1.06
		c0.59,0.05,1.21,0.09,1.86,0.12c0.65,0.03,1.21,0,1.66-0.08c0.29-0.13,0.49-0.38,0.58-0.74c0.09-0.36,0.22-0.66,0.38-0.9
		c-0.13-0.37-0.33-0.55-0.6-0.52c-0.27,0.03-0.63,0.01-1.08-0.04l0.04-0.28c0.13,0.08,0.3,0.12,0.5,0.12c0.2,0,0.41-0.01,0.64-0.04
		c0.23-0.03,0.45-0.05,0.66-0.08c0.21-0.03,0.4-0.04,0.56-0.04c0-0.13,0.01-0.25,0.04-0.36c0.03-0.11,0.09-0.08,0.2,0.08
		c0.03-0.29-0.02-0.48-0.14-0.56c-0.12-0.08-0.27-0.11-0.44-0.08c-0.17,0.03-0.37,0.07-0.58,0.12c-0.21,0.05-0.39,0.08-0.52,0.08
		c0,0.16,0.05,0.22,0.14,0.18c0.09-0.04,0.14,0.02,0.14,0.18c-0.13-0.19-0.33-0.29-0.58-0.3c-0.25-0.01-0.45,0.05-0.58,0.18
		c0.03,0,0.07,0.01,0.12,0.04c0.08,0.05,0.12,0.15,0.12,0.28c-0.13-0.03-0.22-0.04-0.26-0.04s-0.13,0-0.26,0l0.04-0.28
		c-0.03,0.03-0.05,0.07-0.08,0.12c-0.05,0.11-0.16,0.15-0.32,0.12l0.04-0.28c-0.03,0.27-0.03,0.47-0.02,0.6
		c0.01,0.13,0.1,0.21,0.26,0.24l-0.32-0.04c-0.13-0.13-0.16-0.22-0.08-0.26s0.12-0.13,0.12-0.26c-0.13,0.13-0.23,0.17-0.28,0.1
		c-0.05-0.07-0.15-0.11-0.28-0.14c0,0.05-0.01,0.11-0.02,0.18c-0.01,0.07-0.02,0.13-0.02,0.18v0.16c0.03-0.13,0.05-0.21,0.08-0.24
		c0.03-0.03,0.11-0.03,0.24,0l-0.04,0.28c-0.13-0.03-0.23-0.04-0.28-0.04c-0.05,0-0.16-0.01-0.32-0.04
		c-0.13,0.19-0.35,0.29-0.66,0.3c-0.31,0.01-0.69-0.01-1.14-0.06c-0.11-0.32-0.16-0.69-0.16-1.1c0-0.41-0.07-0.85-0.2-1.3
		c0.45-0.11,0.99-0.16,1.62-0.16c0.63,0,1.17-0.07,1.62-0.2l0.04-0.24c0.29,0.03,0.53,0.05,0.72,0.06c0.19,0.01,0.43,0.03,0.72,0.06
		c0.32-0.11,0.56-0.3,0.72-0.58c0.16-0.28,0.29-0.58,0.38-0.9c0.09-0.32,0.19-0.65,0.28-1c0.09-0.35,0.22-0.65,0.38-0.92
		c0.24-0.19,0.45-0.41,0.62-0.68c0.17-0.27,0.35-0.54,0.54-0.82c0.19-0.28,0.39-0.55,0.62-0.8c0.23-0.25,0.5-0.49,0.82-0.7
		c0.03-0.13,0.09-0.21,0.2-0.22c0.11-0.01,0.23-0.02,0.36-0.02c0.37-0.29,0.7-0.56,0.98-0.8c0.28-0.24,0.57-0.4,0.86-0.48
		c0.16,0,0.36-0.01,0.6-0.02c0.24-0.01,0.45-0.09,0.64-0.22c0.72-0.24,1.41-0.48,2.08-0.72c0.67-0.24,1.36-0.39,2.08-0.44
		c0.75,0.05,1.42,0.08,2.02,0.08c0.6,0,1.1,0.15,1.5,0.44c-0.21,0.45-0.29,0.92-0.24,1.38c0.05,0.47,0.05,1.01,0,1.62
		c-0.03,0.13-0.14,0.21-0.34,0.24c-0.2,0.03-0.3,0.11-0.3,0.24l-0.04,0.28c0-0.11,0.05-0.13,0.16-0.08
		c0.05,0.03,0.09,0.07,0.12,0.12c0.16-0.13,0.21-0.25,0.16-0.36c-0.03-0.05-0.07-0.11-0.12-0.16l0.32,0.24v-0.24
		c0,0.13,0.04,0.24,0.12,0.32c0.08,0.08,0.11,0.27,0.08,0.56c-0.13-0.19-0.27-0.25-0.42-0.2c-0.15,0.05-0.29-0.01-0.42-0.2
		c0.13,0.19,0.17,0.3,0.1,0.34c-0.07,0.04-0.11,0.13-0.14,0.26c-0.29-0.16-0.53-0.26-0.7-0.3c-0.17-0.04-0.41-0.07-0.7-0.1
		c-0.45-0.03-0.84,0-1.16,0.08c-0.32,0.08-0.63,0.09-0.92,0.04L31.76,47.46z M16.99,53.06c-0.11,0.08-0.16,0.25-0.16,0.52
		c0,0.11,0.03,0.23,0.08,0.36c0.11,0.16,0.2,0.2,0.28,0.12c0.03-0.03,0.04-0.07,0.04-0.12c0-0.08-0.01-0.15-0.04-0.2
		c-0.03-0.05-0.06-0.11-0.1-0.16c-0.04-0.05-0.07-0.12-0.1-0.2C16.96,53.3,16.96,53.2,16.99,53.06z M17.71,58.99
		c-0.16-0.03-0.33,0.01-0.52,0.12c-0.19,0.11-0.21,0.24-0.08,0.4c0.13,0,0.22,0,0.26,0s0.14,0.01,0.3,0.04
		c-0.13-0.16-0.16-0.26-0.08-0.3C17.67,59.21,17.71,59.12,17.71,58.99z M17.75,54.26c0.03-0.13-0.02-0.18-0.14-0.14
		c-0.12,0.04-0.25-0.02-0.38-0.18c-0.03,0.13,0.02,0.22,0.14,0.26C17.49,54.24,17.62,54.26,17.75,54.26z M24.2,46.57
		c-0.13,0-0.25,0.05-0.36,0.16c-0.11,0.11-0.17,0.23-0.2,0.36c0.13,0.03,0.23-0.02,0.28-0.14C23.97,46.83,24.06,46.71,24.2,46.57z
		 M25.36,46.69c-0.13,0-0.28,0.03-0.44,0.1c-0.16,0.07-0.29,0.15-0.38,0.24c-0.09,0.09-0.13,0.19-0.1,0.28
		c0.03,0.09,0.15,0.14,0.36,0.14c0-0.13,0.06-0.26,0.18-0.38C25.1,46.95,25.22,46.83,25.36,46.69z M26.32,50.58
		c-0.32-0.05-0.52-0.03-0.6,0.08c-0.08,0.11-0.19,0.16-0.32,0.16c0,0.05,0.05,0.09,0.14,0.1c0.09,0.01,0.19,0.01,0.3-0.02
		c0.11-0.03,0.21-0.07,0.32-0.12C26.27,50.73,26.32,50.66,26.32,50.58z M26.44,48.82c-0.16,0.13-0.31,0.21-0.46,0.24
		c-0.15,0.03-0.3,0.11-0.46,0.24c0,0.16,0.09,0.21,0.28,0.16c0.08-0.03,0.17-0.07,0.28-0.12c0.03-0.13,0.09-0.22,0.2-0.26
		C26.39,49.04,26.44,48.95,26.44,48.82z M25.72,46.97L26,47.01c0-0.13-0.05-0.23-0.16-0.28c-0.05-0.03-0.09-0.04-0.12-0.04V46.97z
		 M26.04,57.27c-0.08,0.08-0.11,0.15-0.1,0.22c0.01,0.07,0.04,0.11,0.08,0.12s0.07,0,0.1-0.04C26.14,57.53,26.12,57.43,26.04,57.27z
		 M26.08,56.71c-0.13-0.03-0.17-0.02-0.1,0.02c0.07,0.04,0.1,0.13,0.1,0.26V56.71z M25.96,55.14L26,54.9c0.05,0,0.09,0.01,0.12,0.04
		c0.05,0.05,0.08,0.13,0.08,0.24l0.04-0.24L26,54.9L25.96,55.14z M26.04,57.27c0.13,0.19,0.2,0.3,0.2,0.34
		c0,0.04-0.08,0.13-0.24,0.26c0-0.05,0.03-0.08,0.08-0.08c0.05,0,0.1,0.02,0.14,0.06c0.04,0.04,0.05,0.09,0.02,0.14
		c-0.03,0.05-0.12,0.12-0.28,0.2v0.28c0.16-0.13,0.33-0.26,0.5-0.38c0.17-0.12,0.41-0.17,0.7-0.14c-0.13-0.13-0.27-0.21-0.42-0.24
		c-0.15-0.03-0.29-0.05-0.42-0.08c0-0.05-0.01-0.11-0.04-0.16c-0.03-0.05-0.05-0.1-0.08-0.14C26.17,57.29,26.12,57.27,26.04,57.27z
		 M26.44,56.1c-0.13-0.11-0.23-0.13-0.28-0.08c-0.03,0.03-0.04,0.05-0.04,0.08c0,0.13,0.05,0.17,0.16,0.12
		C26.33,56.2,26.39,56.16,26.44,56.1z M26.56,54.66c-0.13-0.13-0.23-0.17-0.28-0.12c-0.03,0.03-0.04,0.07-0.04,0.12
		c0-0.05,0.01-0.09,0.04-0.12C26.33,54.49,26.43,54.53,26.56,54.66z M26.84,54.98c0-0.13-0.05-0.17-0.16-0.12
		c-0.05,0.03-0.09,0.05-0.12,0.08L26.84,54.98z M26.92,53.54c-0.05-0.03-0.11-0.03-0.16,0c-0.08,0.05-0.12,0.13-0.12,0.24
		c0-0.11,0.04-0.19,0.12-0.24C26.81,53.52,26.87,53.52,26.92,53.54z M27.16,69.4c0-0.13-0.04-0.23-0.12-0.3
		c-0.08-0.07-0.12-0.18-0.12-0.34c-0.16,0.16-0.16,0.27,0,0.34C27.08,69.17,27.16,69.27,27.16,69.4z M26.92,53.54
		c0.08,0,0.13-0.01,0.14-0.02s0.02-0.03,0.02-0.06c0-0.03,0.01-0.03,0.02-0.02c0.01,0.01,0.05,0.06,0.1,0.14l0.04-0.28l-0.28-0.04
		L26.92,53.54z M27.8,53.34c0-0.08-0.01-0.11-0.04-0.1c-0.03,0.01-0.06,0.03-0.1,0.06c-0.04,0.03-0.07,0.05-0.1,0.08
		c-0.03,0.03-0.04,0-0.04-0.08c-0.13,0-0.17,0.01-0.1,0.04c0.07,0.03,0.09,0.11,0.06,0.24c0-0.03,0.01-0.07,0.04-0.12
		C27.55,53.38,27.64,53.34,27.8,53.34z M28.16,53.02c0,0.13-0.07,0.23-0.2,0.28c-0.05,0.03-0.11,0.04-0.16,0.04
		c0-0.16,0.06-0.21,0.18-0.16C28.1,53.24,28.16,53.18,28.16,53.02z M28.88,44.01c-0.32,0.13-0.52,0.21-0.6,0.24
		c-0.08,0.03-0.2,0.03-0.36,0c0,0.05-0.01,0.11-0.02,0.18c-0.01,0.07-0.02,0.13-0.02,0.18v0.2c0.19-0.13,0.35-0.23,0.5-0.3
		C28.53,44.45,28.69,44.28,28.88,44.01z M27.96,70.32c0.13,0.05,0.17,0.01,0.12-0.12L28,70.04L27.96,70.32z M29.56,53.14
		c0.11,0.03,0.19,0.09,0.24,0.2c0.03,0.05,0.04,0.11,0.04,0.16c-0.13-0.03-0.23,0.01-0.28,0.1c-0.05,0.09-0.15,0.14-0.28,0.14
		l0.04-0.28c0.13,0,0.21-0.01,0.22-0.04C29.56,53.4,29.56,53.3,29.56,53.14z M30.6,59.67c-0.08,0-0.15,0.01-0.2,0.04
		c-0.13,0.08-0.2,0.17-0.2,0.28c-0.13-0.03-0.17-0.02-0.1,0.02c0.07,0.04,0.1,0.13,0.1,0.26c0.19-0.13,0.33-0.22,0.44-0.26
		c0.11-0.04,0.17-0.15,0.2-0.34H30.6z M30.56,44.45c0.03-0.16-0.02-0.21-0.14-0.16c-0.12,0.05-0.17,0-0.14-0.16
		c-0.05,0-0.09,0.03-0.1,0.08c-0.01,0.05-0.01,0.11,0.02,0.16c0.03,0.05,0.07,0.09,0.14,0.12C30.41,44.52,30.48,44.51,30.56,44.45z
		 M30.84,70.84c0.03-0.13-0.01-0.25-0.1-0.36c-0.09-0.11-0.25-0.09-0.46,0.04c-0.03,0.13,0.03,0.21,0.16,0.24
		C30.58,70.79,30.71,70.81,30.84,70.84z M30.76,53.54c0.16-0.13,0.19-0.22,0.08-0.26c-0.11-0.04-0.23-0.06-0.36-0.06
		c0,0.16,0.05,0.21,0.14,0.16C30.72,53.33,30.76,53.38,30.76,53.54z M31.72,59.75c-0.13-0.03-0.22-0.04-0.26-0.04s-0.14,0-0.3,0
		c-0.03,0.19,0.05,0.29,0.24,0.3C31.59,60.02,31.7,59.94,31.72,59.75z M31.32,53.26v0.32c0.16,0.03,0.21-0.02,0.16-0.14
		c-0.05-0.12,0-0.17,0.16-0.14L31.32,53.26z M32.21,68.56c-0.13,0-0.23-0.04-0.28-0.12c-0.05-0.08-0.16-0.13-0.32-0.16
		c0,0.13,0.05,0.23,0.16,0.28c0.11,0.05,0.15,0.15,0.12,0.28c0.45-0.13,0.69-0.21,0.72-0.22C32.63,68.6,32.5,68.58,32.21,68.56z
		 M33.09,54.02c-0.16-0.16-0.37-0.26-0.64-0.3c-0.27-0.04-0.53-0.07-0.8-0.1c-0.03,0.13,0.01,0.21,0.12,0.22
		c0.11,0.01,0.16-0.05,0.16-0.18c0,0.13,0,0.23,0,0.28c0,0.05-0.01,0.15-0.04,0.28c0.13-0.13,0.29-0.21,0.46-0.22
		C32.52,53.99,32.77,54,33.09,54.02z M33.97,68.48c0.03-0.13,0.02-0.17-0.02-0.1c-0.04,0.07-0.14,0.09-0.3,0.06
		c0,0.13,0.05,0.17,0.16,0.12C33.86,68.56,33.91,68.53,33.97,68.48z M35.45,67.96c-0.13,0.16-0.27,0.26-0.42,0.3
		c-0.15,0.04-0.31,0.13-0.5,0.26l0.32-0.08c0.19-0.05,0.28-0.01,0.28,0.12c0.13,0,0.19-0.06,0.16-0.18
		C35.26,68.26,35.32,68.12,35.45,67.96z M35.17,45.65c-0.13,0-0.23,0.05-0.28,0.16c-0.03,0.05-0.04,0.09-0.04,0.12
		c0.05,0,0.11-0.01,0.16-0.04C35.09,45.87,35.14,45.79,35.17,45.65z M35.77,68.6c0,0.13-0.07,0.21-0.22,0.24
		c-0.15,0.03-0.3,0.12-0.46,0.28c0.16-0.16,0.27-0.29,0.32-0.4C35.46,68.61,35.58,68.57,35.77,68.6z"/>
</g>
<g>
	<path class="st1" d="M9.48,33.66l-0.02-1.83C9.58,37.76,9.68,44,9.87,50.15c0.03-6.7,0.16-13.99,0.1-20.9
		c-0.02-6.91-0.23-13.43-0.81-18.61c0.13-0.2,0.26-0.76,0.38-1.56c0.01-0.1,0.03-0.2,0.04-0.31L9.62,8.7
		C9.65,8.65,9.67,8.6,9.7,8.54c0.05-0.1,0.09-0.17,0.13-0.24c0.11,0.03,0.21,0.06,0.32,0.1l0.12,0.04l0.03,0.01l0.18,0.01l0.41,0.02
		c1.11,0.03,2.19,0.07,3.15,0.1c1.92,0.04,3.34,0.04,3.42-0.02c2.7-0.14,5.43-0.24,8.2-0.33C23.77,8.29,21.88,8.34,20,8.4
		c1.88-0.06,3.77-0.12,5.67-0.17C43.15,7.7,62.14,8.17,81.76,8.92c2.56,0.09,6.14,0.22,10.29,0.37c2.07,0.08,4.28,0.16,6.58,0.24
		c1.15,0.04,2.31,0.09,3.49,0.14L103,9.7l0.19,0.01l0.06,0.01l0.24,0.02l-0.01,0.28l0,0.07l0.01,0.47l0.03,1
		c0.04,1.33,0.07,2.67,0.11,3.98c0.06,2.63,0.11,5.2,0.16,7.62c0.08,4.84,0.11,9.1,0.1,12.06c0,1.62,0,3.23,0,4.86
		c0.03-2.71,0.03-2.71,0.05-5.41c0.31,6.8,0.55,12.96,0.7,18.93c0.1-1.05,0.2-1.24,0.33-3.73l-0.05,3.05
		c0.32,2.78,0.31,9.18,0.43,12.19c-0.16-0.65-0.2,1.72-0.23,3.82l0.11-0.83c-0.04,7.95-0.09,17.17-0.12,24.27
		c-0.01,0.99-0.07,1.73-0.13,2.18l0.06,6.82c-0.22-0.53-0.2,5.66-0.33,2.4c0.24,5.11,0.12,10.27,0.32,15.12
		c-0.03,2.16-0.07,4.34-0.14,6.53c-0.09,2.2-0.07,4.41-0.69,6.16c-0.31,0.87-0.77,1.56-1.43,2c-0.65,0.46-1.55,0.7-2.54,0.79
		c-0.99,0.1-2.07,0.05-3.2,0.01c-0.55-0.02-1.19-0.03-1.74-0.03l-1.69,0.01c-9.03,0.05-18.13,0.06-27.11,0.02l0.44,0.09
		c-6.29-0.01-11.84,0.26-19.47-0.16c-5.46,0.08-13.22-0.08-15.41,0.27c-6.3-0.21-8.81-0.08-15-0.33c0.79,0.16-0.71,0.14-2.07,0.08
		c-0.18-0.01-0.35-0.02-0.52-0.03c-0.09-0.01-0.19-0.02-0.27-0.03c-0.04,0-0.1-0.01-0.17-0.03c-0.05-0.01-0.03,0-0.14-0.03
		l-0.12-0.04l-0.06-0.02l-0.03-0.01c0.01,0.01-0.14-0.07-0.21-0.12c-0.17-0.12-0.34-0.34-0.42-0.56c-0.09-0.19-0.08-0.51-0.08-0.43
		l0-0.02l0-0.05l-0.01-0.09c0-0.06-0.01-0.12-0.01-0.17c-0.01-0.1-0.02-0.19-0.02-0.26c-0.03-0.26-0.07-0.16-0.11,0.6
		c0,0.19,0.05,0.44,0.18,0.67c0.13,0.23,0.33,0.42,0.51,0.52l0.12,0.07l0.03,0.01l0.06,0.02c0.07,0.03,0.19,0.07,0.22,0.07
		l0.18,0.04l0.24,0.05c0.13,0.02,0.26,0.05,0.39,0.07c0.24,0.04,0.46,0.07,0.67,0.1c0.41,0.05,0.77,0.09,1.1,0.13
		c0.66,0.07,1.18,0.1,1.68,0.13c1.01,0.06,1.93,0.11,3.67,0.32l-0.1-0.08c16.21,1.08,32.44,1.93,48.92,2.36
		c5.5,0.05,11.22,0.1,17.01,0.15c2.87,0.02,5.75,0.05,8.63,0.07c1.37,0.04,2.92,0.19,4.64-0.01c0.86-0.1,1.78-0.3,2.7-0.72
		c0.91-0.4,1.79-1.06,2.45-1.84c1.43-1.74,1.81-3.72,2.02-5.42c0.19-1.75,0.18-3.28,0.24-4.87c0.08-3.17,0.1-6.33,0.08-9.43
		c-0.07-6.17-0.14-12.13-0.2-17.4c-0.04-2.52,0.16-4.33,0.28-6.47c-0.01-9.69,0.16-22.03,0.03-32.97c0,0.21,0,0.4-0.01,0.54
		c-0.05-5.81,0.17-10.17,0.07-15.85c-0.06,0.03-0.07-0.85-0.11-1.28c0.13-0.46-0.07-7.8-0.41-15.69
		c-0.41-8.41-0.86-17.41-0.99-20.24c-0.56-0.02-0.94-0.04-1.13-0.06c-0.88-0.02-1.8-0.03-2.73-0.05C91.26,5.49,78.89,4.63,68.6,4.48
		c-2.24,0.1-4.75,0.17-6.63,0.3c-1.82-0.15-2.17,0.08-4.36,0.02c-5.55-0.66-8.82-0.46-5.95-0.21c-4.58,0.02-9.17-0.07-13.24-0.08
		c-1.89,0.03-3.76,0.07-5.66,0.11c-1.62,0.04-2.52-0.05-3.33-0.19c-4.13,0.07-2.91-0.07-7.25-0.14c-0.52-0.1-3.24-0.02-5.98,0.08
		c-1.37,0.05-2.75,0.11-3.85,0.15c-0.56,0.02-1.04,0.03-1.43,0.05c-0.4,0.01-0.64,0.01-0.93,0.01l0.81-0.03
		C9.11,4.52,7.54,4.5,6.05,4.48C5.99,5.82,5.93,7.11,5.87,8.39c-0.06,0.85-0.11,1.69-0.17,2.53C5.6,12.54,5.5,14.2,5.5,16.09
		c-0.26,13.65,0.3,28.54,0.86,41.16c0.22,0.11-0.18-2.78,0.09-2.94c0.31,7.44,0.47,14.95,0.94,22.45c0.03,1.36,0.04,3.02,0.02,3.64
		c0.09,2.4,0.2,1.41,0.3,3.16l-0.18,0.25c0.34,2.55,0.06,3.76,0.32,6.17c0.09,0.12,0.16,1,0.22,1.86c-0.2,0.06,0.22,2.64,0.02,2.53
		l0.02,0.02c0.04,0.52,0.08,0.88,0.1,1.52c0.14,0.98,1.49,10.1,1.64,11.1l0.01,0.47c0.12,1.37,0.32,1.95,0.29,1.14l0.13,1.69
		l-0.03-0.19l0.13,1.68c0.01,0.31-0.06,0.67-0.19,0.2c0.15,0.95,0.29,2.02,0.33,2.97c-0.1-2.66-0.21-5.97-0.24-8.77
		c0.17,1.13,0.23,3.2,0.36,4.44c-0.01,1.49,0.14,4.53,0.25,6.9c0.06,0.52,0.32,0.85,0.32,2.04c-0.11,0.59,0.12,1.33,0.1,2.32
		c-0.18-1.12-0.24-2.22-0.34-3.36c-0.17,0.21,0.12,2.78,0.15,3.69c0.1,0.42,0.23,2.62,0.41,4c-0.23-0.59-0.01,1.12-0.04,1.95
		c0.06,0.93,0.19,1.52,0.22,1.14c0.22,0.28-0.22-3.72,0.1-2.44c-0.06,0.35,0.13,2.17,0.23,3.15c0.11,0,0.02-0.68,0.18-0.05
		c0.07,1.09,0.31,2.24,0.25,2.88c-0.05-0.2-0.07-0.65-0.1-0.97c0.12,1.42-1.38-7.65-1.16-5.81c0.05-0.49,1.35,8.04,1.28,7.09
		c-0.03-0.87,0.25,0.6,0.2-0.3l-0.22-0.98c-0.07-1.23,0.07-1.75,0.18-1.32c0.17,2.06-1.25-5.77-0.98-4.02l-0.01-0.72
		c0.14,0.74,0.37,2.72,0.33,3.5c0.11,0,0.23,1,0.34,1.82l0.01,0.3c0.13,0.85,0.21,2.06,0.3,1.49c-0.47-5.04,1.36,3.22,0.99-1.67
		c-0.05,2.07-0.3-0.67-0.52-2.81c0.06-0.21,0.09-1.18,0.01-2.73c-0.14-1.34-0.15-0.78-0.24-1.03c-0.01-0.75-0.1-2.17,0.04-1.99
		c-0.24-1.03-0.06-1.68-0.22-2.92c-0.16-1.1-0.06,0.08-0.2-0.7c-0.12-1.66-0.3-3.98-0.4-5.3c0.07-0.52,0.14-2.09,0.41-0.97
		c0.19,2.51-0.37-0.93-0.11,1.68c0.16-1.15,0.27,2.3,0.51,2.76c0.05-0.84-0.1-2.53-0.25-3.93l-0.01,0.29
		c-0.14-1.24-0.41-3.72-0.39-5.08c0.12,0.31,0.14-0.28,0.24,0.63l-0.13-1.71c-0.05-0.21-0.1-0.44-0.08,0.06
		c-0.14-0.8-0.17-1.61-0.17-2.24c0.07-0.19-1.16-9.07-1.07-8.8c-0.1-1.23,0.02-1.54-0.18-2.74c-0.02-0.03,0.05,0.69,0.16,1.76
		c0.12,1.07,0.28,2.49,0.43,3.87c0.31,2.75,0.63,5.31,0.54,4.5c0-1.06-1.62-13.93-1.48-14.72c-0.08-0.91-0.18-2.01-0.26-1.79
		c-0.07-1.55,0.22,0.45,0.23-0.66c-0.02-0.02-0.04,0.09-0.07-0.26l0.04-1.07c-0.32-2.39-0.38-5.92-0.75-8.42
		c0.15,0.72,0.4,1.54,0.61,3.15l-0.03,0.29c0.05,0.23,0.17,1.56,0.27,1.51c-0.04-1.54-0.15-2.85-0.36-4.46
		c0.01-0.3,0.02-0.65,0.02-0.89c-0.01,0.01-0.02,0.03-0.04,0.03c0.03-0.53,0.04-0.48,0.09-0.29c0.01,0.02,0.02,0.05,0.03,0.11
		c0.23-0.98-0.59-6.02-0.59-8.83c-0.09-0.82-0.05-0.07-0.17-1.1c-0.06-2.88-0.1-4.86-0.16-7.85c-0.17-0.95-0.22-1.02-0.3,0.14
		l-0.07-2.27c0.43,2.04,0.11-4.24,0.55-1.99c0.04-0.67,0-2.02-0.1-3.29c-0.09-0.12-0.23-0.32-0.29-1.91
		c0.02-2.22,0.02-1.69,0.03-3.54c0.09-0.44,0.16,0.23,0.24,0.15c-0.23-2.83,0.16-2.48,0.06-5.15c-0.09-1.67-0.18-4.98-0.37-5.06
		C9.18,33.45,9.32,33.44,9.48,33.66z"/>
</g>
</svg>
