<svg id="e5882105-1539-4e99-a42f-4f56f279eb1c" data-name="Laag 1" xmlns="http://www.w3.org/2000/svg" viewBox="0 0 50 50"><title>icon</title><path d="M31.39,25.8A1.6,1.6,0,0,1,33,27.39v4.79a1.6,1.6,0,0,1-1.59,1.6h-3.2v-8ZM26.6,35.38h4.79a3.09,3.09,0,0,0,2.24-.93,3,3,0,0,0,.95-2.27V27.39a3.09,3.09,0,0,0-.93-2.24,3,3,0,0,0-2.26-.95H26.6ZM21.81,25.8a1.56,1.56,0,0,1,1.12.47,1.58,1.58,0,0,1,0,2.25,1.56,1.56,0,0,1-1.12.47h-3.2V25.8ZM17,35.38h1.59V30.59h3.2a3.09,3.09,0,0,0,2.24-.93A3,3,0,0,0,25,27.39a3.14,3.14,0,0,0-3.19-3.19H17V35.38ZM37.77,29V25.8h6.39V24.2h-8V35.38h1.6V30.59h4.79V29ZM17,21H44.16a3.12,3.12,0,0,1,2.24.92,3.06,3.06,0,0,1,1,2.27V35.38a3.12,3.12,0,0,1-.92,2.24,3.07,3.07,0,0,1-2.27,1H17a3.14,3.14,0,0,1-2.25-.92,3.06,3.06,0,0,1-.94-2.27V24.2A3.08,3.08,0,0,1,14.75,22,3,3,0,0,1,17,21ZM21.81,5.84l7.48,8.78H23.4a1.52,1.52,0,0,1-1.12-.47A1.56,1.56,0,0,1,21.81,13Zm8,34.32v3.2a1.53,1.53,0,0,1-.48,1.12,1.5,1.5,0,0,1-1.12.47H4.25a1.5,1.5,0,0,1-1.12-.47,1.53,1.53,0,0,1-.48-1.12V6.64a1.53,1.53,0,0,1,.48-1.12,1.5,1.5,0,0,1,1.12-.47h16v8a3.14,3.14,0,0,0,3.19,3.19h6.39v3.19H17a4.78,4.78,0,0,0-4.79,4.79V35.38A4.76,4.76,0,0,0,17,40.16Zm1.6-20.75V14.62L21.81,3.45H4.25A3.09,3.09,0,0,0,2,4.4a3.06,3.06,0,0,0-.94,2.24V43.36A3.08,3.08,0,0,0,2,45.6a3,3,0,0,0,2.27.95H28.19a3.16,3.16,0,0,0,3.2-3.19v-3.2H44.16a4.75,4.75,0,0,0,4.78-4.78V24.2a4.76,4.76,0,0,0-4.78-4.79Z"/></svg>