<svg id="abd465b0-c747-46f6-beda-a30982e84728" data-name="Laag 1" xmlns="http://www.w3.org/2000/svg" viewBox="0 0 167 38"><defs><style>.a4007cec-b79f-403f-aaf6-0cbfe3b90f78{fill:#accea5;}</style></defs><title>icon</title><path class="a4007cec-b79f-403f-aaf6-0cbfe3b90f78" d="M31.53,31.43C24,32.64,5.6,32.49,2,27.46c-1.11-4,8.54-2.71,12.66-5.52,2-1.37,3.32-3.55,5.25-5,2.93-2.26,6.86-2.64,10.56-2.93l26.91-2.13A23.1,23.1,0,0,0,64,10.64c3-1.17,5.32-3.5,7.86-5.45s5.65-3.61,8.81-3.07C87.31,3.25,89.53,12.81,96,14.48c3.6.92,7.48-.93,11.08,0s6.37,4.61,10.15,5.12c2.14.28,4.26-.5,6.38-.86a16.62,16.62,0,0,1,10.08,1.45,14.92,14.92,0,0,0,3.46,1.5c1.58.32,3.21-.13,4.81-.31,7.48-.82,14.22,4.14,20.09,8.83-1.13,2.6-4.64,2.89-7.48,2.79-46.41-1.63-90.85-.34-137.27-2"/></svg>