<svg id="bfc49822-d4cb-40f1-81cd-f964895528fa" data-name="Laag 1" xmlns="http://www.w3.org/2000/svg" viewBox="0 0 352 33"><defs><style>.eab934f3-7171-47a3-9662-272aafc731b5{fill:#accea5;}</style></defs><title>icon</title><path class="eab934f3-7171-47a3-9662-272aafc731b5" d="M12.14,13.08c-.37,0-5.56-1.36-5.56,2.6S69,26.31,111.87,26.31s69.82-2.6,100.47-1,107.89-1.86,118-.62,19.77.86,18.91-3.46-7.54-8.4-13.22-7.54-7.17,5.14-13.47,2.82-8.9-4.26-16.94-3.66-9.51,2.94-13.34,2.94-5.07-.37-12.36-6.3A18.65,18.65,0,0,0,259.3,6.9C253.49,9.62,253.12,12,243.24,12s-16.69-9-25.71-9-21.26.37-33.12,6.67-16.56,3.09-16.56,3.09A25.85,25.85,0,0,0,159.2,11c-4.45,0-7.79,2.47-9.52,3.65s-11,1.79-15.69-1.3-8.77-3.95-11.25-2.84-8,6.55-15.32,6.55-17.92-13-21-13.35S76.9.72,70.1,7.52,12.14,13.08,12.14,13.08Z"/></svg>