<svg id="f39c17e6-a36c-438e-80db-cfa63c544043" data-name="Laag 1" xmlns="http://www.w3.org/2000/svg" viewBox="0 0 50 50"><defs><style>.a5b828d6-5b1a-495a-92e0-a6ef796a1c2e{fill:#f3a055;}.acf5c0f3-a1ea-448e-93c5-6c6ee7306774{fill:#ffd68b;}.b6787aff-39da-427d-995a-0a0beb8c77fa{fill:#ffd563;}</style></defs><title>icon</title><path class="a5b828d6-5b1a-495a-92e0-a6ef796a1c2e" d="M7.56,21.69l1.91-5.22A7.63,7.63,0,0,0,9.91,15a4.11,4.11,0,0,0-1.24-3.62,2.7,2.7,0,0,0-1-.61,3,3,0,0,0-2.41.47,6.86,6.86,0,0,0-2.95,4.12A14.26,14.26,0,0,0,2,17.06l-.22,1.5c-.16,1.13-.24,2.28-.39,3.42A50.19,50.19,0,0,0,1,30a1.62,1.62,0,0,0,.26,1,1.57,1.57,0,0,0,.69.42l9.29,3.79a4.27,4.27,0,0,0-.19-3.35,52.74,52.74,0,0,0-3.29-7.27c-1-1.9-2.17-4.88-3.88-6.25-1.42-1.13-2-.14-2.22,1.16"/><path class="acf5c0f3-a1ea-448e-93c5-6c6ee7306774" d="M31,30.61A116.7,116.7,0,0,0,24.39,17a19.13,19.13,0,0,0-3.7-5.33c-3.56-3.26-9.23-3.38-13.59-1.3a7.17,7.17,0,0,0-2.58,1.89,6.4,6.4,0,0,0-.86,5.4,30.36,30.36,0,0,0,2.13,5.23c1.07,2.41,1.85,4.93,2.89,7.34a22.92,22.92,0,0,0,1.93,3.67c.87,1.3,1.16,1.36,2.59.92C19.07,33,24.83,31.05,31,30.61Z"/><path class="a5b828d6-5b1a-495a-92e0-a6ef796a1c2e" d="M25.4,28.19,27.32,23a7.54,7.54,0,0,0,.44-1.47,4.17,4.17,0,0,0-1.24-3.63,2.76,2.76,0,0,0-1-.6,3,3,0,0,0-2.41.46,6.84,6.84,0,0,0-2.95,4.13,16.11,16.11,0,0,0-.32,1.71l-.21,1.49c-.17,1.14-.24,2.28-.39,3.42a51.5,51.5,0,0,0-.39,8,1.67,1.67,0,0,0,.27,1,1.6,1.6,0,0,0,.68.42l9.3,3.79a4.33,4.33,0,0,0-.19-3.34,52.2,52.2,0,0,0-3.29-7.27c-1-1.91-2.17-4.89-3.89-6.26-1.41-1.13-2-.14-2.21,1.17"/><path class="b6787aff-39da-427d-995a-0a0beb8c77fa" d="M48.85,37.11a118.28,118.28,0,0,0-6.61-13.59,19.65,19.65,0,0,0-3.7-5.33C35,14.93,29.31,14.81,25,16.89a7.2,7.2,0,0,0-2.59,1.9,6.43,6.43,0,0,0-.85,5.4,31.83,31.83,0,0,0,2.12,5.23c1.07,2.4,1.86,4.92,2.9,7.34a23.35,23.35,0,0,0,1.93,3.67c.87,1.3,1.15,1.35,2.59.91C36.92,39.54,42.67,37.55,48.85,37.11Z"/></svg>