<svg id="fe509074-ca79-48d0-af95-af71661b2972" data-name="Laag 1" xmlns="http://www.w3.org/2000/svg" viewBox="0 0 50 50"><defs><style>.fd5e0260-c5ea-4ba4-9d50-9e84e85a80fa{fill:#a4d0a3;}.b43120c4-feb2-4038-aa8d-71f1c77d5319{fill:#89a594;}</style></defs><title>icon</title><path class="fd5e0260-c5ea-4ba4-9d50-9e84e85a80fa" d="M12.65,34.22c-1.5-1.23-2-3.35-1.91-5.29s.54-3.85.54-5.79c0-2.83-1-5.82.22-8.37,1-2.12,3.43-3.41,4.21-5.64.29-.82.33-1.72.59-2.55,1-3.08,5.1-4.48,8-3A7.19,7.19,0,0,1,27.35,12a6.48,6.48,0,0,1,7.22,9.42c-.34.62-.8,1.31-.55,2s.75.77,1.22,1.05c6.21,3.72,1.35,11.84-4.36,12.49-2.75.32-5.27-1.16-8-1.48C19.73,35,15.34,36.43,12.65,34.22Z"/><path class="b43120c4-feb2-4038-aa8d-71f1c77d5319" d="M22.68,21.78c-.18,2.35-.15,4.71-.37,7-.21,2.16-.64,4.28-.81,6.44-.21,2.51-.07,5-.07,7.56a22.38,22.38,0,0,0,.32,5.11A3.12,3.12,0,0,0,23.2,50.2a85.48,85.48,0,0,1-.72-21.68A36.37,36.37,0,0,1,23,24.47c.34-1.88,1-3.89.81-5.82-.09-.93-.52-1.06-.71,0A30.58,30.58,0,0,0,22.68,21.78Z"/><path class="b43120c4-feb2-4038-aa8d-71f1c77d5319" d="M20.37,18.52a.67.67,0,0,0,.16.84,2,2,0,0,0,.84.4,1.62,1.62,0,0,1,.79.48c.14.19.2.44.32.64a.51.51,0,0,0,.6.29C24.16,20.71,21,18.58,20.37,18.52Z"/><path class="b43120c4-feb2-4038-aa8d-71f1c77d5319" d="M28.77,24.5c.26-.11.64-.17.76.09s-.1.45-.31.57a7.18,7.18,0,0,1-2,.54c-1.5.38-2.7,1.5-4.09,2.2-.64.32-1.14-.13-.66-.63a8.32,8.32,0,0,1,1.91-.87Q26.57,25.38,28.77,24.5Z"/><path class="b43120c4-feb2-4038-aa8d-71f1c77d5319" d="M20.13,29.46a6.48,6.48,0,0,0-3.15.11c-.07.08.08.18.19.19,1.34.14,2.74-.17,4,.27.35.12.68.35,1,.46A4.41,4.41,0,0,0,20.13,29.46Z"/></svg>