<svg id="e39eb181-7707-4d34-9dc3-a1ae6d5ce12c" data-name="Laag 1" xmlns="http://www.w3.org/2000/svg" viewBox="0 0 50 50"><title>icon</title><path d="M3.05,15H48c1,0,1.54-.34,1.74-1A8.74,8.74,0,0,0,50,11.45,8.42,8.42,0,0,0,49.69,9c-.2-.69-.78-1-1.74-1H3.05c-1,0-1.54.34-1.74,1A8.42,8.42,0,0,0,1,11.45,8.74,8.74,0,0,0,1.31,14C1.51,14.67,2.09,15,3.05,15ZM48,36H3.05c-1,0-1.54.34-1.74,1a9.92,9.92,0,0,0,0,4.92c.2.69.78,1,1.74,1H48c1,0,1.54-.34,1.74-1a9.92,9.92,0,0,0,0-4.92C49.49,36.36,48.91,36,48,36Zm0-14H3.05c-1,0-1.54.34-1.74,1A8.42,8.42,0,0,0,1,25.48a8.42,8.42,0,0,0,.31,2.46c.2.69.78,1,1.74,1H48c1,0,1.54-.34,1.74-1A8.42,8.42,0,0,0,50,25.48,8.42,8.42,0,0,0,49.69,23C49.49,22.33,48.91,22,48,22Z"/></svg>