<svg xmlns="http://www.w3.org/2000/svg" viewBox="11 18 28 28"><defs><style>.b32262e0-ac58-4f1f-bf37-1f4b313c9857{fill:#af5f49;}.f448e2f4-d9de-4afc-bab5-c741dbed4635{fill:#954532;}.aca649b3-533d-424b-8671-fb6a2b6d08c0{fill:#daa15e;}.b9c9dd4f-d39b-442f-979f-c0b634311932{fill:#004339;}.a54c7197-85c2-4d43-8144-fa8b866a58ce{fill:#fff;}.af38d087-5c9b-4a38-8635-9980f3879ba4{fill:#80423f;}</style></defs><title>icon</title><path class="b32262e0-ac58-4f1f-bf37-1f4b313c9857" d="M4.18,23.47C3.29,25.7,1.54,27.54.79,29.82a12,12,0,0,0,2,.18,33.54,33.54,0,0,0-.45,6.17A41.81,41.81,0,0,0,8,36.32c2.27.09,4.53.69,6.79.42H28.92a32.09,32.09,0,0,0,.08-5c0-.15,0-.3,0-.45s0-.09,0-.12a.18.18,0,0,0-.09,0,7.37,7.37,0,0,0-1.38-.29h-7.4l.44-2.67a.18.18,0,0,1-.2.15.47.47,0,0,1-.24-.15c-.84-.8-1.19-2.08-2.18-2.68a4.5,4.5,0,0,0-2.39-.42,49.8,49.8,0,0,1-7.22-.53,2.34,2.34,0,0,1-.78-.23c-.14-.08-.27-.2-.41-.29a1.89,1.89,0,0,0-.77-.25,5.52,5.52,0,0,0-1.15-.08c-.35,0-.8,0-.9-.36C4.17,23.43,4.23,23.33,4.18,23.47Z"/><path class="f448e2f4-d9de-4afc-bab5-c741dbed4635" d="M27.37,36l7,.2a17.61,17.61,0,0,0,1.78,0c.64,0,1.28-.14,1.91-.23,3.46-.46,7-.38,10.46-.72l-.13-3.16c-4,0-8,.13-11.94.33A7.12,7.12,0,0,0,35,30a2,2,0,0,0-.6-.48,2.19,2.19,0,0,0-1-.08l-7.11.67a1.75,1.75,0,0,0-.57.12c-.61.26-.74,1-.79,1.7a2.66,2.66,0,0,0,.36,1.91"/><path class="aca649b3-533d-424b-8671-fb6a2b6d08c0" d="M34.39,30.14a1,1,0,0,1,.5.1.9.9,0,0,1,.32.35c.37.6.62,1.88,1.28,2.11a5.55,5.55,0,0,0,1.08,0c3.89,0,7.54-.44,11.43-.4a2.75,2.75,0,0,0-1.55-1.11A31.46,31.46,0,0,1,44,29.59c-1.52-.85-3-1.82-4.42-2.79L32.4,22a6,6,0,0,1-1.87,1.58,64.47,64.47,0,0,0-7.41,5.52,13.52,13.52,0,0,0,2.49,1.39,7.29,7.29,0,0,0,4.14.05A24,24,0,0,1,34.39,30.14Z"/><path class="b9c9dd4f-d39b-442f-979f-c0b634311932" d="M21.08,36.63h1.31c0-.59,0-1.72,0-1.87a8.5,8.5,0,0,0-.27-2.31c-.18-.46-.79-.34-1,.08A3,3,0,0,0,21,34.18C21.05,35,21.07,35.81,21.08,36.63Z"/><path class="b9c9dd4f-d39b-442f-979f-c0b634311932" d="M34,31.33a.09.09,0,0,1,.07,0,.13.13,0,0,1,0,.09L34,36.2,31,36a7.5,7.5,0,0,0,.33-1.81,8.89,8.89,0,0,0-.09-1.93c0-.16-.24-.74-.15-.86s.71,0,.87,0Z"/><path class="b9c9dd4f-d39b-442f-979f-c0b634311932" d="M38.53,32.91a10.88,10.88,0,0,0-.06,1.14s0,.07,0,.09.06,0,.1,0h.55l0-1.21h-.53"/><path class="b9c9dd4f-d39b-442f-979f-c0b634311932" d="M41.26,32.83A10.74,10.74,0,0,0,41.2,34a.11.11,0,0,0,0,.08s.06,0,.1,0h.55l0-1.21h-.53"/><path class="b9c9dd4f-d39b-442f-979f-c0b634311932" d="M44,32.9A7.26,7.26,0,0,0,43.89,34a.11.11,0,0,0,0,.08.15.15,0,0,0,.11,0h.54l0-1.21h-.52"/><path class="b9c9dd4f-d39b-442f-979f-c0b634311932" d="M4.84,36.26H5.93c.2,0,.4.07.6.07l-.07-4.44a21.86,21.86,0,0,0-2.56,0c0,.92,0,1.85,0,2.77A10.11,10.11,0,0,0,4.06,36c0,.15,0,.24.2.26Z"/><path class="a54c7197-85c2-4d43-8144-fa8b866a58ce" d="M3.3,25.78c-.16.22-.33.58-.47.81a1.81,1.81,0,0,0-.37.66c1.36.27,2.8,0,4.13.44a7.17,7.17,0,0,0-.94-2.53,5.69,5.69,0,0,1-.58-1.05,1.88,1.88,0,0,0-.16-.39.44.44,0,0,0-.47-.11c-.18.07-.43.8-.51,1A4.85,4.85,0,0,1,3.3,25.78Z"/><path class="af38d087-5c9b-4a38-8635-9980f3879ba4" d="M12.24,31.57a1.08,1.08,0,0,1-.43-.07,1.28,1.28,0,0,1-.37-.29,13.55,13.55,0,0,0-3-2.23,6.45,6.45,0,0,1-2.16-1.5,5,5,0,0,1-.57-1l-1.37-3a23.48,23.48,0,0,1,5.3.15c1.57.22,3.12.6,4.7.74s3.19.06,4.78.17a1.46,1.46,0,0,1,.59.14A1.52,1.52,0,0,1,20,25a18.59,18.59,0,0,1,1.54,2.28,2,2,0,0,0,.39.53,1.9,1.9,0,0,0,.6.31c1.23.48,2.45,1,3.64,1.58a4.58,4.58,0,0,1,2.39,1.74,46.62,46.62,0,0,1-6.37.29c-2.15.05-4.29.05-6.44,0C14.59,31.66,13.42,31.62,12.24,31.57Z"/></svg>
