<svg id="fe9fd6b2-9e40-4a01-a2c7-5c17ecbc5ebc" data-name="Laag 1" xmlns="http://www.w3.org/2000/svg" viewBox="0 0 50 50"><defs><style>.be496602-ca82-4204-9528-8cf7f95beed7{fill:#a4d0a3;}.b199c4e5-2b9c-4d82-b110-8204bcdadf00{fill:#89a594;}</style></defs><title>icon</title><path class="be496602-ca82-4204-9528-8cf7f95beed7" d="M21.7,20.91c-.23,2.55-2.67,4.63-2.48,7.18.16,2.23,2.33,3.82,4.48,4.42a8.65,8.65,0,0,0,5.79-.27A6,6,0,0,0,33,27.82c.48-3.33-2.36-6.4-2.14-9.77.13-2,1.31-3.86,1-5.8-.22-1.2-1-2.29-1-3.51S32,6.29,32.12,5a3.76,3.76,0,0,0-1.8-3.27A11,11,0,0,0,26.68.33,5.51,5.51,0,0,0,23.35.22a4.08,4.08,0,0,0-2.14,2.55C20,6.23,22.4,8.22,22.48,11.38c0,1.35-.77,2.67-1,4C21.16,17.27,21.86,19,21.7,20.91Z"/><path class="b199c4e5-2b9c-4d82-b110-8204bcdadf00" d="M28.17,16.75c-.57-.09-.88.64-1,1.21l-.48,2.69c-1.42,8-2.85,16-2.87,24.09a6.7,6.7,0,0,0,1,4.26,6.73,6.73,0,0,0,.93-3.19c.48-4.52.08-9.09.15-13.65a65.7,65.7,0,0,1,1-10.47c.23-1.32.49-2.78-.2-3.94"/></svg>