<svg id="ac210c63-2898-4397-b185-881a493f7b89" data-name="Laag 1" xmlns="http://www.w3.org/2000/svg" viewBox="0 0 50 50"><defs><style>.bdcca3dc-0755-4d0b-87af-94272c9f936e{fill:#e0a05a;}.ec7d2ee7-c745-4741-8415-4a744c888ffa{fill:#f9d68f;}</style></defs><title>icon</title><path class="bdcca3dc-0755-4d0b-87af-94272c9f936e" d="M11.25,27.53l3.08-8.4A13,13,0,0,0,15,16.75a6.65,6.65,0,0,0-2-5.83,4.41,4.41,0,0,0-1.58-1,4.88,4.88,0,0,0-3.88.75,11,11,0,0,0-4.75,6.64,25.77,25.77,0,0,0-.51,2.76L2,22.49c-.27,1.83-.39,3.68-.63,5.51A81.13,81.13,0,0,0,.73,40.94a2.66,2.66,0,0,0,.42,1.63,2.59,2.59,0,0,0,1.11.68l15,6.1c.84-1.65.31-3.64-.31-5.39a84.23,84.23,0,0,0-5.3-11.7C10,29.2,8.12,24.39,5.37,22.19,3.09,20.37,2.21,22,1.8,24.06"/><path class="ec7d2ee7-c745-4741-8415-4a744c888ffa" d="M49,41.9C46.09,34.32,42.21,27.15,38.35,20c-1.66-3.08-3.37-6.22-6-8.58C26.65,6.19,17.53,6,10.51,9.34a11.38,11.38,0,0,0-4.16,3.05C4.47,14.78,4.27,18.13,5,21.08s2.18,5.65,3.41,8.43c1.73,3.87,3,7.93,4.67,11.82a36.45,36.45,0,0,0,3.1,5.9c1.4,2.1,1.86,2.19,4.18,1.48C29.79,45.81,39.05,42.61,49,41.9Z"/></svg>