<svg id="bc34d4dc-bbc2-4bda-80dc-fc3aacff9d0d" data-name="Laag 1" xmlns="http://www.w3.org/2000/svg" xmlns:xlink="http://www.w3.org/1999/xlink" viewBox="0 0 50 50"><defs><style>.bc307d56-32f4-4345-844e-b76993c2c524{fill:#ffb53e;}.ac62e68e-0a19-42da-8998-824f36804e21{fill:none;}.b2738e8b-9f55-4397-9ad0-f23edb0fa2cb{clip-path:url(#bcde2ed3-50a1-40f3-a7d0-f85326a62026);}.bab42b8c-5b33-430b-8b7c-4f08fe76657e{clip-path:url(#fde83673-bf3a-47fa-8599-05f3f853a048);}.e02c861b-ec50-4f31-9f68-355e8befd0bb{fill:#ffbe3e;}.e413c134-b2bd-4e5d-85bd-a0746d3c66b9{fill:#ffc955;}.bf577d81-871b-4084-ab66-fc4ef36a5cf4{fill:#ffca71;}</style><clipPath id="bcde2ed3-50a1-40f3-a7d0-f85326a62026"><path class="bc307d56-32f4-4345-844e-b76993c2c524" d="M25.11,40.93c-.59,0-1.19,0-1.79,0-1.4-.08-2.8-.18-4.19-.31-.71-.06-1.43-.15-2.13-.28s-1.55-.3-2.32-.5c-1.17-.3-2.35-.61-3.5-1a16.48,16.48,0,0,1-3.76-1.75c-.67-.44-1.35-.84-2-1.32a13.48,13.48,0,0,1-2.62-2.66,12.63,12.63,0,0,1-1.76-3.25A14.33,14.33,0,0,1,.7,28.39c0-.2-.15-.39-.18-.59-.06-.49-.1-1-.14-1.48a14.17,14.17,0,0,1-.1-1.72,23.63,23.63,0,0,1,.28-3.15,13.11,13.11,0,0,1,1.72-4.71,11.31,11.31,0,0,1,2.8-3,15,15,0,0,1,3.68-2.06c1.06-.42,2.15-.74,3.24-1.07.72-.22,1.46-.4,2.2-.55s1.65-.29,2.47-.41c1.11-.16,2.21-.31,3.32-.43.73-.08,1.46-.13,2.18-.15,1.34,0,2.68-.09,4-.06,1.72,0,3.46.06,5.18.21a42.84,42.84,0,0,1,4.34.64,24.25,24.25,0,0,1,4.79,1.44,27.92,27.92,0,0,1,2.77,1.43,11.48,11.48,0,0,1,2.91,2.33A12.61,12.61,0,0,1,48.24,18a13.46,13.46,0,0,1,1.12,3.29,15.78,15.78,0,0,1,.3,4.8,26.34,26.34,0,0,1-.35,2.67A11.52,11.52,0,0,1,47.37,33,13.44,13.44,0,0,1,44.49,36a15.23,15.23,0,0,1-3.32,2c-.9.38-1.79.79-2.71,1.11s-1.87.53-2.81.77a21,21,0,0,1-2.2.46c-1.33.19-2.67.34-4,.46s-2.88.18-4.32.27Z"/></clipPath><clipPath id="fde83673-bf3a-47fa-8599-05f3f853a048"><path class="ac62e68e-0a19-42da-8998-824f36804e21" d="M25.11,40.93c-.59,0-1.19,0-1.79,0-1.4-.08-2.8-.18-4.19-.31-.71-.06-1.43-.15-2.13-.28s-1.55-.3-2.32-.5c-1.17-.3-2.35-.61-3.5-1a16.48,16.48,0,0,1-3.76-1.75c-.67-.44-1.35-.84-2-1.32a13.48,13.48,0,0,1-2.62-2.66,12.63,12.63,0,0,1-1.76-3.25A14.33,14.33,0,0,1,.7,28.39c0-.2-.15-.39-.18-.59-.06-.49-.1-1-.14-1.48a14.17,14.17,0,0,1-.1-1.72,23.63,23.63,0,0,1,.28-3.15,13.11,13.11,0,0,1,1.72-4.71,11.31,11.31,0,0,1,2.8-3,15,15,0,0,1,3.68-2.06c1.06-.42,2.15-.74,3.24-1.07.72-.22,1.46-.4,2.2-.55s1.65-.29,2.47-.41c1.11-.16,2.21-.31,3.32-.43.73-.08,1.46-.13,2.18-.15,1.34,0,2.68-.09,4-.06,1.72,0,3.46.06,5.18.21a42.84,42.84,0,0,1,4.34.64,24.25,24.25,0,0,1,4.79,1.44,27.92,27.92,0,0,1,2.77,1.43,11.48,11.48,0,0,1,2.91,2.33A12.61,12.61,0,0,1,48.24,18a13.46,13.46,0,0,1,1.12,3.29,15.78,15.78,0,0,1,.3,4.8,26.34,26.34,0,0,1-.35,2.67A11.52,11.52,0,0,1,47.37,33,13.44,13.44,0,0,1,44.49,36a15.23,15.23,0,0,1-3.32,2c-.9.38-1.79.79-2.71,1.11s-1.87.53-2.81.77a21,21,0,0,1-2.2.46c-1.33.19-2.67.34-4,.46s-2.88.18-4.32.27Z"/></clipPath></defs><title>icon</title><path class="bc307d56-32f4-4345-844e-b76993c2c524" d="M25.11,40.93c-.59,0-1.19,0-1.79,0-1.4-.08-2.8-.18-4.19-.31-.71-.06-1.43-.15-2.13-.28s-1.55-.3-2.32-.5c-1.17-.3-2.35-.61-3.5-1a16.48,16.48,0,0,1-3.76-1.75c-.67-.44-1.35-.84-2-1.32a13.48,13.48,0,0,1-2.62-2.66,12.63,12.63,0,0,1-1.76-3.25A14.33,14.33,0,0,1,.7,28.39c0-.2-.15-.39-.18-.59-.06-.49-.1-1-.14-1.48a14.17,14.17,0,0,1-.1-1.72,23.63,23.63,0,0,1,.28-3.15,13.11,13.11,0,0,1,1.72-4.71,11.31,11.31,0,0,1,2.8-3,15,15,0,0,1,3.68-2.06c1.06-.42,2.15-.74,3.24-1.07.72-.22,1.46-.4,2.2-.55s1.65-.29,2.47-.41c1.11-.16,2.21-.31,3.32-.43.73-.08,1.46-.13,2.18-.15,1.34,0,2.68-.09,4-.06,1.72,0,3.46.06,5.18.21a42.84,42.84,0,0,1,4.34.64,24.25,24.25,0,0,1,4.79,1.44,27.92,27.92,0,0,1,2.77,1.43,11.48,11.48,0,0,1,2.91,2.33A12.61,12.61,0,0,1,48.24,18a13.46,13.46,0,0,1,1.12,3.29,15.78,15.78,0,0,1,.3,4.8,26.34,26.34,0,0,1-.35,2.67A11.52,11.52,0,0,1,47.37,33,13.44,13.44,0,0,1,44.49,36a15.23,15.23,0,0,1-3.32,2c-.9.38-1.79.79-2.71,1.11s-1.87.53-2.81.77a21,21,0,0,1-2.2.46c-1.33.19-2.67.34-4,.46s-2.88.18-4.32.27Z"/><g class="b2738e8b-9f55-4397-9ad0-f23edb0fa2cb"><path class="bc307d56-32f4-4345-844e-b76993c2c524" d="M6.78,13.34a10,10,0,0,0-4.34,2.77,8.3,8.3,0,0,0-1.28,5.36,4.72,4.72,0,0,0,.35,1.9,4.61,4.61,0,0,0,2.28,2,25,25,0,0,0,7,2C20.67,29,31,29.08,40.49,26.06a13.82,13.82,0,0,0,5.86-3.13,5.83,5.83,0,0,0,1.54-6.14,7.14,7.14,0,0,0-3.41-3.23c-4.78-2.54-10.4-2.78-15.81-3C21.05,10.39,13,10.3,6.32,13.92"/><path class="bc307d56-32f4-4345-844e-b76993c2c524" d="M9.59,11.33a7.84,7.84,0,0,0-3.4,2.17,6.47,6.47,0,0,0-1,4.19,4,4,0,0,0,.27,1.5,3.61,3.61,0,0,0,1.79,1.56,19.61,19.61,0,0,0,5.49,1.55c7.73,1.29,15.79,1.35,23.25-1a10.89,10.89,0,0,0,4.59-2.46,4.56,4.56,0,0,0,1.2-4.8,5.57,5.57,0,0,0-2.67-2.53c-3.74-2-8.14-2.18-12.38-2.31C20.76,9,14.48,9,9.23,11.78"/><path class="bc307d56-32f4-4345-844e-b76993c2c524" d="M13.76,10.17a5.69,5.69,0,0,0-2.45,1.57,4.68,4.68,0,0,0-.73,3,2.63,2.63,0,0,0,.2,1.08A2.55,2.55,0,0,0,12.07,17a14.3,14.3,0,0,0,4,1.13,36.35,36.35,0,0,0,16.82-.73,8,8,0,0,0,3.31-1.78,3.33,3.33,0,0,0,.88-3.48,4.06,4.06,0,0,0-1.94-1.83c-2.7-1.44-5.89-1.58-8.95-1.67-4.32-.13-8.86-.17-12.67,1.88"/></g><g class="bab42b8c-5b33-430b-8b7c-4f08fe76657e"><path class="e02c861b-ec50-4f31-9f68-355e8befd0bb" d="M6.78,13.34a10,10,0,0,0-4.34,2.77,8.3,8.3,0,0,0-1.28,5.36,4.72,4.72,0,0,0,.35,1.9,4.61,4.61,0,0,0,2.28,2,25,25,0,0,0,7,2C20.67,29,31,29.08,40.49,26.06a13.82,13.82,0,0,0,5.86-3.13,5.83,5.83,0,0,0,1.54-6.14,7.14,7.14,0,0,0-3.41-3.23c-4.78-2.54-10.4-2.78-15.81-3C21.05,10.39,13,10.3,6.32,13.92"/><path class="e413c134-b2bd-4e5d-85bd-a0746d3c66b9" d="M9.59,11.33a7.84,7.84,0,0,0-3.4,2.17,6.47,6.47,0,0,0-1,4.19,4,4,0,0,0,.27,1.5,3.61,3.61,0,0,0,1.79,1.56,19.61,19.61,0,0,0,5.49,1.55c7.73,1.29,15.79,1.35,23.25-1a10.89,10.89,0,0,0,4.59-2.46,4.56,4.56,0,0,0,1.2-4.8,5.57,5.57,0,0,0-2.67-2.53c-3.74-2-8.14-2.18-12.38-2.31C20.76,9,14.48,9,9.23,11.78"/><path class="bf577d81-871b-4084-ab66-fc4ef36a5cf4" d="M13.76,10.17a5.69,5.69,0,0,0-2.45,1.57,4.68,4.68,0,0,0-.73,3,2.63,2.63,0,0,0,.2,1.08A2.55,2.55,0,0,0,12.07,17a14.3,14.3,0,0,0,4,1.13,36.35,36.35,0,0,0,16.82-.73,8,8,0,0,0,3.31-1.78,3.33,3.33,0,0,0,.88-3.48,4.06,4.06,0,0,0-1.94-1.83c-2.7-1.44-5.89-1.58-8.95-1.67-4.32-.13-8.86-.17-12.67,1.88"/></g></svg>