<svg xmlns="http://www.w3.org/2000/svg" viewBox="0 6.9 50 40" preserveAspectRatio="none"><path fill="#e4dac6" d="M34.3,7.09C38,7,41.8,7,45.25,8.31a5.06,5.06,0,0,1,2.16,1.4,6,6,0,0,1,1,3.43,176.88,176.88,0,0,1,.48,20.2A3,3,0,0,1,48.51,35a2.84,2.84,0,0,1-2,1c-8,1.32-16.14-.58-24.19.09a1.79,1.79,0,0,0-1.11.35,2.09,2.09,0,0,0-.49,1.17A10.94,10.94,0,0,1,8.49,45.73a8.74,8.74,0,0,0,6.6-8.19l-8.4-.06a3.55,3.55,0,0,1-1.86-.36A3.54,3.54,0,0,1,3.62,34.5Q2.06,23.76,1.41,12.91A6.86,6.86,0,0,1,1.9,9.2C4,5.51,12.19,7.53,15.57,7.46Z"/></svg>
