<svg id="f93a6526-9973-42fc-8349-3b766482b6dd" data-name="Laag 1" xmlns="http://www.w3.org/2000/svg" viewBox="0 0 50 50"><defs><style>.a4ea12a6-03e5-4863-bfff-971e7783e0fb{fill:#d3d3d3;}.a26ac19c-3533-4b0e-9e6a-5e97b9bbfd16{fill:#fff;}.ba527282-994a-4ce4-bbd1-5844efa44e84{fill:#ff6258;}.adcd9c1b-ca35-4b3a-bfaf-2a8c68abb330{fill:#869d9d;}</style></defs><title>icon</title><path class="a4ea12a6-03e5-4863-bfff-971e7783e0fb" d="M48.84,15.5c-1.46-4.26-5.55-7-9.59-9a34.69,34.69,0,0,0-12.9-3.88,34.92,34.92,0,0,0-5.57.08h0a18.53,18.53,0,0,0-8,2.46,26,26,0,0,0-9.07,8.53C.83,17.77.34,23.08.56,28.09.79,33.49,2,39.33,6.1,42.81a16.82,16.82,0,0,0,4.23,2.49A28.68,28.68,0,0,0,36,43.43a28.66,28.66,0,0,0,13.42-22A14.85,14.85,0,0,0,48.84,15.5Z"/><path class="a26ac19c-3533-4b0e-9e6a-5e97b9bbfd16" d="M46.72,16.27c-1.35-3.91-5.1-6.46-8.81-8.29A31.72,31.72,0,0,0,26.06,4.42a30.48,30.48,0,0,0-5.12.07h0a16.85,16.85,0,0,0-7.35,2.26,23.82,23.82,0,0,0-8.34,7.83c-2.64,3.77-3.09,8.66-2.89,13.26.21,5,1.3,10.32,5.1,13.52a14.83,14.83,0,0,0,3.88,2.28,26.28,26.28,0,0,0,23.58-1.71A26.34,26.34,0,0,0,47.25,21.76,13.75,13.75,0,0,0,46.72,16.27Z"/><path class="ba527282-994a-4ce4-bbd1-5844efa44e84" d="M18,17.36c-.08-.07-.16-.16-.1-.24s.07-.06.12-.09l.69-.37A38.2,38.2,0,0,1,13.22,14l1.11,5.23a3.4,3.4,0,0,1,1.46-1.15c1.31,1.42,2.64,2.84,4,4.25L22.3,25l1.59,1.69a18.12,18.12,0,0,0,1.6,1.69,3.25,3.25,0,0,0,1.18-.86c.14-.3-.18-.61-.37-.86-.59-.78-1.21-1.56-1.84-2.33-1.27-1.54-2.62-3.06-4.05-4.54Q19.21,18.57,18,17.36Z"/><polygon class="adcd9c1b-ca35-4b3a-bfaf-2a8c68abb330" points="4.72 22.93 11.18 22.71 4.74 23.23 4.72 22.93"/><path class="adcd9c1b-ca35-4b3a-bfaf-2a8c68abb330" d="M8.86,13.83a5.25,5.25,0,0,1,2.73,1.95,15.14,15.14,0,0,1,1.63,2.91,15,15,0,0,0-1.75-2.81,5,5,0,0,0-2.68-1.76Z"/><path class="adcd9c1b-ca35-4b3a-bfaf-2a8c68abb330" d="M16.62,8.05a19.7,19.7,0,0,1,1,5.62,19.68,19.68,0,0,0-1.31-5.52Z"/><path class="adcd9c1b-ca35-4b3a-bfaf-2a8c68abb330" d="M26.24,6.24l-.13,3.13-.06,1.56,0,.79a1,1,0,0,0,.14.74,1,1,0,0,1-.18-.74V9.36l0-3.13Z"/><polygon class="adcd9c1b-ca35-4b3a-bfaf-2a8c68abb330" points="35.67 9.6 35.35 9.48 35.51 9.43 31.07 14.73 35.28 9.25 35.34 9.17 35.44 9.2 35.77 9.31 35.67 9.6"/><path class="adcd9c1b-ca35-4b3a-bfaf-2a8c68abb330" d="M41.76,15.43a2.14,2.14,0,0,0-1.35.17,8.34,8.34,0,0,0-1.26.72,20.29,20.29,0,0,0-2.36,1.75,21.57,21.57,0,0,1,2.27-1.88,10,10,0,0,1,1.26-.8,2.44,2.44,0,0,1,1.51-.26Z"/><path class="adcd9c1b-ca35-4b3a-bfaf-2a8c68abb330" d="M43.65,22a28.65,28.65,0,0,0-5.4.11v0l.94,0-.94,0v0a29,29,0,0,1,5.42-.38Z"/><path class="adcd9c1b-ca35-4b3a-bfaf-2a8c68abb330" d="M41.45,32.26a5.28,5.28,0,0,1-2.72-2,14.89,14.89,0,0,1-1.64-2.91,14.83,14.83,0,0,0,1.76,2.82A5,5,0,0,0,41.52,32Z"/><path class="adcd9c1b-ca35-4b3a-bfaf-2a8c68abb330" d="M32.56,40.67a20,20,0,0,1-1-5.62,19.88,19.88,0,0,0,1.31,5.51Z"/><path class="adcd9c1b-ca35-4b3a-bfaf-2a8c68abb330" d="M21.78,43.73l.13-3.13L22,39l0-.78a1.08,1.08,0,0,0-.15-.75,1,1,0,0,1,.18.75V40.6l0,3.13Z"/><polygon class="adcd9c1b-ca35-4b3a-bfaf-2a8c68abb330" points="10.05 39.11 10.37 39.23 10.21 39.28 14.65 33.98 10.44 39.46 10.38 39.54 10.28 39.51 9.95 39.4 10.05 39.11"/><path class="adcd9c1b-ca35-4b3a-bfaf-2a8c68abb330" d="M5.8,31a2.13,2.13,0,0,0,1.35-.18,8.88,8.88,0,0,0,1.27-.71,23.6,23.6,0,0,0,2.36-1.75A24.21,24.21,0,0,1,8.5,30.22,8.93,8.93,0,0,1,7.24,31a2.35,2.35,0,0,1-1.51.26Z"/><path class="ba527282-994a-4ce4-bbd1-5844efa44e84" d="M30.61,22.81s.08-.09.13-.06a.1.1,0,0,1,.05.06l.23.37A22.72,22.72,0,0,1,32.21,20l-2.77.86a2,2,0,0,1,.69.76c-.71.8-1.41,1.61-2.11,2.41L26.68,25.6l-.85,1a9.7,9.7,0,0,0-.83,1c.12.2.35.56.52.62s.32-.12.45-.24q.59-.56,1.17-1.14c.77-.78,1.53-1.6,2.26-2.47C29.81,23.82,30.21,23.32,30.61,22.81Z"/></svg>