<svg id="b0f64036-432c-4d6e-9874-a97847f01657" data-name="Laag 1" xmlns="http://www.w3.org/2000/svg" xmlns:xlink="http://www.w3.org/1999/xlink" viewBox="0 0 477 168"><defs><style>.a0a8b6a7-6cb5-4d28-920c-6a4d6b25823e{fill:#ffb53e;}.bd124ada-bd71-45d9-bcf7-2cd19020c511{fill:none;}.ba793663-12cf-45a0-9fc8-6e7d19e268d9{fill:#af5f49;}.bd8789d1-b1a2-4ff4-9ecc-79b436f7ef75{fill:#954532;}.f47af077-9c91-46fd-b264-11bc4383647a{fill:#daa15e;}.a03f8e50-5c77-4034-a322-83f4bc4355d2{fill:#004339;}.b8e1f060-a9b8-4759-98f6-174af02de862{fill:#fff;}.bf88f9cc-4c26-42cf-94ad-702e818eeda2{fill:#80423f;}.b6ef30b1-98cd-452c-b50d-c2010533e92d{fill:#e1c27f;}.e4c483f7-7474-4574-8318-32a71dd3f902{fill:#f7dea3;}.a4e97a2b-274b-40c8-8bec-4b544f9e46a7{fill:#ffedb8;}.b5f92066-9eb8-44b1-ad67-1f1373d7be01{clip-path:url(#bd0e5f55-8b53-4b05-932b-bcecfe848362);}.b908d4c6-7733-452b-8129-9949ed231048{clip-path:url(#f8073d90-6de9-42a9-b552-def4bd0e792d);}.b265d947-bdf5-4367-afaa-280878f45baf{fill:#ffbe3e;}.e08617eb-da19-4465-a7af-0d1c62b76ec3{fill:#ffc955;}.b3b45ce4-3311-4721-b684-da3c3f607a4f{fill:#ffca71;}.fc16d931-81a9-405a-807a-b19bc26ffee1{fill:#f3a055;}.a3fc28e2-ee42-4014-85b8-53e58cdccdfe{fill:#ffd563;}.a4c19f28-e8c5-4b1c-80a5-a77d519321a1{fill:#ffd68b;}</style><clipPath id="bd0e5f55-8b53-4b05-932b-bcecfe848362"><path class="a0a8b6a7-6cb5-4d28-920c-6a4d6b25823e" d="M219.6,154.89c-1.23,0-2.47.06-3.7,0-2.88-.17-5.77-.38-8.64-.63-1.47-.13-2.94-.33-4.39-.59-1.61-.28-3.21-.61-4.78-1-2.42-.63-4.84-1.26-7.21-2a33.1,33.1,0,0,1-7.77-3.62c-1.37-.89-2.77-1.73-4.07-2.71a27.5,27.5,0,0,1-5.4-5.48,25.17,25.17,0,0,1-3.63-6.7,30.5,30.5,0,0,1-.76-3,10.63,10.63,0,0,1-.36-1.22c-.13-1-.21-2-.29-3a28.45,28.45,0,0,1-.21-3.56,50.15,50.15,0,0,1,.57-6.48,27,27,0,0,1,3.57-9.72,23.45,23.45,0,0,1,5.76-6.2,31.51,31.51,0,0,1,7.59-4.26c2.18-.85,4.44-1.51,6.68-2.19,1.49-.45,3-.84,4.54-1.15,1.68-.34,3.39-.59,5.09-.83,2.28-.33,4.57-.64,6.85-.89,1.49-.17,3-.27,4.49-.31,2.76-.08,5.52-.18,8.28-.13,3.56.06,7.13.13,10.68.43,3,.26,6,.77,9,1.33a48.59,48.59,0,0,1,9.87,3A59.18,59.18,0,0,1,257,96.73a23.84,23.84,0,0,1,6,4.81,25.13,25.13,0,0,1,4.25,6.09,28.31,28.31,0,0,1,2.32,6.78,32.47,32.47,0,0,1,.6,9.88,50.78,50.78,0,0,1-.71,5.52,23.93,23.93,0,0,1-4,8.79,28.27,28.27,0,0,1-5.94,6.07,32.18,32.18,0,0,1-6.85,4.07c-1.85.78-3.68,1.63-5.58,2.28s-3.86,1.1-5.81,1.59a45.94,45.94,0,0,1-4.52,1c-2.74.38-5.5.69-8.26.93-3,.25-5.95.38-8.92.56Z"/></clipPath><clipPath id="f8073d90-6de9-42a9-b552-def4bd0e792d"><path class="bd124ada-bd71-45d9-bcf7-2cd19020c511" d="M219.6,154.89c-1.23,0-2.47.06-3.7,0-2.88-.17-5.77-.38-8.64-.63-1.47-.13-2.94-.33-4.39-.59-1.61-.28-3.21-.61-4.78-1-2.42-.63-4.84-1.26-7.21-2a33.1,33.1,0,0,1-7.77-3.62c-1.37-.89-2.77-1.73-4.07-2.71a27.5,27.5,0,0,1-5.4-5.48,25.17,25.17,0,0,1-3.63-6.7,30.5,30.5,0,0,1-.76-3,10.63,10.63,0,0,1-.36-1.22c-.13-1-.21-2-.29-3a28.45,28.45,0,0,1-.21-3.56,50.15,50.15,0,0,1,.57-6.48,27,27,0,0,1,3.57-9.72,23.45,23.45,0,0,1,5.76-6.2,31.51,31.51,0,0,1,7.59-4.26c2.18-.85,4.44-1.51,6.68-2.19,1.49-.45,3-.84,4.54-1.15,1.68-.34,3.39-.59,5.09-.83,2.28-.33,4.57-.64,6.85-.89,1.49-.17,3-.27,4.49-.31,2.76-.08,5.52-.18,8.28-.13,3.56.06,7.13.13,10.68.43,3,.26,6,.77,9,1.33a48.59,48.59,0,0,1,9.87,3A59.18,59.18,0,0,1,257,96.73a23.84,23.84,0,0,1,6,4.81,25.13,25.13,0,0,1,4.25,6.09,28.31,28.31,0,0,1,2.32,6.78,32.47,32.47,0,0,1,.6,9.88,50.78,50.78,0,0,1-.71,5.52,23.93,23.93,0,0,1-4,8.79,28.27,28.27,0,0,1-5.94,6.07,32.18,32.18,0,0,1-6.85,4.07c-1.85.78-3.68,1.63-5.58,2.28s-3.86,1.1-5.81,1.59a45.94,45.94,0,0,1-4.52,1c-2.74.38-5.5.69-8.26.93-3,.25-5.95.38-8.92.56Z"/></clipPath></defs><title>icon</title><path class="ba793663-12cf-45a0-9fc8-6e7d19e268d9" d="M95.12,22.33C89,37.85,76.83,50.58,71.57,66.43a81.34,81.34,0,0,0,13.84,1.19,231.24,231.24,0,0,0-3.14,42.85c13,2.36,26.42.5,39.65,1,15.72.64,31.42,4.76,47,2.91h97.75a216.11,216.11,0,0,0,.58-34.7c-.05-1-.11-2.06-.17-3.09a1.26,1.26,0,0,0-.29-.89,1.33,1.33,0,0,0-.6-.24c-3.2-.65-6.33-2-9.6-2H205.32l3.07-18.52a1.21,1.21,0,0,1-1.4,1,3.1,3.1,0,0,1-1.67-1c-5.81-5.59-8.23-14.46-15.11-18.64-4.87-3-10.91-2.89-16.6-2.88a335.45,335.45,0,0,1-50.05-3.72,14.94,14.94,0,0,1-5.39-1.54c-1-.59-1.88-1.42-2.88-2A14.44,14.44,0,0,0,110,24.41a42.19,42.19,0,0,0-7.94-.55c-2.42.07-5.57-.14-6.24-2.46C95,22.08,95.49,21.4,95.12,22.33Z"/><path class="bd8789d1-b1a2-4ff4-9ecc-79b436f7ef75" d="M256,109.44l48.54,1.38c4.14.12,8.28.24,12.41,0,4.43-.28,8.82-1,13.22-1.58,24-3.19,48.4-2.64,72.52-5l-.87-21.87q-41.44.15-82.85,2.27A49.25,49.25,0,0,0,308.87,67.5a12.7,12.7,0,0,0-4.15-3.33c-2.25-1-4.82-.77-7.26-.54q-24.68,2.31-49.34,4.66a12.7,12.7,0,0,0-4,.81c-4.17,1.84-5.08,7.25-5.42,11.8s-.52,9.72,2.47,13.23"/><path class="f47af077-9c91-46fd-b264-11bc4383647a" d="M304.65,68.61a7.29,7.29,0,0,1,3.5.68,6.88,6.88,0,0,1,2.2,2.46c2.55,4.14,4.27,13.06,8.89,14.6,1.67.56,5.73.19,7.48.21,27,.28,52.29-3,79.28-2.72-1.95-4.08-6.57-6-10.76-7.7a216.42,216.42,0,0,1-23.7-11.35C361,58.92,350.91,52.18,340.87,45.44l-50-33.53c-3.16,4.76-8.18,7.88-13,11a450.43,450.43,0,0,0-51.4,38.29c5.54,3.61,11.12,7.23,17.28,9.62,9.84,3.81,18.72,2.1,28.72.33A165.22,165.22,0,0,1,304.65,68.61Z"/><path class="a03f8e50-5c77-4034-a322-83f4bc4355d2" d="M212.31,113.61c3,0,6.08-.07,9.11-.07-.19-4.09-.21-11.89-.29-12.94-.36-4.8,0-11.54-1.84-16-1.28-3.19-5.5-2.32-7.21.55-1.92,3.22-.63,8.08-.38,11.54C212.1,102.3,212.3,108,212.31,113.61Z"/><path class="a03f8e50-5c77-4034-a322-83f4bc4355d2" d="M302.13,76.85a.75.75,0,0,1,.49.11.76.76,0,0,1,.17.59l-.54,33.09-20.87-1.39c.92.06,2.15-11.38,2.23-12.56a59,59,0,0,0-.6-13.35c-.18-1.1-1.68-5.15-1-6s4.91-.35,6-.36Z"/><path class="a03f8e50-5c77-4034-a322-83f4bc4355d2" d="M333.38,87.88a57.91,57.91,0,0,0-.39,7.9,1,1,0,0,0,.15.59.93.93,0,0,0,.73.22l3.8,0,.21-8.37-3.65-.09"/><path class="a03f8e50-5c77-4034-a322-83f4bc4355d2" d="M352.31,87.26a56.49,56.49,0,0,0-.38,7.91.88.88,0,0,0,.15.59.94.94,0,0,0,.72.21l3.8,0,.22-8.37-3.66-.09"/><path class="a03f8e50-5c77-4034-a322-83f4bc4355d2" d="M370.94,87.77a56.49,56.49,0,0,0-.38,7.91.88.88,0,0,0,.15.59,1,1,0,0,0,.72.22l3.8,0,.22-8.37-3.66-.09"/><path class="a03f8e50-5c77-4034-a322-83f4bc4355d2" d="M99.68,111.11h7.55c1.42,0,2.8.45,4.21.46l-.51-30.82a154.23,154.23,0,0,0-17.73-.07q-.33,9.63.26,19.26a69.37,69.37,0,0,0,.8,9.34c.22,1,.31,1.68,1.44,1.78Z"/><path class="b8e1f060-a9b8-4759-98f6-174af02de862" d="M89,38.38c-1.12,1.52-2.3,4-3.31,5.62s-2.22,2.84-2.51,4.57c9.42,1.91,19.41.27,28.61,3.08a50.11,50.11,0,0,0-6.52-17.57,42,42,0,0,1-4-7.3,10.76,10.76,0,0,0-1.11-2.66,2.91,2.91,0,0,0-3.27-.77C95.65,23.79,94,28.89,93.4,30,91.44,34,92.05,34.25,89,38.38Z"/><path class="bf88f9cc-4c26-42cf-94ad-702e818eeda2" d="M151,78.56a8.18,8.18,0,0,1-3-.49,8.87,8.87,0,0,1-2.61-2,95.4,95.4,0,0,0-21-15.5c-5.38-2.93-11.26-5.52-15-10.37a36.34,36.34,0,0,1-4-7.24L96.05,22.05a162.75,162.75,0,0,1,36.71,1c10.91,1.54,21.66,4.19,32.63,5.19s22.11.36,33.14,1.17a9.15,9.15,0,0,1,4.11,1A9.14,9.14,0,0,1,205,32.65a129.44,129.44,0,0,1,10.73,15.76,14,14,0,0,0,2.69,3.7,13.65,13.65,0,0,0,4.15,2.19q12.84,5,25.27,10.9c5.79,2.76,13.56,5.88,16.59,12.1-14.22,2.39-29.78,1.69-44.19,2q-22.35.5-44.71,0Q163.25,79.1,151,78.56Z"/><path class="b6ef30b1-98cd-452c-b50d-c2010533e92d" d="M259,90.88c8-1.58,16-3.15,24.11-3.36,8.49-.21,16.94,1.08,25.33,2.43,9.9,1.59,19.86,3.26,29.27,6.71a161.26,161.26,0,0,1,18.63,8.65,11.65,11.65,0,0,1,4.53,3.37,11.46,11.46,0,0,1,1.5,4.45q1.41,7.65,2.44,15.37a8.18,8.18,0,0,1-.13,4c-.84,2.27-3.4,3.33-5.7,4.08-22.71,7.48-46.8,10.16-70.71,10s-47.72-3.13-71.36-6.71c-3.84-.58-7.9-1.28-10.8-3.86-3.9-3.46-4.57-9.26-4.33-14.46S203,110.93,206,106.66a14.89,14.89,0,0,1,7.46-5.63,14.72,14.72,0,0,1,4.57-.54,14.71,14.71,0,0,0,4.26-1.06c7.66-2.34,15.46-4.18,23.29-5.84C250,92.65,254.51,91.76,259,90.88Z"/><path class="e4c483f7-7474-4574-8318-32a71dd3f902" d="M253.14,93.5c11.6-2.47,23.36-4.71,35.21-4.35A160.56,160.56,0,0,1,310,91.77,224.75,224.75,0,0,1,334.9,97a113.11,113.11,0,0,1,18.9,7.31,14.18,14.18,0,0,1,5.34,3.85,15.22,15.22,0,0,1,2.23,6.27l1.88,9.69c.65,3.32,1.09,7.32-1.45,9.56a9.78,9.78,0,0,1-3.64,1.72c-46.88,14.3-97.36,10.07-145.66,1.74a11.45,11.45,0,0,1-4.61-1.5c-2.24-1.54-3.09-4.41-3.46-7.09a34.6,34.6,0,0,1,.81-13.55c1-3.8,2.59-8.77,5.6-11.49,2.18-2,5.41-1.67,8.12-2.19,5.32-1,10.59-2.48,15.87-3.7C240.92,96.17,247,94.8,253.14,93.5Z"/><path class="a4e97a2b-274b-40c8-8bec-4b544f9e46a7" d="M237,125.48a10.09,10.09,0,0,0,.17,2.26,7.24,7.24,0,0,0,1.35,3.57,2.81,2.81,0,0,0,3.45.81,3.92,3.92,0,0,0,1.27-1.6,11.91,11.91,0,0,0,1.77-5.75c0-2.25-1.75-5.18-4.37-4.91C238.47,120.09,237.09,123.62,237,125.48Z"/><path class="b6ef30b1-98cd-452c-b50d-c2010533e92d" d="M242.91,121.12a1.77,1.77,0,0,0-.85.27,7.1,7.1,0,0,0-3,3.45,28.3,28.3,0,0,0-1.38,4.42.23.23,0,0,1-.1.15c-.09,0-.18-.08-.22-.18a10.34,10.34,0,0,1-.36-4.43,6.65,6.65,0,0,1,.26-1.4,6.29,6.29,0,0,1,.58-1.16,5.28,5.28,0,0,1,2.64-2.51,1.65,1.65,0,0,1,.7-.09,2.21,2.21,0,0,1,.81.3,4.1,4.1,0,0,1,1.63,1.24c.06.1.1.22,0,.31A1,1,0,0,0,242.91,121.12Z"/><path class="a4e97a2b-274b-40c8-8bec-4b544f9e46a7" d="M260,115a9.9,9.9,0,0,0,1,2,7.14,7.14,0,0,0,2.6,2.79,2.81,2.81,0,0,0,3.5-.55,4,4,0,0,0,.57-1.95,11.82,11.82,0,0,0-.54-6c-.89-2.07-3.57-4.14-5.89-2.89C259.36,109.41,259.41,113.2,260,115Z"/><path class="b6ef30b1-98cd-452c-b50d-c2010533e92d" d="M263.86,108.69a2,2,0,0,0-.68.57,7.13,7.13,0,0,0-1.44,4.32,29.76,29.76,0,0,0,.38,4.61c0,.06,0,.13,0,.17s-.21,0-.28-.08a10.42,10.42,0,0,1-2-4,6,6,0,0,1-.29-1.4,5.62,5.62,0,0,1,.1-1.29,5.26,5.26,0,0,1,1.49-3.32,1.81,1.81,0,0,1,.62-.35,2.48,2.48,0,0,1,.86,0,4.07,4.07,0,0,1,2,.53.28.28,0,0,1,.14.28A1.07,1.07,0,0,0,263.86,108.69Z"/><path class="a4e97a2b-274b-40c8-8bec-4b544f9e46a7" d="M292.22,121.88a8.26,8.26,0,0,0,.81,1.63,5.66,5.66,0,0,0,2.08,2.23,2.24,2.24,0,0,0,2.79-.44,3.05,3.05,0,0,0,.46-1.56,9.5,9.5,0,0,0-.43-4.8c-.71-1.65-2.85-3.3-4.71-2.31C291.71,117.44,291.75,120.47,292.22,121.88Z"/><path class="b6ef30b1-98cd-452c-b50d-c2010533e92d" d="M295.3,116.87a1.38,1.38,0,0,0-.54.45,5.73,5.73,0,0,0-1.16,3.45,24.07,24.07,0,0,0,.31,3.69.17.17,0,0,1,0,.14c-.06.06-.16,0-.22-.07a8.41,8.41,0,0,1-1.6-3.17,4.74,4.74,0,0,1-.23-1.12,4.48,4.48,0,0,1,.08-1,4.17,4.17,0,0,1,1.19-2.65,1.42,1.42,0,0,1,.49-.28,2,2,0,0,1,.69,0,3.17,3.17,0,0,1,1.58.43.22.22,0,0,1,.12.22A.83.83,0,0,0,295.3,116.87Z"/><path class="a4e97a2b-274b-40c8-8bec-4b544f9e46a7" d="M283.44,109.58a4.93,4.93,0,0,0,.13,1.21,3.82,3.82,0,0,0,.77,1.89,1.51,1.51,0,0,0,1.86.38,2.13,2.13,0,0,0,.66-.87,6.37,6.37,0,0,0,.85-3.11c-.06-1.2-1-2.74-2.41-2.56C284.16,106.68,283.47,108.58,283.44,109.58Z"/><path class="b6ef30b1-98cd-452c-b50d-c2010533e92d" d="M286.55,107.16a1.06,1.06,0,0,0-.45.16,3.86,3.86,0,0,0-1.53,1.89,14.84,14.84,0,0,0-.67,2.39.14.14,0,0,1,0,.08c-.05,0-.1,0-.12-.1a5.52,5.52,0,0,1-.26-2.36,3.26,3.26,0,0,1,.12-.76,2.91,2.91,0,0,1,.29-.62,2.85,2.85,0,0,1,1.37-1.39,1,1,0,0,1,.38-.06,1.38,1.38,0,0,1,.43.15,2.15,2.15,0,0,1,.89.64.14.14,0,0,1,0,.17A.55.55,0,0,0,286.55,107.16Z"/><path class="a4e97a2b-274b-40c8-8bec-4b544f9e46a7" d="M272.47,132.17a7.76,7.76,0,0,0,.2,1.8,5.65,5.65,0,0,0,1.15,2.82,2.24,2.24,0,0,0,2.77.56,3.15,3.15,0,0,0,1-1.29,9.57,9.57,0,0,0,1.28-4.63c-.09-1.79-1.51-4.09-3.6-3.81C273.55,127.84,272.53,130.69,272.47,132.17Z"/><path class="b6ef30b1-98cd-452c-b50d-c2010533e92d" d="M277.12,128.56a1.59,1.59,0,0,0-.67.24,5.7,5.7,0,0,0-2.29,2.82,22,22,0,0,0-1,3.55c0,.05,0,.1-.07.12s-.15-.06-.18-.14a8.2,8.2,0,0,1-.39-3.52,4,4,0,0,1,.61-2.06,4.19,4.19,0,0,1,2.05-2.06,1.35,1.35,0,0,1,.56-.09,1.93,1.93,0,0,1,.65.22,3.18,3.18,0,0,1,1.32,1,.19.19,0,0,1,0,.24A.87.87,0,0,0,277.12,128.56Z"/><path class="a4e97a2b-274b-40c8-8bec-4b544f9e46a7" d="M313,126.14a9.8,9.8,0,0,0,.6,2.18,7.1,7.1,0,0,0,2,3.24,2.81,2.81,0,0,0,3.54.14,4,4,0,0,0,.94-1.8,11.87,11.87,0,0,0,.64-6c-.47-2.19-2.69-4.74-5.2-4C313.45,120.57,312.75,124.29,313,126.14Z"/><path class="b6ef30b1-98cd-452c-b50d-c2010533e92d" d="M318,120.75a1.86,1.86,0,0,0-.78.42,7.1,7.1,0,0,0-2.25,3.94,28.3,28.3,0,0,0-.52,4.59c0,.06,0,.13-.07.16s-.19,0-.25-.13a10.36,10.36,0,0,1-1.18-4.27,5.7,5.7,0,0,1,0-1.43,6.18,6.18,0,0,1,.34-1.24,5.31,5.31,0,0,1,2.11-3,1.82,1.82,0,0,1,.67-.22,2.45,2.45,0,0,1,.85.14,4.11,4.11,0,0,1,1.83.91.28.28,0,0,1,.09.3A1.07,1.07,0,0,0,318,120.75Z"/><path class="a4e97a2b-274b-40c8-8bec-4b544f9e46a7" d="M306.6,103.26a13,13,0,0,0-.77,3.45,3.22,3.22,0,0,0,.33,1.65,1.59,1.59,0,0,0,1.37.85c.89,0,1.46-1,1.69-1.81a13.7,13.7,0,0,0,.3-3.94C309.45,100.62,307.36,100.9,306.6,103.26Z"/><path class="a4e97a2b-274b-40c8-8bec-4b544f9e46a7" d="M339.61,115.05a2.68,2.68,0,0,0,2.06,0,2.27,2.27,0,0,0,1.16-2.11,4,4,0,0,0-.95-2.33c-1.09-1.36-4.06-3.29-5-.76C336.06,111.91,337.74,114.37,339.61,115.05Z"/><path class="a4e97a2b-274b-40c8-8bec-4b544f9e46a7" d="M302,134a6,6,0,0,0-.39,2.21,2.27,2.27,0,0,0,4.23,1.19,5.74,5.74,0,0,0,1-3.44,3.76,3.76,0,0,0-.35-2C304.72,128.8,302.69,132,302,134Z"/><path class="a4e97a2b-274b-40c8-8bec-4b544f9e46a7" d="M275.2,122a2.5,2.5,0,0,0,3.27.24,4,4,0,0,0,1.51-3.15,3,3,0,0,0-.21-1.36C277.93,113.63,273,119.38,275.2,122Z"/><path class="a4e97a2b-274b-40c8-8bec-4b544f9e46a7" d="M256.17,125.68a2.74,2.74,0,0,0-1.44,2.87,1.69,1.69,0,0,0,.36.82,2.44,2.44,0,0,0,2,.57,2.47,2.47,0,0,0,.89-.17,1.72,1.72,0,0,0,.87-1.17,5.1,5.1,0,0,0,.08-1.51,2.27,2.27,0,0,0-.21-1,1.38,1.38,0,0,0-1.17-.6,2.88,2.88,0,0,0-1.31.38"/><path class="a4e97a2b-274b-40c8-8bec-4b544f9e46a7" d="M246.05,115.55A2.91,2.91,0,0,0,249,116a3.75,3.75,0,0,0,2.57-2,4.84,4.84,0,0,0,.24-1.56c.07-1.44.4-2.65-1-3.52a2.33,2.33,0,0,0-2.85,0C246.36,110.09,244.4,113.76,246.05,115.55Z"/><path class="a4e97a2b-274b-40c8-8bec-4b544f9e46a7" d="M226.34,111.07a1.14,1.14,0,0,0,.09.66,1,1,0,0,0,.47.38,2.85,2.85,0,0,0,2.92-.41c1.37-1.08,2.27-4.86-.28-5.22C227.67,106.22,226.47,109.66,226.34,111.07Z"/><path class="a4e97a2b-274b-40c8-8bec-4b544f9e46a7" d="M226.68,125.32c1.11-.95,2.86-4.95,0-3.66C224.64,122.56,224.46,127.24,226.68,125.32Z"/><path class="a4e97a2b-274b-40c8-8bec-4b544f9e46a7" d="M273.85,99.15a7.23,7.23,0,0,0-1.5,3,4.33,4.33,0,0,0,3,4.74,2.19,2.19,0,0,0,1,.07,2.14,2.14,0,0,0,1.14-.68,6.21,6.21,0,0,0,1.42-2.81,3.89,3.89,0,0,0,.11-1.91,4.64,4.64,0,0,0-.65-1.32c-.42-.64-.84-1.27-1.28-1.89C275.92,96.73,274.71,98,273.85,99.15Z"/><path class="a4e97a2b-274b-40c8-8bec-4b544f9e46a7" d="M303.94,118.88a1.51,1.51,0,0,0,.24,1.42,1.32,1.32,0,0,0,.84.29,3.88,3.88,0,0,0,3.14-1.42,5.28,5.28,0,0,0,1.16-3.32C309.37,110.68,304.39,116.71,303.94,118.88Z"/><path class="a4e97a2b-274b-40c8-8bec-4b544f9e46a7" d="M319.09,110.57a3.48,3.48,0,0,0-.11,2.61,3.35,3.35,0,0,0,2.29,1.51,3.09,3.09,0,0,0,2.89-.38,3,3,0,0,0,.76-1.9c.14-1.49-.31-6.14-2.21-6.57S319.51,109.31,319.09,110.57Z"/><path class="a4e97a2b-274b-40c8-8bec-4b544f9e46a7" d="M328.4,127.52a3.76,3.76,0,0,0-.18,3,3.23,3.23,0,0,0,3,1.22,4.92,4.92,0,0,0,2.08-.4,3.92,3.92,0,0,0,2-3.77c-.1-1.62-1.37-4.88-3.37-4.64S328.93,126.06,328.4,127.52Z"/><path class="a4e97a2b-274b-40c8-8bec-4b544f9e46a7" d="M348.57,124.74a4.51,4.51,0,0,0-2.63,2.66,1.31,1.31,0,0,0,.07,1.29,1.35,1.35,0,0,0,.53.31,2.91,2.91,0,0,0,3.47-1.21,2.23,2.23,0,0,0-1.41-3.14"/><path class="a4e97a2b-274b-40c8-8bec-4b544f9e46a7" d="M339.89,121.23a1.68,1.68,0,0,0-.62,1.66,20.35,20.35,0,0,0,2.43.45c.82,0,1.75-.66,1.6-1.47s-1.26-1.08-2.13-1.12"/><path class="a4e97a2b-274b-40c8-8bec-4b544f9e46a7" d="M295.26,101.72a10,10,0,0,1-1.35,2.14,3.12,3.12,0,0,0-.69,2.36,2.15,2.15,0,0,0,2.17,1.59,2.68,2.68,0,0,0,2.25-1.63,3.56,3.56,0,0,0-.08-2.84c-.24-.56-.71-1.12-1.32-1.1a1.26,1.26,0,0,0-1.05.75,3.65,3.65,0,0,0-.32,1.31"/><path class="a4e97a2b-274b-40c8-8bec-4b544f9e46a7" d="M287.34,128.43a16.87,16.87,0,0,0-3.76,8.08,2.08,2.08,0,0,0,.08,1.33c.39.78,1.47.84,2.33.71a4.53,4.53,0,0,0,2.39-.94,4.11,4.11,0,0,0,1.14-2.52,9,9,0,0,0-1.78-6.77,2,2,0,0,0-.73-.65.8.8,0,0,0-.92.14,1.16,1.16,0,0,0-.23.61,10.23,10.23,0,0,0-.08,2.14"/><path class="a4e97a2b-274b-40c8-8bec-4b544f9e46a7" d="M295.44,131.55a3.21,3.21,0,0,0-2,1.81c-.13.32-.18.74.09.95a.89.89,0,0,0,.51.14,4.12,4.12,0,0,0,2.33-.4,1.84,1.84,0,0,0,.94-2,1.2,1.2,0,0,0-1.9-.54"/><path class="a0a8b6a7-6cb5-4d28-920c-6a4d6b25823e" d="M219.6,154.89c-1.23,0-2.47.06-3.7,0-2.88-.17-5.77-.38-8.64-.63-1.47-.13-2.94-.33-4.39-.59-1.61-.28-3.21-.61-4.78-1-2.42-.63-4.84-1.26-7.21-2a33.1,33.1,0,0,1-7.77-3.62c-1.37-.89-2.77-1.73-4.07-2.71a27.5,27.5,0,0,1-5.4-5.48,25.17,25.17,0,0,1-3.63-6.7,30.5,30.5,0,0,1-.76-3,10.63,10.63,0,0,1-.36-1.22c-.13-1-.21-2-.29-3a28.45,28.45,0,0,1-.21-3.56,50.15,50.15,0,0,1,.57-6.48,27,27,0,0,1,3.57-9.72,23.45,23.45,0,0,1,5.76-6.2,31.51,31.51,0,0,1,7.59-4.26c2.18-.85,4.44-1.51,6.68-2.19,1.49-.45,3-.84,4.54-1.15,1.68-.34,3.39-.59,5.09-.83,2.28-.33,4.57-.64,6.85-.89,1.49-.17,3-.27,4.49-.31,2.76-.08,5.52-.18,8.28-.13,3.56.06,7.13.13,10.68.43,3,.26,6,.77,9,1.33a48.59,48.59,0,0,1,9.87,3A59.18,59.18,0,0,1,257,96.73a23.84,23.84,0,0,1,6,4.81,25.13,25.13,0,0,1,4.25,6.09,28.31,28.31,0,0,1,2.32,6.78,32.47,32.47,0,0,1,.6,9.88,50.78,50.78,0,0,1-.71,5.52,23.93,23.93,0,0,1-4,8.79,28.27,28.27,0,0,1-5.94,6.07,32.18,32.18,0,0,1-6.85,4.07c-1.85.78-3.68,1.63-5.58,2.28s-3.86,1.1-5.81,1.59a45.94,45.94,0,0,1-4.52,1c-2.74.38-5.5.69-8.26.93-3,.25-5.95.38-8.92.56Z"/><g class="b5f92066-9eb8-44b1-ad67-1f1373d7be01"><path class="a0a8b6a7-6cb5-4d28-920c-6a4d6b25823e" d="M181.79,98c-3.3,1.37-6.77,2.86-8.94,5.71-2.35,3.07-2.77,7.18-2.64,11a9.87,9.87,0,0,0,.72,3.93c.89,1.93,2.8,3.18,4.7,4.12,4.52,2.22,9.51,3.26,14.47,4.09,20.33,3.39,41.55,3.55,61.21-2.66,4.4-1.39,8.83-3.19,12.07-6.47s5-8.41,3.17-12.65c-1.29-3-4.12-5.13-7-6.67-9.85-5.23-21.44-5.73-32.58-6.07-15.72-.47-32.26-.64-46.1,6.82"/><path class="a0a8b6a7-6cb5-4d28-920c-6a4d6b25823e" d="M187.59,93.87c-2.59,1.08-5.3,2.24-7,4.47-1.83,2.4-2.17,5.63-2.06,8.65a7.87,7.87,0,0,0,.56,3.08,7.5,7.5,0,0,0,3.68,3.22,40.66,40.66,0,0,0,11.34,3.2c15.92,2.66,32.53,2.78,47.92-2.08,3.45-1.09,6.92-2.49,9.46-5.07s3.9-6.58,2.48-9.9c-1-2.38-3.23-4-5.51-5.23-7.71-4.09-16.78-4.48-25.51-4.75-12.31-.36-25.26-.5-36.1,5.34"/><path class="a0a8b6a7-6cb5-4d28-920c-6a4d6b25823e" d="M196.2,91.48c-1.88.77-3.84,1.62-5.07,3.23s-1.57,4.07-1.5,6.26a5.72,5.72,0,0,0,.41,2.22,5.42,5.42,0,0,0,2.67,2.34,29.18,29.18,0,0,0,8.2,2.31c11.51,1.93,23.54,2,34.67-1.5a16.24,16.24,0,0,0,6.84-3.67c1.83-1.86,2.83-4.76,1.8-7.17a8.38,8.38,0,0,0-4-3.78c-5.58-3-12.14-3.24-18.46-3.43-8.9-.27-18.27-.37-26.11,3.86"/></g><g class="b908d4c6-7733-452b-8129-9949ed231048"><path class="b265d947-bdf5-4367-afaa-280878f45baf" d="M181.79,98c-3.3,1.37-6.77,2.86-8.94,5.71-2.35,3.07-2.77,7.18-2.64,11a9.87,9.87,0,0,0,.72,3.93c.89,1.93,2.8,3.18,4.7,4.12,4.52,2.22,9.51,3.26,14.47,4.09,20.33,3.39,41.55,3.55,61.21-2.66,4.4-1.39,8.83-3.19,12.07-6.47s5-8.41,3.17-12.65c-1.29-3-4.12-5.13-7-6.67-9.85-5.23-21.44-5.73-32.58-6.07-15.72-.47-32.26-.64-46.1,6.82"/><path class="e08617eb-da19-4465-a7af-0d1c62b76ec3" d="M187.59,93.87c-2.59,1.08-5.3,2.24-7,4.47-1.83,2.4-2.17,5.63-2.06,8.65a7.87,7.87,0,0,0,.56,3.08,7.5,7.5,0,0,0,3.68,3.22,40.66,40.66,0,0,0,11.34,3.2c15.92,2.66,32.53,2.78,47.92-2.08,3.45-1.09,6.92-2.49,9.46-5.07s3.9-6.58,2.48-9.9c-1-2.38-3.23-4-5.51-5.23-7.71-4.09-16.78-4.48-25.51-4.75-12.31-.36-25.26-.5-36.1,5.34"/><path class="b3b45ce4-3311-4721-b684-da3c3f607a4f" d="M196.2,91.48c-1.88.77-3.84,1.62-5.07,3.23s-1.57,4.07-1.5,6.26a5.72,5.72,0,0,0,.41,2.22,5.42,5.42,0,0,0,2.67,2.34,29.18,29.18,0,0,0,8.2,2.31c11.51,1.93,23.54,2,34.67-1.5a16.24,16.24,0,0,0,6.84-3.67c1.83-1.86,2.83-4.76,1.8-7.17a8.38,8.38,0,0,0-4-3.78c-5.58-3-12.14-3.24-18.46-3.43-8.9-.27-18.27-.37-26.11,3.86"/></g><path class="fc16d931-81a9-405a-807a-b19bc26ffee1" d="M144.25,136.18l3.37-9.16a14.91,14.91,0,0,0,.77-2.6,7.24,7.24,0,0,0-2.18-6.36,4.62,4.62,0,0,0-1.72-1.07,5.31,5.31,0,0,0-4.24.82,12.06,12.06,0,0,0-5.18,7.24c-.25,1-.4,2-.55,3l-.38,2.62c-.29,2-.42,4-.68,6a88.83,88.83,0,0,0-.68,14.12,2.91,2.91,0,0,0,.46,1.77,3,3,0,0,0,1.21.74L150.78,160c.92-1.8.34-4-.34-5.88a91.45,91.45,0,0,0-5.77-12.76c-1.8-3.35-3.82-8.59-6.83-11-2.49-2-3.44-.24-3.88,2.05"/><path class="a3fc28e2-ee42-4014-85b8-53e58cdccdfe" d="M185.44,151.85c-3.18-8.27-7.41-16.08-11.62-23.88-1.81-3.35-3.68-6.78-6.49-9.35-6.27-5.73-16.22-6-23.88-2.28a12.4,12.4,0,0,0-4.54,3.32c-2,2.6-2.26,6.26-1.5,9.48s2.39,6.17,3.73,9.19c1.88,4.22,3.26,8.65,5.09,12.89a40.8,40.8,0,0,0,3.38,6.45c1.53,2.29,2,2.38,4.56,1.61C164.48,156.11,174.59,152.62,185.44,151.85Z"/><path class="fc16d931-81a9-405a-807a-b19bc26ffee1" d="M295.38,136.86l-3.11-8.45a14.09,14.09,0,0,1-.71-2.4,6.72,6.72,0,0,1,2-5.87,4.33,4.33,0,0,1,1.58-1,4.87,4.87,0,0,1,3.91.75,11.12,11.12,0,0,1,4.78,6.69,26,26,0,0,1,.51,2.77l.35,2.42c.26,1.84.39,3.7.63,5.54a82.26,82.26,0,0,1,.62,13,2.73,2.73,0,0,1-.42,1.64,2.63,2.63,0,0,1-1.12.68l-15.06,6.14c-.85-1.66-.32-3.66.31-5.42A83.66,83.66,0,0,1,295,141.62c1.66-3.08,3.52-7.92,6.3-10.14,2.29-1.83,3.17-.22,3.58,1.89"/><path class="a4c19f28-e8c5-4b1c-80a5-a77d519321a1" d="M257.38,151.32a191.34,191.34,0,0,1,10.72-22c1.67-3.1,3.39-6.26,6-8.63,5.78-5.28,15-5.48,22-2.11a11.65,11.65,0,0,1,4.19,3.07c1.89,2.4,2.08,5.78,1.38,8.75s-2.2,5.69-3.44,8.48c-1.74,3.9-3,8-4.7,11.89a36.62,36.62,0,0,1-3.12,5.95c-1.41,2.11-1.87,2.2-4.2,1.49C276.72,155.25,267.39,152,257.38,151.32Z"/></svg>