<svg id="bca5ce97-2d56-48a1-a01f-b89e3f399a7a" data-name="Laag 1" xmlns="http://www.w3.org/2000/svg" viewBox="0 0 50 50"><defs><style>.acbcdd80-24c1-4c16-b007-882a5ed628f4,.bd84d0be-ae76-4e99-a00c-96bb79a75d90,.f262fec0-63e0-41cc-945a-500d649883b5{fill:none;stroke:#575756;stroke-miterlimit:10;}.acbcdd80-24c1-4c16-b007-882a5ed628f4{stroke-width:0.1px;}.bd84d0be-ae76-4e99-a00c-96bb79a75d90{stroke-width:0.08px;}.f262fec0-63e0-41cc-945a-500d649883b5{stroke-width:0.09px;}.fb33f2e4-13c1-404b-9e23-3ae43204b626{fill:#ee7c66;}.e853e31a-6ab6-4917-a6b8-8c7dcb361f21{fill:#a2a1a0;}.b0147ef7-242e-4f6b-9240-e5521c07bde9{fill:#767670;}.be5d46eb-bcdc-4b77-bad1-7210f8cad3c8{fill:#e46259;}.bcdcebeb-2f5c-454b-95bf-d057e56d6322{fill:#edecec;}</style></defs><title>icon</title><path class="acbcdd80-24c1-4c16-b007-882a5ed628f4" d="M7.94,31.37a1.75,1.75,0,0,1,1.25-1.63,5.15,5.15,0,0,1,2.18-.1,3.42,3.42,0,0,1,2.19.77,3.52,3.52,0,0,1,.67,2.43A4.69,4.69,0,0,1,13.51,36a4.4,4.4,0,0,1-3,1.2c-1.58.15-3.37.07-4.45-1.09a4.08,4.08,0,0,1-.94-2.83,3.12,3.12,0,0,1,.48-1.8c.82-1.16,2.52-1.13,3.83-1.71"/><path class="bd84d0be-ae76-4e99-a00c-96bb79a75d90" d="M24.18,29.46a28.17,28.17,0,0,1-6,0"/><path class="bd84d0be-ae76-4e99-a00c-96bb79a75d90" d="M24.09,31.75c-2-.22-4.07-.39-6.1-.52"/><path class="bd84d0be-ae76-4e99-a00c-96bb79a75d90" d="M23.84,34c-1.81-.07-3.61-.16-5.41-.27"/><path class="bd84d0be-ae76-4e99-a00c-96bb79a75d90" d="M39.28,16.73l-1.07-5.89a1.15,1.15,0,0,0-.22-.6,1.26,1.26,0,0,0-1-.33c-2.12-.12-4.26-.16-6.39-.12a.47.47,0,0,0-.31.08.47.47,0,0,0-.09.33,18.07,18.07,0,0,0,1.52,7.43,1.59,1.59,0,0,0,.3.5,1.53,1.53,0,0,0,.7.37C35,19.23,40,20.8,39.28,16.73Z"/><path class="bd84d0be-ae76-4e99-a00c-96bb79a75d90" d="M27.94,11.91c0,2.09,1,4.06,1.13,6.15a2.33,2.33,0,0,1-.62,2c-.71.57-1.83.3-2.59.82s-.86,1.82-.77,2.85l.21,2.31a.63.63,0,0,1-.69.86L20,27.06a1.36,1.36,0,0,1-.75-.12,1.28,1.28,0,0,1-.48-.78,13.21,13.21,0,0,1,.08-6.43c.46-2.11,1.16-4.18,1.5-6.32a12.78,12.78,0,0,1,.47-2.21,2.84,2.84,0,0,1,1.42-1.69,3.76,3.76,0,0,1,1.25-.25,8.53,8.53,0,0,1,3.6.23C28,9.93,27.93,11,27.94,11.91Z"/><path class="bd84d0be-ae76-4e99-a00c-96bb79a75d90" d="M19.05,20.11c.05-.28.37-.38.64-.45a7,7,0,0,0,2.6-1.28"/><path class="bd84d0be-ae76-4e99-a00c-96bb79a75d90" d="M21.8,17.9c.26-.13.51.2.62.47L23,19.74a4.57,4.57,0,0,0-.75-1.17,1.54,1.54,0,0,1-.35-1.3,3.37,3.37,0,0,1,1,2.31,4.44,4.44,0,0,1-.75-2.14"/><path class="f262fec0-63e0-41cc-945a-500d649883b5" d="M36.49,26.78a4.91,4.91,0,0,1,4.71.7,6.44,6.44,0,0,1,2.39,4.23,4.24,4.24,0,0,1-1,3.72,4.8,4.8,0,0,1-3,1c-1.93.09-4.13-.4-5.12-2.07a5.11,5.11,0,0,1-.54-3,5.47,5.47,0,0,1,1.59-3.75,3.63,3.63,0,0,1,2.35-.91"/><path class="fb33f2e4-13c1-404b-9e23-3ae43204b626" d="M3.1,27.34,3,23.23a2.28,2.28,0,0,1,.14-1.07,2,2,0,0,1,1.06-.88,12.32,12.32,0,0,1,3.51-.83c2.58-.34,5.18-.54,7.79-.63.49-.82.23-1.86.19-2.82a12,12,0,0,1,.56-3.51L17.4,8.9a3.23,3.23,0,0,1,.51-1.24A2.69,2.69,0,0,1,19,6.9a11.1,11.1,0,0,1,5.13-.51,98.82,98.82,0,0,1,13.62,2.3,2.47,2.47,0,0,1,1.31.57,2.43,2.43,0,0,1,.51,1.39L41,20.6a10.48,10.48,0,0,0-9.4,3.12A20.7,20.7,0,0,0,28,30.15a11.42,11.42,0,0,0-.87,2.77.9.9,0,0,1-.18.52.8.8,0,0,1-.46.19,32.59,32.59,0,0,1-9.35-.19A4,4,0,0,1,15.64,33a3.25,3.25,0,0,1-1.09-1.31C13.62,30,13,27.92,11.28,27a7.32,7.32,0,0,0-4.13-.51L3,26.74l0-.68"/><path class="e853e31a-6ab6-4917-a6b8-8c7dcb361f21" d="M14.13,29.56a6.54,6.54,0,0,0-5.64-1.85,9.18,9.18,0,0,0-6.72,4.12,8.07,8.07,0,0,0-.43,7.78,5.55,5.55,0,0,0,2,2.28,6.48,6.48,0,0,0,4.71.43,12.62,12.62,0,0,0,4.27-1.86,7.7,7.7,0,0,0,3.31-4.23c.76-2.87.34-4.37-1.55-6.67"/><path class="e853e31a-6ab6-4917-a6b8-8c7dcb361f21" d="M37.29,21.59c-1.57-.34-1.25,0-2.85.11a5.75,5.75,0,0,0-3.3,1,5.6,5.6,0,0,0-1.58,2.47,18.9,18.9,0,0,0-1.11,5.67,9.35,9.35,0,0,0,.38,3.57,10.92,10.92,0,0,0,1.73,2.87,18.5,18.5,0,0,0,3.24,3.43,7.73,7.73,0,0,0,4.32,1.72,8.34,8.34,0,0,0,3.3-.62,13.81,13.81,0,0,0,8.15-8.58A7.71,7.71,0,0,0,50,30.39a7.45,7.45,0,0,0-1.2-3.32A12.11,12.11,0,0,0,37.1,21.62"/><path class="b0147ef7-242e-4f6b-9240-e5521c07bde9" d="M10.69,33.65c-.26-.73-.61-1.54-1.34-1.75a2.2,2.2,0,0,0-.81,0,11.52,11.52,0,0,0-1.66.29,2.53,2.53,0,0,0-1.13.54A2.26,2.26,0,0,0,5.16,34a5.58,5.58,0,0,0,.22,2.69,1.8,1.8,0,0,0,.4.73,2.12,2.12,0,0,0,1.13.47,4.69,4.69,0,0,0,2.38,0,2.91,2.91,0,0,0,1.91-2.51,3.55,3.55,0,0,0-1.3-2.94c-.1-.08-.31-.1-.29,0"/><path class="b0147ef7-242e-4f6b-9240-e5521c07bde9" d="M42.49,26.7c-2.32-1.87-5.77-1.36-8.17.63a5.29,5.29,0,0,0-1.81,2.6,6.26,6.26,0,0,0,.57,3.94,9.66,9.66,0,0,0,1.57,2.7,5.56,5.56,0,0,0,4.2,1.89,7.17,7.17,0,0,0,6.43-4.79C46.14,31.28,44.08,28,42.49,26.7Z"/><path class="be5d46eb-bcdc-4b77-bad1-7210f8cad3c8" d="M4,26.44a11.41,11.41,0,0,1,5-.32,3.18,3.18,0,0,1,1,.2,10.52,10.52,0,0,1,1.14.27c.83.53,1.38.91,2.2,1.44,1.63,1.07,2.22,3.12,3.1,4.86a.92.92,0,0,0,.33.42,1,1,0,0,0,.46.1,56.8,56.8,0,0,0,8.35-.26,1.63,1.63,0,0,0,.69-.17c.52-.3.58-1,.64-1.6A12.41,12.41,0,0,1,41.08,20.14c2.08.31,4.29,1.37,5,3.35-1.52.54-3-.91-4.5-1.39a7.75,7.75,0,0,0-1.67-.26,9.87,9.87,0,0,0-4.16.26,7.37,7.37,0,0,0-2.26,1.4,15.45,15.45,0,0,0-5.31,10.58l-8.8.88a5.79,5.79,0,0,1-2.59-.13,4.47,4.47,0,0,1-1.64-1.19,9.52,9.52,0,0,1-1.82-2.8,5.69,5.69,0,0,0-1-1.91,3.64,3.64,0,0,0-2.17-.86,12.12,12.12,0,0,0-5.93.74C3.38,29.12,2.43,30,1.59,30c-1.16.1-.58-1-.19-1.54A5.67,5.67,0,0,1,4,26.44Z"/><path class="bcdcebeb-2f5c-454b-95bf-d057e56d6322" d="M18.72,20.94c.27-1.34.73-2.65,1-4,.14-.81.2-1.62.37-2.42a19.56,19.56,0,0,1,1.33-3.76,2.13,2.13,0,0,1,.85-1.15,2.57,2.57,0,0,1,1.51-.06,18.07,18.07,0,0,0,4.09.09,26.52,26.52,0,0,1,.29,4.73c.09,1.73,1.1,3.41.61,5.07A1.78,1.78,0,0,1,28,20.57c-.59.3-1.36,0-1.95.32s-.78,1.38-.71,2.2A7.93,7.93,0,0,1,25,26.94c-.11.25-3,.07-3.34.07-.72,0-2.25.26-2.82-.28s-.41-1.82-.42-2.47A15.43,15.43,0,0,1,18.72,20.94Z"/><path class="bcdcebeb-2f5c-454b-95bf-d057e56d6322" d="M30.63,12.14c-.06-.56-.11-1.13-.16-1.69a.54.54,0,0,1,0-.28.46.46,0,0,1,.28-.21,4.55,4.55,0,0,1,2.51,0l3.42.61a.7.7,0,0,1,.34.12.75.75,0,0,1,.22.35,12.31,12.31,0,0,1,.61,2.83l.52,3.77a.77.77,0,0,1-.06.56.58.58,0,0,1-.37.21,5.9,5.9,0,0,1-2.35-.21,5.42,5.42,0,0,0-2.56.26c-.76.28-1.24.62-1.54-.33A29.88,29.88,0,0,1,30.63,12.14Z"/><path class="b0147ef7-242e-4f6b-9240-e5521c07bde9" d="M19.24,18.51a15.36,15.36,0,0,0,2.27-1.66.52.52,0,0,0,.17-.19c.08-.17,0-.36-.06-.54s-.05-.41.13-.49c-.08.37.3.65.48,1a1.94,1.94,0,0,1,.18.51l.29,1.2a1.07,1.07,0,0,0-.46-.55c-.2-.15-.4-.36-.35-.6a5.5,5.5,0,0,1-2,1.57,2.62,2.62,0,0,0-.88.53"/><path class="b0147ef7-242e-4f6b-9240-e5521c07bde9" d="M18.66,36.87c0,.36.12.84.48.83a3.26,3.26,0,0,0,.3-1.31c.15-1.64.3-3.27.39-4.91,0-.44.25-2.28-.29-2.52S19,30.49,19,30.81A58.4,58.4,0,0,0,18.66,36.87Z"/><path class="b0147ef7-242e-4f6b-9240-e5521c07bde9" d="M23.31,29.79a3,3,0,0,0-.13,1.07c0,1.9.16,3.79.3,5.68A1.59,1.59,0,0,0,24,37.8a3.16,3.16,0,0,0,.68-2.43V31.26C24.65,30.6,24,28.05,23.31,29.79Z"/><path class="b0147ef7-242e-4f6b-9240-e5521c07bde9" d="M21.45,30.39a5.43,5.43,0,0,1,2,0,.58.58,0,0,1-.28.64,1.56,1.56,0,0,1-.73.19,14.14,14.14,0,0,1-2.52.12,1.26,1.26,0,0,1-.47-.12.43.43,0,0,1-.24-.39C19.25,30.52,21.09,30.45,21.45,30.39Z"/><path class="b0147ef7-242e-4f6b-9240-e5521c07bde9" d="M21.9,32.83a5.43,5.43,0,0,1,2,0,.58.58,0,0,1-.28.64,1.84,1.84,0,0,1-.73.19,13.3,13.3,0,0,1-2.52.11,1.08,1.08,0,0,1-.47-.11.43.43,0,0,1-.24-.4C19.7,33,21.54,32.89,21.9,32.83Z"/><path class="b0147ef7-242e-4f6b-9240-e5521c07bde9" d="M21.62,35.18a5.38,5.38,0,0,1,2,0,.57.57,0,0,1-.28.64,1.75,1.75,0,0,1-.72.19,15.19,15.19,0,0,1-2.52.11,1.08,1.08,0,0,1-.47-.11.44.44,0,0,1-.24-.4C19.42,35.31,21.26,35.24,21.62,35.18Z"/></svg>