<svg id="eeb366aa-8114-4a77-8ca8-f227ae929467" data-name="Laag 1" xmlns="http://www.w3.org/2000/svg" viewBox="0 0 50 50"><defs><style>.ebb8c8e5-6917-490b-aab2-938fc5a68e90{fill:#7d7d7d;}.eb6e9197-8dc9-420f-8eef-0ea1d38151c9{fill:#8f8d8b;}.a246f8a7-21d3-4c64-8928-e090ccb02096{fill:#a4a4a4;}.f9ec02c6-f447-4d00-995f-81aa92336f23{fill:#686868;}.bc55513a-d1bd-4079-83df-19a617643d58{fill:#8c8c8c;}</style></defs><title>icon</title><path class="ebb8c8e5-6917-490b-aab2-938fc5a68e90" d="M21.74,1.52a20.4,20.4,0,0,0-5.84,0,3.8,3.8,0,0,0-3,1.63,2.9,2.9,0,0,0,.22,2.66A14.14,14.14,0,0,0,14.79,8a3.39,3.39,0,0,1,.85,1.59c.2,1.34-1,2.42-2.11,3.22l-3.82,2.8a3,3,0,0,0-.87.83,3.21,3.21,0,0,0-.18,2.15,65,65,0,0,1,.11,15,18.49,18.49,0,0,0-.12,4.07,5.4,5.4,0,0,0,1.81,3.56,6.86,6.86,0,0,0,3.4,1.2,43.71,43.71,0,0,0,11.65-.12,11.33,11.33,0,0,0,2.7-.59,11.82,11.82,0,0,0,2.52-1.54,4.35,4.35,0,0,0,1.15-1.07,4.22,4.22,0,0,0,.54-1.89c.43-3.57.5-7.18.58-10.78l.22-10.27a1.84,1.84,0,0,0-.07-.66,1.71,1.71,0,0,0-.61-.7,12,12,0,0,0-3.33-1.78,5,5,0,0,1-1.41-.62,2.88,2.88,0,0,1-.84-3A9.07,9.07,0,0,1,28.54,6.5a7.42,7.42,0,0,0,1.45-3,1.76,1.76,0,0,0-.08-1A1.94,1.94,0,0,0,29,1.72a10.51,10.51,0,0,0-4-.84,28.57,28.57,0,0,0-6.2,0A9.61,9.61,0,0,0,13.23,3.4"/><path class="eb6e9197-8dc9-420f-8eef-0ea1d38151c9" d="M17.06,40c-.06,0-.12.09-.14.16a.32.32,0,0,0,0,.17l0,3.86a.89.89,0,0,0,.83,1,10.75,10.75,0,0,0,5.14.13,2.93,2.93,0,0,0,1.65-.65,1,1,0,0,0,.27-.42,1.2,1.2,0,0,0,.05-.38l.14-3.33a1.78,1.78,0,0,0,0-.61c-.17-.58-.8-.86-1.24-1.26a1,1,0,0,1-.27-.33c-.17-.35,0-.76-.06-1.14a1,1,0,0,0,.79-.55,2.13,2.13,0,0,0,.22-1,1.49,1.49,0,0,0-.21-.93,1.77,1.77,0,0,0-1.43-.51,19,19,0,0,0-3.37.12,4.09,4.09,0,0,0-1.71.54,1.24,1.24,0,0,0-.41.41,1.4,1.4,0,0,0-.11.71,2,2,0,0,0,.15.81,3.13,3.13,0,0,0,1.2,1c.21.15.19.34.19.58s0,.3-.19.45-.28.24-.43.35Z"/><path class="eb6e9197-8dc9-420f-8eef-0ea1d38151c9" d="M30.28,31a3.26,3.26,0,0,1-.35,2.54c-.63.76-1.88.85-2.39,1.7a2.72,2.72,0,0,0-.27,1.36q-.07,3.24,0,6.46a1.45,1.45,0,0,0,.13.72c.16.29.49.44.74.65a12.18,12.18,0,0,0,.89.87,2.42,2.42,0,0,0,1,.34,16.76,16.76,0,0,0,7.35-.45,4,4,0,0,0,1.48-.71,2.69,2.69,0,0,0,.67-1,6.48,6.48,0,0,0,.34-2c.09-1.88.19-3.77.11-5.65a2.71,2.71,0,0,0-.47-1.7c-.79-.91-2.51-.64-3.08-1.7a2.4,2.4,0,0,1,0-1.71.73.73,0,0,1,.11-.29,1,1,0,0,1,.23-.17A2.77,2.77,0,0,0,38,29a1.82,1.82,0,0,0-.12-1.74,2.92,2.92,0,0,0-2-1,12.16,12.16,0,0,0-5.63.15,3,3,0,0,0-1.76,1.19,2.16,2.16,0,0,0,.61,2.73c.48.37,1.14.59,1.36,1.16"/><path class="a246f8a7-21d3-4c64-8928-e090ccb02096" d="M32.46,45.56a.77.77,0,0,0-.37-.24,9.79,9.79,0,0,0-3.16-.26c0-.72,0-1.44,0-2.15a.46.46,0,0,1,.12-.38.53.53,0,0,1,.17-.08.86.86,0,0,0,.51-.59.84.84,0,0,0-.22-.74.41.41,0,0,0-.13-.1,1.08,1.08,0,0,0-.19,0c-.34,0-.69-.08-1-.08a1.57,1.57,0,0,0-1,.29,1,1,0,0,0-.36.89.78.78,0,0,0,.67.65c-.09.75-.14,1.51-.17,2.26h-.06a7.38,7.38,0,0,0-2.59.73,1.61,1.61,0,0,0-.42.25,1.37,1.37,0,0,0-.3.8.66.66,0,0,0,.39.82,1.34,1.34,0,0,0,.68.54,2.6,2.6,0,0,0,.74.11,15.12,15.12,0,0,0,1.78,0,10.8,10.8,0,0,0,1.39-.19,9.88,9.88,0,0,0,2.62-.77,1.94,1.94,0,0,0,.41-.27,1.82,1.82,0,0,0,.4-.58,1.79,1.79,0,0,0,.19-.45A.61.61,0,0,0,32.46,45.56Z"/><path class="f9ec02c6-f447-4d00-995f-81aa92336f23" d="M17.69,20.9V26h-.91V22a4.71,4.71,0,0,1-.51.42,1.62,1.62,0,0,1-.5.24L15.41,22l.39-.16c.12-.06.25-.12.38-.2a4.41,4.41,0,0,0,.4-.29A4,4,0,0,0,17,20.9Z"/><path class="f9ec02c6-f447-4d00-995f-81aa92336f23" d="M19.92,20.2v2.28a1.27,1.27,0,0,1,.42-.35,1.86,1.86,0,0,1,.81-.19,1.45,1.45,0,0,1,.47.07,1.23,1.23,0,0,1,.37.21,1.2,1.2,0,0,1,.25.33,1.06,1.06,0,0,1,.09.45,1.08,1.08,0,0,1-.15.59,1.45,1.45,0,0,1-.33.36,1.59,1.59,0,0,1-.48.26L22.49,26h-1l-1.15-2v-.08l.24-.07a2.3,2.3,0,0,0,.37-.16,1.46,1.46,0,0,0,.34-.26.51.51,0,0,0,.15-.37.41.41,0,0,0-.14-.35.52.52,0,0,0-.36-.12.91.91,0,0,0-.49.12,1,1,0,0,0-.3.27,1.15,1.15,0,0,0-.15.29.66.66,0,0,0,0,.16V26H19V20.36Z"/><path class="f9ec02c6-f447-4d00-995f-81aa92336f23" d="M23.57,26.7l.25.1.29.1.31.08a1.55,1.55,0,0,0,.31,0,.74.74,0,0,0,.64-.27,1.09,1.09,0,0,0,.2-.69,2.29,2.29,0,0,0-.17-.84,1.24,1.24,0,0,1-.43.62,1.3,1.3,0,0,1-.77.21,1.45,1.45,0,0,1-.65-.14,1.19,1.19,0,0,1-.46-.4,1.51,1.51,0,0,1-.27-.63,3.35,3.35,0,0,1-.09-.81,2.25,2.25,0,0,1,.14-.84,1.85,1.85,0,0,1,.39-.67,1.73,1.73,0,0,1,.6-.44,1.85,1.85,0,0,1,.78-.16l.41,0,.43.06.4.08.32.07,0,2.2a3,3,0,0,0,0,.44c0,.13,0,.26.09.39s.06.27.08.4a2,2,0,0,1,0,.44A1.67,1.67,0,0,1,26,27.31a1.59,1.59,0,0,1-1.16.42,2.61,2.61,0,0,1-.48-.05l-.45-.1a2.42,2.42,0,0,1-.35-.11l-.19-.08Zm1.14-1.43a1.26,1.26,0,0,0,.29-.34,2,2,0,0,0,.27-1V22.68L25,22.62l-.29,0a1.06,1.06,0,0,0-.5.1.86.86,0,0,0-.31.29,1.16,1.16,0,0,0-.17.44,3.24,3.24,0,0,0-.05.56c0,.19,0,.36,0,.53a2,2,0,0,0,.08.46.8.8,0,0,0,.2.32.51.51,0,0,0,.34.11A.55.55,0,0,0,24.71,25.27Z"/><path class="ebb8c8e5-6917-490b-aab2-938fc5a68e90" d="M30.64,37.6l.11-1h1l0,.28h-.65l-.06.49.09,0,.21,0a.52.52,0,0,1,.23,0,.46.46,0,0,1,.18.13.86.86,0,0,1,.11.19.88.88,0,0,1,0,.24,1,1,0,0,1,0,.23.53.53,0,0,1-.11.21.58.58,0,0,1-.19.15.7.7,0,0,1-.3.05,1.17,1.17,0,0,1-.32,0,2,2,0,0,1-.31-.12l.1-.25.25.1a.54.54,0,0,0,.21.05.33.33,0,0,0,.26-.1.46.46,0,0,0,.07-.29.35.35,0,0,0-.08-.24.29.29,0,0,0-.22-.09l-.16,0-.12,0-.07,0,0,0Z"/><path class="ebb8c8e5-6917-490b-aab2-938fc5a68e90" d="M33.19,36.69a.57.57,0,0,1,.22.19.68.68,0,0,1,.12.3,1.68,1.68,0,0,1,0,.41,1.73,1.73,0,0,1,0,.41.93.93,0,0,1-.13.32.66.66,0,0,1-.23.21.71.71,0,0,1-.34.07.79.79,0,0,1-.32-.06.67.67,0,0,1-.22-.19.82.82,0,0,1-.12-.3,1.73,1.73,0,0,1,0-.41,1.82,1.82,0,0,1,0-.42,1,1,0,0,1,.13-.32.64.64,0,0,1,.57-.27A.76.76,0,0,1,33.19,36.69Zm-.52.25a.32.32,0,0,0-.09.15.64.64,0,0,0-.06.22,2.62,2.62,0,0,0,0,.29,2.71,2.71,0,0,0,0,.29,1.14,1.14,0,0,0,0,.23.5.5,0,0,0,.11.16.29.29,0,0,0,.19.06.2.2,0,0,0,.15-.06.24.24,0,0,0,.1-.14.71.71,0,0,0,.06-.22,2.81,2.81,0,0,0,0-.3,2.53,2.53,0,0,0,0-.28,1.14,1.14,0,0,0,0-.23A.5.5,0,0,0,33,37a.29.29,0,0,0-.19-.06A.3.3,0,0,0,32.67,36.94Z"/><path class="ebb8c8e5-6917-490b-aab2-938fc5a68e90" d="M34.91,36.69a.48.48,0,0,1,.21.19.83.83,0,0,1,.13.3,2.37,2.37,0,0,1,0,.41,2.48,2.48,0,0,1,0,.41.94.94,0,0,1-.14.32.58.58,0,0,1-.23.21.67.67,0,0,1-.33.07.81.81,0,0,1-.33-.06.64.64,0,0,1-.21-.19.83.83,0,0,1-.13-.3,2.54,2.54,0,0,1,0-.41,1.82,1.82,0,0,1,0-.42A.83.83,0,0,1,34,36.9a.64.64,0,0,1,.23-.2.69.69,0,0,1,.34-.07A.79.79,0,0,1,34.91,36.69Zm-.52.25a.33.33,0,0,0-.1.15,1,1,0,0,0,0,.22,2.48,2.48,0,0,0,0,.29,2.64,2.64,0,0,0,0,.29.71.71,0,0,0,0,.23.31.31,0,0,0,.11.16.26.26,0,0,0,.18.06.21.21,0,0,0,.16-.06.39.39,0,0,0,.1-.14,1.19,1.19,0,0,0,0-.22,2.66,2.66,0,0,0,0-.3,2.46,2.46,0,0,0,0-.28.52.52,0,0,0,0-.23.31.31,0,0,0-.11-.16.26.26,0,0,0-.18-.06A.25.25,0,0,0,34.39,36.94Z"/><path class="ebb8c8e5-6917-490b-aab2-938fc5a68e90" d="M35.85,38.85l.1,0,.11,0,.11,0h.12a.29.29,0,0,0,.25-.1.45.45,0,0,0,.07-.27,1,1,0,0,0-.06-.32.44.44,0,0,1-.17.24.5.5,0,0,1-.29.08.62.62,0,0,1-.25-.05.5.5,0,0,1-.17-.15.88.88,0,0,1-.11-.24,1.55,1.55,0,0,1,0-.31,1.14,1.14,0,0,1,0-.33,1,1,0,0,1,.15-.25A.76.76,0,0,1,36,37.1a.73.73,0,0,1,.3-.06h.15l.17,0,.15,0,.12,0V38a1,1,0,0,0,0,.17l0,.15a.83.83,0,0,0,0,.15.81.81,0,0,1,0,.16.66.66,0,0,1-.16.49.64.64,0,0,1-.45.15h-.18l-.17,0-.13,0-.08,0Zm.43-.54a.47.47,0,0,0,.11-.13.58.58,0,0,0,.08-.18.78.78,0,0,0,0-.22v-.46l-.09,0H36.3a.36.36,0,0,0-.19,0,.29.29,0,0,0-.12.1.51.51,0,0,0-.07.17,1.5,1.5,0,0,0,0,.22c0,.07,0,.13,0,.2a.47.47,0,0,0,0,.17.25.25,0,0,0,.08.12.17.17,0,0,0,.13,0A.21.21,0,0,0,36.28,38.31Z"/><path class="ebb8c8e5-6917-490b-aab2-938fc5a68e90" d="M18.46,40.85v1.94h-.35V41.25a1.56,1.56,0,0,1-.2.16.51.51,0,0,1-.18.09l-.14-.25.15-.06.14-.08A.72.72,0,0,0,18,41l.17-.15Z"/><path class="ebb8c8e5-6917-490b-aab2-938fc5a68e90" d="M20,40.9a.55.55,0,0,1,.22.18.82.82,0,0,1,.12.3,1.73,1.73,0,0,1,0,.41,1.87,1.87,0,0,1,0,.42,1,1,0,0,1-.13.32.68.68,0,0,1-.57.28.76.76,0,0,1-.32-.07.5.5,0,0,1-.22-.19.68.68,0,0,1-.12-.3,2.12,2.12,0,0,1,0-.82.93.93,0,0,1,.13-.32.66.66,0,0,1,.23-.21.86.86,0,0,1,.34-.07A.66.66,0,0,1,20,40.9Zm-.52.25a.39.39,0,0,0-.1.14,1.19,1.19,0,0,0-.05.22,2.81,2.81,0,0,0,0,.3,2.53,2.53,0,0,0,0,.28,1.44,1.44,0,0,0,.05.24.42.42,0,0,0,.11.15.29.29,0,0,0,.19.06.25.25,0,0,0,.15,0,.33.33,0,0,0,.1-.15.65.65,0,0,0,.05-.22,2.48,2.48,0,0,0,0-.29c0-.1,0-.2,0-.29a.77.77,0,0,0-.06-.23.36.36,0,0,0-.11-.16.3.3,0,0,0-.18,0A.22.22,0,0,0,19.44,41.15Z"/><path class="ebb8c8e5-6917-490b-aab2-938fc5a68e90" d="M21.67,40.9a.49.49,0,0,1,.22.18.83.83,0,0,1,.13.3,2.54,2.54,0,0,1,0,.41,1.87,1.87,0,0,1,0,.42.83.83,0,0,1-.13.32.74.74,0,0,1-.23.2.68.68,0,0,1-.34.08.79.79,0,0,1-.32-.07.5.5,0,0,1-.22-.19,1,1,0,0,1-.12-.3,2.12,2.12,0,0,1,0-.82.94.94,0,0,1,.14-.32A.58.58,0,0,1,21,40.9a.81.81,0,0,1,.33-.07A.61.61,0,0,1,21.67,40.9Zm-.51.25a.3.3,0,0,0-.1.14.71.71,0,0,0,0,.22,2.66,2.66,0,0,0,0,.3c0,.1,0,.19,0,.28a.84.84,0,0,0,.06.24.4.4,0,0,0,.1.15.29.29,0,0,0,.19.06.28.28,0,0,0,.16,0,.44.44,0,0,0,.1-.15,1,1,0,0,0,.05-.22,2.62,2.62,0,0,0,0-.29,2.71,2.71,0,0,0,0-.29.78.78,0,0,0-.05-.23.46.46,0,0,0-.11-.16.36.36,0,0,0-.19,0A.2.2,0,0,0,21.16,41.15Z"/><path class="ebb8c8e5-6917-490b-aab2-938fc5a68e90" d="M22.62,43.06l.09,0,.11,0,.12,0h.12a.3.3,0,0,0,.25-.1.42.42,0,0,0,.07-.26.74.74,0,0,0-.07-.32.39.39,0,0,1-.16.23.44.44,0,0,1-.29.09.49.49,0,0,1-.25-.06.43.43,0,0,1-.18-.15.87.87,0,0,1-.1-.24,1.48,1.48,0,0,1,0-.31.83.83,0,0,1,.05-.32,1.1,1.1,0,0,1,.15-.26.63.63,0,0,1,.23-.16.73.73,0,0,1,.3-.06h.15l.17,0,.15,0,.12,0v.84a.47.47,0,0,0,0,.17l0,.15,0,.15a.88.88,0,0,1,0,.17.65.65,0,0,1-.17.48.58.58,0,0,1-.44.16l-.18,0-.17,0-.14,0-.07,0Zm.43-.55a.36.36,0,0,0,.11-.13.75.75,0,0,0,.08-.18.76.76,0,0,0,0-.21v-.47l-.1,0h-.11a.38.38,0,0,0-.19,0,.32.32,0,0,0-.12.11.43.43,0,0,0-.06.17,1.25,1.25,0,0,0,0,.21,1.27,1.27,0,0,0,0,.2.48.48,0,0,0,0,.18.35.35,0,0,0,.07.12.21.21,0,0,0,.14,0A.18.18,0,0,0,23.05,42.51Z"/><path class="bc55513a-d1bd-4079-83df-19a617643d58" d="M27,46.8l0-.36h.38l0,.1h-.24l0,.18h.12l.08,0a.18.18,0,0,1,.07.05.16.16,0,0,1,0,.07.41.41,0,0,1,0,.18.16.16,0,0,1,0,.07.13.13,0,0,1-.07.06l-.11,0a.25.25,0,0,1-.12,0l-.12,0L27,47l.09,0a.12.12,0,0,0,.08,0,.11.11,0,0,0,.1,0,.25.25,0,0,0,0-.1.12.12,0,0,0,0-.09.09.09,0,0,0-.08,0h-.14Z"/><path class="bc55513a-d1bd-4079-83df-19a617643d58" d="M28,46.45a.27.27,0,0,1,.08.07.33.33,0,0,1,.05.12.66.66,0,0,1,0,.15.81.81,0,0,1,0,.16.61.61,0,0,1-.05.12.31.31,0,0,1-.09.07.25.25,0,0,1-.13,0l-.12,0a.27.27,0,0,1-.08-.07.34.34,0,0,1,0-.12.61.61,0,0,1,0-.15.78.78,0,0,1,0-.16.31.31,0,0,1,.05-.12.18.18,0,0,1,.08-.07.28.28,0,0,1,.13,0Zm-.19.1a.1.1,0,0,0,0,.05.24.24,0,0,0,0,.09.37.37,0,0,0,0,.11.34.34,0,0,0,0,.1.2.2,0,0,0,0,.09.13.13,0,0,0,0,.06l.07,0,.06,0,0,0a.24.24,0,0,0,0-.09.37.37,0,0,0,0-.11.34.34,0,0,0,0-.1.24.24,0,0,0,0-.09l0-.06-.07,0Z"/><path class="bc55513a-d1bd-4079-83df-19a617643d58" d="M28.32,47.26l0,0h.13a.1.1,0,0,0,.09,0,.17.17,0,0,0,0-.1.27.27,0,0,0,0-.12.15.15,0,0,1-.06.09.16.16,0,0,1-.11,0l-.09,0a.13.13,0,0,1-.07-.06.19.19,0,0,1,0-.09.36.36,0,0,1,0-.11.37.37,0,0,1,0-.12l.06-.1a.15.15,0,0,1,.09-.06.2.2,0,0,1,.11,0h.22v.31a.15.15,0,0,0,0,.07.43.43,0,0,1,0,0s0,0,0,.06a.13.13,0,0,1,0,.06.24.24,0,0,1-.06.18.24.24,0,0,1-.17.06h-.13l-.05,0h0Zm.17-.2,0-.05,0-.07s0,0,0-.08v-.17h-.15l-.05,0a.64.64,0,0,0,0,.07s0,.05,0,.08a.17.17,0,0,0,0,.07.15.15,0,0,0,0,.07s0,0,0,0l0,0Z"/></svg>